<svg width="408" height="25" viewBox="0 0 408 25" fill="none" xmlns="http://www.w3.org/2000/svg">
<path d="M65.3409 5.81818L61.5909 19.75H60.3636L64.1136 5.81818H65.3409Z" fill="#E0DFDC"/>
<path d="M11.842 16.037L13.87 10.395C13.9913 10.057 14.078 9.78833 14.13 9.589C14.182 9.38967 14.208 9.21633 14.208 9.069C14.208 8.84367 14.1343 8.692 13.987 8.614C13.8483 8.52733 13.597 8.484 13.233 8.484V7.99H16.392V8.484C15.9933 8.484 15.69 8.56633 15.482 8.731C15.2827 8.89567 15.1137 9.16433 14.975 9.537L11.712 18.13H11.257L8.761 10.733L5.992 18.13H5.537L2.833 10.668C2.677 10.252 2.534 9.90533 2.404 9.628C2.28267 9.342 2.14833 9.11667 2.001 8.952C1.86233 8.78733 1.702 8.67033 1.52 8.601C1.338 8.53167 1.117 8.497 0.857 8.497V7.99H5.095V8.497C4.653 8.497 4.341 8.536 4.159 8.614C3.98567 8.692 3.899 8.84367 3.899 9.069C3.899 9.18167 3.91633 9.31167 3.951 9.459C3.98567 9.60633 4.03767 9.77967 4.107 9.979L6.083 15.998L7.682 11.5C7.80333 11.162 7.92033 10.85 8.033 10.564C8.15433 10.2693 8.24967 10.005 8.319 9.771C8.19767 9.51967 8.085 9.31167 7.981 9.147C7.88567 8.98233 7.786 8.85233 7.682 8.757C7.58667 8.66167 7.48267 8.59667 7.37 8.562C7.266 8.51867 7.15333 8.497 7.032 8.497V7.99H11.01V8.497C10.7587 8.497 10.555 8.50567 10.399 8.523C10.243 8.54033 10.1217 8.57067 10.035 8.614C9.957 8.64867 9.90067 8.70067 9.866 8.77C9.84 8.83933 9.827 8.92167 9.827 9.017C9.827 9.147 9.84867 9.30733 9.892 9.498C9.944 9.68 10.0133 9.914 10.1 10.2L11.842 16.037ZM22.4682 16.791C21.7316 17.6837 20.8172 18.13 19.7252 18.13C19.2139 18.13 18.7502 18.0477 18.3342 17.883C17.9182 17.7097 17.5586 17.4713 17.2552 17.168C16.9606 16.856 16.7309 16.4877 16.5662 16.063C16.4016 15.6297 16.3192 15.153 16.3192 14.633C16.3192 14.1043 16.4059 13.6147 16.5792 13.164C16.7526 12.7133 16.9952 12.3277 17.3072 12.007C17.6279 11.6863 18.0049 11.435 18.4382 11.253C18.8802 11.071 19.3612 10.98 19.8812 10.98C20.7219 10.98 21.3719 11.2097 21.8312 11.669C22.2906 12.1197 22.5202 12.7697 22.5202 13.619C22.5202 13.7403 22.4942 13.814 22.4422 13.84C22.3989 13.866 22.2906 13.879 22.1172 13.879H17.8402C17.8229 13.9483 17.8099 14.035 17.8012 14.139C17.7926 14.2343 17.7882 14.3427 17.7882 14.464C17.7882 14.9147 17.8402 15.3263 17.9442 15.699C18.0569 16.063 18.2129 16.375 18.4122 16.635C18.6202 16.895 18.8629 17.0987 19.1402 17.246C19.4262 17.3847 19.7426 17.454 20.0892 17.454C20.4532 17.454 20.7912 17.376 21.1032 17.22C21.4152 17.0553 21.7359 16.791 22.0652 16.427L22.4682 16.791ZM20.3232 13.281C20.4966 13.281 20.6352 13.2767 20.7392 13.268C20.8432 13.2593 20.9212 13.242 20.9732 13.216C21.0252 13.19 21.0599 13.1553 21.0772 13.112C21.0946 13.06 21.1032 12.995 21.1032 12.917C21.1032 12.5183 20.9732 12.202 20.7132 11.968C20.4619 11.7253 20.1152 11.604 19.6732 11.604C18.7372 11.604 18.1566 12.163 17.9312 13.281H20.3232ZM25.9914 15.283C25.9914 15.6123 26.039 15.9157 26.1344 16.193C26.2297 16.4617 26.3597 16.6957 26.5244 16.895C26.6977 17.0857 26.9014 17.2373 27.1354 17.35C27.378 17.4627 27.638 17.519 27.9154 17.519C28.2187 17.519 28.4917 17.4497 28.7344 17.311C28.9857 17.1723 29.198 16.9773 29.3714 16.726C29.5534 16.466 29.692 16.1583 29.7874 15.803C29.8914 15.439 29.9434 15.036 29.9434 14.594C29.9434 14.152 29.8914 13.749 29.7874 13.385C29.6834 13.0123 29.5404 12.696 29.3584 12.436C29.1764 12.1673 28.9554 11.9593 28.6954 11.812C28.444 11.6647 28.1667 11.591 27.8634 11.591C27.508 11.591 27.1917 11.6777 26.9144 11.851C26.637 12.0157 26.4247 12.2497 26.2774 12.553C26.0867 12.9343 25.9914 13.4587 25.9914 14.126V15.283ZM25.9654 12.033H26.0174C26.2947 11.669 26.598 11.4047 26.9274 11.24C27.2654 11.0667 27.6554 10.98 28.0974 10.98C28.5654 10.98 28.9987 11.071 29.3974 11.253C29.8047 11.435 30.1557 11.6863 30.4504 12.007C30.7537 12.3277 30.9877 12.709 31.1524 13.151C31.3257 13.5843 31.4124 14.0523 31.4124 14.555C31.4124 15.0663 31.3257 15.543 31.1524 15.985C30.979 16.4183 30.7407 16.7953 30.4374 17.116C30.1427 17.4367 29.7917 17.688 29.3844 17.87C28.977 18.052 28.535 18.143 28.0584 18.143C27.5644 18.143 27.1007 18.052 26.6674 17.87C26.2427 17.688 25.8917 17.441 25.6144 17.129L25.0034 18H24.7174V10.148C24.7174 9.27267 24.661 8.71367 24.5484 8.471C24.5224 8.41033 24.492 8.36267 24.4574 8.328C24.4227 8.28467 24.3707 8.25 24.3014 8.224C24.232 8.18933 24.1367 8.159 24.0154 8.133C23.894 8.107 23.7294 8.081 23.5214 8.055V7.73L25.9654 7.21V12.033ZM33.5582 18H33.2722V15.764H33.5972C33.9352 16.986 34.5506 17.597 35.4432 17.597C35.7899 17.597 36.0629 17.5147 36.2622 17.35C36.4702 17.1767 36.5742 16.9167 36.5742 16.57C36.5742 16.44 36.5526 16.3317 36.5092 16.245C36.4746 16.1497 36.4009 16.0543 36.2882 15.959C36.1842 15.855 36.0326 15.738 35.8332 15.608C35.6426 15.478 35.3869 15.3133 35.0662 15.114C34.7716 14.932 34.5159 14.763 34.2992 14.607C34.0826 14.451 33.9006 14.295 33.7532 14.139C33.6059 13.9743 33.4932 13.801 33.4152 13.619C33.3459 13.437 33.3112 13.2247 33.3112 12.982C33.3112 12.6873 33.3589 12.4187 33.4542 12.176C33.5582 11.9247 33.6969 11.7123 33.8702 11.539C34.0436 11.3657 34.2472 11.2313 34.4812 11.136C34.7152 11.032 34.9709 10.98 35.2482 10.98C35.4822 10.98 35.7249 11.019 35.9762 11.097C36.2276 11.1663 36.4486 11.2617 36.6392 11.383L36.8992 11.11H37.1462V12.982H36.8082C36.6176 12.4533 36.4096 12.0763 36.1842 11.851C35.9589 11.6257 35.6816 11.513 35.3522 11.513C35.0576 11.513 34.8192 11.591 34.6372 11.747C34.4639 11.903 34.3772 12.1197 34.3772 12.397C34.3772 12.5443 34.3989 12.6743 34.4422 12.787C34.4942 12.891 34.5722 12.995 34.6762 13.099C34.7802 13.203 34.9102 13.3113 35.0662 13.424C35.2309 13.528 35.4259 13.6493 35.6512 13.788C36.0239 14.022 36.3402 14.23 36.6002 14.412C36.8689 14.594 37.0856 14.776 37.2502 14.958C37.4149 15.1313 37.5362 15.3133 37.6142 15.504C37.6922 15.6947 37.7312 15.9113 37.7312 16.154C37.7312 16.7693 37.5319 17.2547 37.1332 17.61C36.7346 17.9567 36.2102 18.13 35.5602 18.13C34.8842 18.13 34.3036 17.935 33.8182 17.545L33.5582 18ZM41.7076 15.933C41.7076 16.271 41.7206 16.544 41.7466 16.752C41.7812 16.9513 41.8419 17.1117 41.9286 17.233C42.0152 17.3457 42.1366 17.4237 42.2926 17.467C42.4486 17.5103 42.6566 17.5363 42.9166 17.545V18H39.1856V17.545C39.4456 17.5363 39.6579 17.5103 39.8226 17.467C39.9872 17.415 40.1129 17.337 40.1996 17.233C40.2949 17.1203 40.3556 16.9687 40.3816 16.778C40.4162 16.5787 40.4336 16.3273 40.4336 16.024V14.36C40.4336 13.8573 40.4249 13.4457 40.4076 13.125C40.3989 12.7957 40.3772 12.5703 40.3426 12.449C40.2992 12.2497 40.1996 12.1153 40.0436 12.046C39.8876 11.968 39.5929 11.929 39.1596 11.929V11.474L41.7076 10.98V15.933ZM40.2126 8.341C40.2126 8.11567 40.2906 7.925 40.4466 7.769C40.6026 7.613 40.7932 7.535 41.0186 7.535C41.2439 7.535 41.4346 7.613 41.5906 7.769C41.7466 7.925 41.8246 8.11567 41.8246 8.341C41.8246 8.56633 41.7466 8.757 41.5906 8.913C41.4346 9.069 41.2439 9.147 41.0186 9.147C40.7932 9.147 40.6026 9.069 40.4466 8.913C40.2906 8.757 40.2126 8.56633 40.2126 8.341ZM44.0942 11.929V11.448C44.5536 11.1793 44.9132 10.9107 45.1732 10.642C45.4332 10.3733 45.6326 10.0527 45.7712 9.68H46.1482V11.318H47.8902V11.929H46.1482V15.881C46.1482 16.1843 46.1612 16.44 46.1872 16.648C46.2219 16.856 46.2739 17.025 46.3432 17.155C46.4126 17.2763 46.5036 17.363 46.6162 17.415C46.7289 17.467 46.8719 17.493 47.0452 17.493C47.2619 17.493 47.4439 17.4497 47.5912 17.363C47.7472 17.2677 47.8989 17.1117 48.0462 16.895L48.3712 17.142C48.2499 17.4627 48.0376 17.7097 47.7342 17.883C47.4396 18.0477 47.0712 18.13 46.6292 18.13C46.0572 18.13 45.6196 17.9957 45.3162 17.727C45.0216 17.4497 44.8742 17.0553 44.8742 16.544V11.929H44.0942ZM55.6733 16.791C54.9366 17.6837 54.0223 18.13 52.9303 18.13C52.419 18.13 51.9553 18.0477 51.5393 17.883C51.1233 17.7097 50.7636 17.4713 50.4603 17.168C50.1656 16.856 49.936 16.4877 49.7713 16.063C49.6066 15.6297 49.5243 15.153 49.5243 14.633C49.5243 14.1043 49.611 13.6147 49.7843 13.164C49.9576 12.7133 50.2003 12.3277 50.5123 12.007C50.833 11.6863 51.21 11.435 51.6433 11.253C52.0853 11.071 52.5663 10.98 53.0863 10.98C53.927 10.98 54.577 11.2097 55.0363 11.669C55.4956 12.1197 55.7253 12.7697 55.7253 13.619C55.7253 13.7403 55.6993 13.814 55.6473 13.84C55.604 13.866 55.4956 13.879 55.3223 13.879H51.0453C51.028 13.9483 51.015 14.035 51.0063 14.139C50.9976 14.2343 50.9933 14.3427 50.9933 14.464C50.9933 14.9147 51.0453 15.3263 51.1493 15.699C51.262 16.063 51.418 16.375 51.6173 16.635C51.8253 16.895 52.068 17.0987 52.3453 17.246C52.6313 17.3847 52.9476 17.454 53.2943 17.454C53.6583 17.454 53.9963 17.376 54.3083 17.22C54.6203 17.0553 54.941 16.791 55.2703 16.427L55.6733 16.791ZM53.5283 13.281C53.7016 13.281 53.8403 13.2767 53.9443 13.268C54.0483 13.2593 54.1263 13.242 54.1783 13.216C54.2303 13.19 54.265 13.1553 54.2823 13.112C54.2996 13.06 54.3083 12.995 54.3083 12.917C54.3083 12.5183 54.1783 12.202 53.9183 11.968C53.667 11.7253 53.3203 11.604 52.8783 11.604C51.9423 11.604 51.3616 12.163 51.1363 13.281H53.5283Z" fill="#6D6B67"/>
<path d="M196.341 5.81818L192.591 19.75H191.364L195.114 5.81818H196.341Z" fill="#E0DFDC"/>
<path d="M80.936 15.858L83.4 9.782C83.54 9.43667 83.638 9.166 83.694 8.97C83.75 8.774 83.778 8.59667 83.778 8.438C83.778 8.186 83.6987 8.00867 83.54 7.906C83.3907 7.80333 83.106 7.752 82.686 7.752V7.22H86.088V7.752C85.8733 7.78 85.6867 7.81733 85.528 7.864C85.3787 7.91067 85.2433 7.976 85.122 8.06C85.01 8.144 84.9073 8.256 84.814 8.396C84.73 8.52667 84.646 8.69 84.562 8.886L80.768 18.14H80.278L76.666 9.418C76.5447 9.138 76.4233 8.89533 76.302 8.69C76.19 8.48467 76.064 8.31667 75.924 8.186C75.784 8.05533 75.6253 7.95733 75.448 7.892C75.2707 7.82667 75.0607 7.78467 74.818 7.766V7.22H79.382V7.766C79.1207 7.766 78.906 7.78 78.738 7.808C78.5793 7.82667 78.4533 7.864 78.36 7.92C78.2667 7.96667 78.2013 8.02733 78.164 8.102C78.1267 8.17667 78.108 8.26067 78.108 8.354C78.108 8.48467 78.1313 8.63867 78.178 8.816C78.2247 8.984 78.3133 9.23133 78.444 9.558L80.936 15.858ZM89.4475 15.774C89.4475 16.138 89.4615 16.432 89.4895 16.656C89.5268 16.8707 89.5921 17.0433 89.6855 17.174C89.7788 17.2953 89.9095 17.3793 90.0775 17.426C90.2455 17.4727 90.4695 17.5007 90.7495 17.51V18H86.7315V17.51C87.0115 17.5007 87.2401 17.4727 87.4175 17.426C87.5948 17.37 87.7301 17.286 87.8235 17.174C87.9261 17.0527 87.9915 16.8893 88.0195 16.684C88.0568 16.4693 88.0755 16.1987 88.0755 15.872V14.08C88.0755 13.5387 88.0661 13.0953 88.0475 12.75C88.0381 12.3953 88.0148 12.1527 87.9775 12.022C87.9308 11.8073 87.8235 11.6627 87.6555 11.588C87.4875 11.504 87.1701 11.462 86.7035 11.462V10.972L89.4475 10.44V15.774ZM87.8375 7.598C87.8375 7.35533 87.9215 7.15 88.0895 6.982C88.2575 6.814 88.4628 6.73 88.7055 6.73C88.9481 6.73 89.1535 6.814 89.3215 6.982C89.4895 7.15 89.5735 7.35533 89.5735 7.598C89.5735 7.84067 89.4895 8.046 89.3215 8.214C89.1535 8.382 88.9481 8.466 88.7055 8.466C88.4628 8.466 88.2575 8.382 88.0895 8.214C87.9215 8.046 87.8375 7.84067 87.8375 7.598ZM92.631 18H92.323V15.592H92.673C93.037 16.908 93.6996 17.566 94.661 17.566C95.0343 17.566 95.3283 17.4773 95.543 17.3C95.767 17.1133 95.879 16.8333 95.879 16.46C95.879 16.32 95.8556 16.2033 95.809 16.11C95.7716 16.0073 95.6923 15.9047 95.571 15.802C95.459 15.69 95.2956 15.564 95.081 15.424C94.8756 15.284 94.6003 15.1067 94.255 14.892C93.9376 14.696 93.6623 14.514 93.429 14.346C93.1956 14.178 92.9996 14.01 92.841 13.842C92.6823 13.6647 92.561 13.478 92.477 13.282C92.4023 13.086 92.365 12.8573 92.365 12.596C92.365 12.2787 92.4163 11.9893 92.519 11.728C92.631 11.4573 92.7803 11.2287 92.967 11.042C93.1536 10.8553 93.373 10.7107 93.625 10.608C93.877 10.496 94.1523 10.44 94.451 10.44C94.703 10.44 94.9643 10.482 95.235 10.566C95.5056 10.6407 95.7436 10.7433 95.949 10.874L96.229 10.58H96.495V12.596H96.131C95.9256 12.0267 95.7016 11.6207 95.459 11.378C95.2163 11.1353 94.9176 11.014 94.563 11.014C94.2456 11.014 93.989 11.098 93.793 11.266C93.6063 11.434 93.513 11.6673 93.513 11.966C93.513 12.1247 93.5363 12.2647 93.583 12.386C93.639 12.498 93.723 12.61 93.835 12.722C93.947 12.834 94.087 12.9507 94.255 13.072C94.4323 13.184 94.6423 13.3147 94.885 13.464C95.2863 13.716 95.627 13.94 95.907 14.136C96.1963 14.332 96.4296 14.528 96.607 14.724C96.7843 14.9107 96.915 15.1067 96.999 15.312C97.083 15.5173 97.125 15.7507 97.125 16.012C97.125 16.6747 96.9103 17.1973 96.481 17.58C96.0516 17.9533 95.487 18.14 94.787 18.14C94.059 18.14 93.4336 17.93 92.911 17.51L92.631 18ZM104.666 12.82C104.666 12.4373 104.657 12.1387 104.638 11.924C104.62 11.7 104.568 11.532 104.484 11.42C104.41 11.2987 104.293 11.2193 104.134 11.182C103.985 11.1353 103.775 11.098 103.504 11.07V10.58H106.038V14.878C106.038 15.41 106.043 15.844 106.052 16.18C106.071 16.516 106.094 16.768 106.122 16.936C106.141 17.0573 106.169 17.1553 106.206 17.23C106.253 17.2953 106.318 17.3513 106.402 17.398C106.486 17.4353 106.594 17.4633 106.724 17.482C106.864 17.4913 107.042 17.496 107.256 17.496V17.986L104.946 18.154L104.792 16.474H104.736C104.382 17.0527 103.971 17.4773 103.504 17.748C103.047 18.0093 102.566 18.14 102.062 18.14C101.67 18.14 101.288 18.0653 100.914 17.916C100.55 17.7667 100.275 17.566 100.088 17.314C99.9297 17.1087 99.813 16.824 99.7384 16.46C99.673 16.096 99.6404 15.6247 99.6404 15.046V12.82C99.6404 12.4373 99.631 12.1387 99.6124 11.924C99.5937 11.7 99.5424 11.532 99.4584 11.42C99.3837 11.2987 99.267 11.2193 99.1084 11.182C98.959 11.1353 98.749 11.098 98.4784 11.07V10.58H101.012V14.402C101.012 15.4193 101.129 16.1567 101.362 16.614C101.605 17.0713 101.988 17.3 102.51 17.3C103.332 17.3 103.971 16.7633 104.428 15.69C104.475 15.578 104.512 15.4753 104.54 15.382C104.568 15.2887 104.592 15.186 104.61 15.074C104.629 14.962 104.643 14.836 104.652 14.696C104.662 14.556 104.666 14.388 104.666 14.192V12.82ZM112.849 13.856C112.317 14.0613 111.865 14.262 111.491 14.458C111.127 14.654 110.833 14.85 110.609 15.046C110.385 15.242 110.222 15.438 110.119 15.634C110.026 15.83 109.979 16.0307 109.979 16.236C109.979 16.544 110.082 16.796 110.287 16.992C110.493 17.188 110.763 17.286 111.099 17.286C111.342 17.286 111.566 17.2253 111.771 17.104C111.986 16.9827 112.173 16.8193 112.331 16.614C112.49 16.3993 112.616 16.152 112.709 15.872C112.803 15.5827 112.849 15.2793 112.849 14.962V13.856ZM112.849 13.254V12.68C112.849 11.5413 112.364 10.972 111.393 10.972C111.235 10.972 111.099 10.986 110.987 11.014C110.875 11.042 110.782 11.0887 110.707 11.154C110.633 11.2193 110.563 11.3127 110.497 11.434C110.441 11.5553 110.385 11.7047 110.329 11.882C110.227 12.1527 110.124 12.3347 110.021 12.428C109.928 12.512 109.788 12.554 109.601 12.554C109.135 12.554 108.901 12.3207 108.901 11.854C108.901 11.406 109.139 11.0607 109.615 10.818C110.091 10.566 110.768 10.44 111.645 10.44C112.579 10.44 113.241 10.608 113.633 10.944C114.025 11.2707 114.221 11.8307 114.221 12.624V15.76C114.221 16.824 114.431 17.356 114.851 17.356C114.982 17.356 115.108 17.342 115.229 17.314C115.351 17.2767 115.453 17.188 115.537 17.048L115.733 17.384C115.621 17.5987 115.416 17.7807 115.117 17.93C114.819 18.07 114.506 18.14 114.179 18.14C113.769 18.14 113.461 18.0093 113.255 17.748C113.059 17.4867 112.961 17.118 112.961 16.642H112.891C112.649 17.0993 112.313 17.4633 111.883 17.734C111.454 17.9953 110.978 18.126 110.455 18.126C109.867 18.126 109.405 17.9767 109.069 17.678C108.733 17.3793 108.565 16.978 108.565 16.474C108.565 16.25 108.603 16.0353 108.677 15.83C108.761 15.6247 108.892 15.4287 109.069 15.242C109.247 15.0553 109.48 14.8733 109.769 14.696C110.059 14.5093 110.413 14.3227 110.833 14.136L112.849 13.254ZM119.041 15.816C119.041 16.1707 119.055 16.4553 119.083 16.67C119.111 16.8847 119.167 17.0527 119.251 17.174C119.345 17.2953 119.471 17.3793 119.629 17.426C119.797 17.4727 120.017 17.5007 120.287 17.51V18H116.423V17.51C116.703 17.5007 116.927 17.4727 117.095 17.426C117.263 17.37 117.394 17.286 117.487 17.174C117.59 17.062 117.655 16.908 117.683 16.712C117.721 16.5067 117.739 16.2407 117.739 15.914V9.88C117.739 9.376 117.73 8.956 117.711 8.62C117.702 8.27467 117.683 8.04133 117.655 7.92C117.609 7.70533 117.497 7.56067 117.319 7.486C117.151 7.41133 116.843 7.374 116.395 7.374V6.898L119.041 6.38V15.816ZM129.127 15.354C129.127 15.8207 129.146 16.1893 129.183 16.46C129.221 16.7307 129.291 16.9407 129.393 17.09C129.505 17.2393 129.659 17.3373 129.855 17.384C130.061 17.4307 130.327 17.4587 130.653 17.468V18H126.117V17.468C126.444 17.4587 126.705 17.4307 126.901 17.384C127.107 17.328 127.265 17.23 127.377 17.09C127.489 16.95 127.564 16.754 127.601 16.502C127.639 16.2407 127.657 15.8907 127.657 15.452V9.768C127.657 9.376 127.639 9.054 127.601 8.802C127.573 8.54067 127.508 8.33533 127.405 8.186C127.312 8.03667 127.172 7.934 126.985 7.878C126.799 7.81267 126.556 7.77067 126.257 7.752V7.22H130.513V7.752C130.215 7.76133 129.972 7.79867 129.785 7.864C129.608 7.92933 129.468 8.04133 129.365 8.2C129.272 8.34933 129.207 8.55933 129.169 8.83C129.141 9.10067 129.127 9.446 129.127 9.866V15.354ZM138.119 16.824H138.063C137.727 17.3 137.367 17.6407 136.985 17.846C136.611 18.042 136.168 18.14 135.655 18.14C135.123 18.14 134.633 18.0467 134.185 17.86C133.746 17.664 133.363 17.398 133.037 17.062C132.719 16.7167 132.467 16.306 132.281 15.83C132.103 15.354 132.015 14.836 132.015 14.276C132.015 13.7253 132.103 13.2167 132.281 12.75C132.467 12.274 132.719 11.868 133.037 11.532C133.363 11.1867 133.751 10.9207 134.199 10.734C134.647 10.538 135.132 10.44 135.655 10.44C136.103 10.44 136.499 10.5147 136.845 10.664C137.199 10.8133 137.54 11.0513 137.867 11.378V9.95C137.867 9.418 137.857 8.97467 137.839 8.62C137.829 8.26533 137.811 8.02267 137.783 7.892C137.736 7.68667 137.605 7.542 137.391 7.458C137.176 7.374 136.826 7.332 136.341 7.332V6.912L139.211 6.38V14.458C139.211 15.102 139.215 15.634 139.225 16.054C139.234 16.4647 139.262 16.7587 139.309 16.936C139.337 17.048 139.369 17.1413 139.407 17.216C139.453 17.2907 139.514 17.3513 139.589 17.398C139.673 17.4353 139.78 17.4633 139.911 17.482C140.051 17.5007 140.228 17.51 140.443 17.51V17.986L138.119 18.14V16.824ZM137.839 13.73C137.839 13.2447 137.811 12.876 137.755 12.624C137.708 12.372 137.61 12.1527 137.461 11.966C137.246 11.686 136.971 11.476 136.635 11.336C136.308 11.1867 135.981 11.112 135.655 11.112C134.983 11.112 134.469 11.392 134.115 11.952C133.769 12.5027 133.597 13.254 133.597 14.206C133.597 14.7007 133.639 15.1487 133.723 15.55C133.816 15.9513 133.947 16.2967 134.115 16.586C134.292 16.866 134.507 17.0853 134.759 17.244C135.02 17.3933 135.319 17.468 135.655 17.468C135.823 17.468 135.991 17.4493 136.159 17.412C136.336 17.3747 136.504 17.3187 136.663 17.244C136.831 17.16 136.985 17.0667 137.125 16.964C137.265 16.852 137.381 16.726 137.475 16.586C137.605 16.3807 137.699 16.1333 137.755 15.844C137.811 15.5547 137.839 15.158 137.839 14.654V13.73ZM148.498 16.698C147.705 17.6593 146.72 18.14 145.544 18.14C144.993 18.14 144.494 18.0513 144.046 17.874C143.598 17.6873 143.211 17.4307 142.884 17.104C142.567 16.768 142.319 16.3713 142.142 15.914C141.965 15.4473 141.876 14.934 141.876 14.374C141.876 13.8047 141.969 13.2773 142.156 12.792C142.343 12.3067 142.604 11.8913 142.94 11.546C143.285 11.2007 143.691 10.93 144.158 10.734C144.634 10.538 145.152 10.44 145.712 10.44C146.617 10.44 147.317 10.6873 147.812 11.182C148.307 11.6673 148.554 12.3673 148.554 13.282C148.554 13.4127 148.526 13.492 148.47 13.52C148.423 13.548 148.307 13.562 148.12 13.562H143.514C143.495 13.6367 143.481 13.73 143.472 13.842C143.463 13.9447 143.458 14.0613 143.458 14.192C143.458 14.6773 143.514 15.1207 143.626 15.522C143.747 15.914 143.915 16.25 144.13 16.53C144.354 16.81 144.615 17.0293 144.914 17.188C145.222 17.3373 145.563 17.412 145.936 17.412C146.328 17.412 146.692 17.328 147.028 17.16C147.364 16.9827 147.709 16.698 148.064 16.306L148.498 16.698ZM146.188 12.918C146.375 12.918 146.524 12.9133 146.636 12.904C146.748 12.8947 146.832 12.876 146.888 12.848C146.944 12.82 146.981 12.7827 147 12.736C147.019 12.68 147.028 12.61 147.028 12.526C147.028 12.0967 146.888 11.756 146.608 11.504C146.337 11.2427 145.964 11.112 145.488 11.112C144.48 11.112 143.855 11.714 143.612 12.918H146.188ZM152.639 15.802C152.639 16.1847 152.649 16.488 152.667 16.712C152.686 16.9267 152.733 17.0947 152.807 17.216C152.891 17.328 153.008 17.4027 153.157 17.44C153.316 17.4773 153.531 17.5053 153.801 17.524V18H150.133V17.524C150.395 17.5053 150.6 17.4773 150.749 17.44C150.908 17.4027 151.029 17.328 151.113 17.216C151.197 17.104 151.249 16.9453 151.267 16.74C151.295 16.5347 151.309 16.2547 151.309 15.9V14.038C151.309 12.9273 151.281 12.2507 151.225 12.008C151.197 11.8867 151.16 11.7887 151.113 11.714C151.076 11.63 151.015 11.5693 150.931 11.532C150.847 11.4853 150.74 11.4573 150.609 11.448C150.479 11.4293 150.311 11.42 150.105 11.42V10.972L152.345 10.44L152.513 11.826H152.569C152.924 11.3873 153.339 11.0467 153.815 10.804C154.291 10.5613 154.809 10.44 155.369 10.44C155.799 10.44 156.191 10.51 156.545 10.65C156.9 10.79 157.171 10.9813 157.357 11.224C157.516 11.4387 157.628 11.7187 157.693 12.064C157.759 12.4 157.791 12.8667 157.791 13.464V15.802C157.791 16.1847 157.801 16.488 157.819 16.712C157.847 16.9267 157.899 17.0947 157.973 17.216C158.048 17.328 158.16 17.4027 158.309 17.44C158.468 17.4773 158.673 17.5053 158.925 17.524V18H155.299V17.524C155.561 17.5147 155.766 17.4913 155.915 17.454C156.074 17.4073 156.191 17.328 156.265 17.216C156.349 17.104 156.401 16.9453 156.419 16.74C156.447 16.5253 156.461 16.2453 156.461 15.9V14.052C156.461 13.52 156.433 13.072 156.377 12.708C156.321 12.344 156.228 12.05 156.097 11.826C155.976 11.602 155.813 11.4433 155.607 11.35C155.402 11.2473 155.155 11.196 154.865 11.196C154.445 11.196 154.058 11.308 153.703 11.532C153.358 11.7467 153.087 12.0453 152.891 12.428C152.845 12.5213 152.803 12.61 152.765 12.694C152.737 12.778 152.714 12.876 152.695 12.988C152.677 13.1 152.663 13.2307 152.653 13.38C152.644 13.52 152.639 13.702 152.639 13.926V15.802ZM160.228 11.462V10.944C160.722 10.6547 161.11 10.3653 161.39 10.076C161.67 9.78667 161.884 9.44133 162.034 9.04H162.44V10.804H164.316V11.462H162.44V15.718C162.44 16.0447 162.454 16.32 162.482 16.544C162.519 16.768 162.575 16.95 162.65 17.09C162.724 17.2207 162.822 17.314 162.944 17.37C163.065 17.426 163.219 17.454 163.406 17.454C163.639 17.454 163.835 17.4073 163.994 17.314C164.162 17.2113 164.325 17.0433 164.484 16.81L164.834 17.076C164.703 17.4213 164.474 17.6873 164.148 17.874C163.83 18.0513 163.434 18.14 162.958 18.14C162.342 18.14 161.87 17.9953 161.544 17.706C161.226 17.4073 161.068 16.9827 161.068 16.432V11.462H160.228ZM168.551 15.774C168.551 16.138 168.565 16.432 168.593 16.656C168.63 16.8707 168.695 17.0433 168.789 17.174C168.882 17.2953 169.013 17.3793 169.181 17.426C169.349 17.4727 169.573 17.5007 169.853 17.51V18H165.835V17.51C166.115 17.5007 166.343 17.4727 166.521 17.426C166.698 17.37 166.833 17.286 166.927 17.174C167.029 17.0527 167.095 16.8893 167.123 16.684C167.16 16.4693 167.179 16.1987 167.179 15.872V14.08C167.179 13.5387 167.169 13.0953 167.151 12.75C167.141 12.3953 167.118 12.1527 167.081 12.022C167.034 11.8073 166.927 11.6627 166.759 11.588C166.591 11.504 166.273 11.462 165.807 11.462V10.972L168.551 10.44V15.774ZM166.941 7.598C166.941 7.35533 167.025 7.15 167.193 6.982C167.361 6.814 167.566 6.73 167.809 6.73C168.051 6.73 168.257 6.814 168.425 6.982C168.593 7.15 168.677 7.35533 168.677 7.598C168.677 7.84067 168.593 8.046 168.425 8.214C168.257 8.382 168.051 8.466 167.809 8.466C167.566 8.466 167.361 8.382 167.193 8.214C167.025 8.046 166.941 7.84067 166.941 7.598ZM171.09 11.462V10.944C171.585 10.6547 171.972 10.3653 172.252 10.076C172.532 9.78667 172.747 9.44133 172.896 9.04H173.302V10.804H175.178V11.462H173.302V15.718C173.302 16.0447 173.316 16.32 173.344 16.544C173.381 16.768 173.437 16.95 173.512 17.09C173.587 17.2207 173.685 17.314 173.806 17.37C173.927 17.426 174.081 17.454 174.268 17.454C174.501 17.454 174.697 17.4073 174.856 17.314C175.024 17.2113 175.187 17.0433 175.346 16.81L175.696 17.076C175.565 17.4213 175.337 17.6873 175.01 17.874C174.693 18.0513 174.296 18.14 173.82 18.14C173.204 18.14 172.733 17.9953 172.406 17.706C172.089 17.4073 171.93 16.9827 171.93 16.432V11.462H171.09ZM180.155 20.198C179.726 21.1593 179.058 21.64 178.153 21.64C177.565 21.64 177.271 21.4207 177.271 20.982C177.271 20.7487 177.35 20.576 177.509 20.464C177.677 20.3613 177.98 20.2727 178.419 20.198C178.615 20.17 178.783 20.128 178.923 20.072C179.063 20.0253 179.189 19.96 179.301 19.876C179.413 19.8013 179.511 19.7033 179.595 19.582C179.688 19.4607 179.777 19.3113 179.861 19.134L180.351 18.154L177.663 12.316C177.542 12.0547 177.434 11.8493 177.341 11.7C177.257 11.5413 177.164 11.42 177.061 11.336C176.968 11.2427 176.86 11.182 176.739 11.154C176.618 11.1167 176.464 11.0887 176.277 11.07V10.58H179.987V11.07C179.362 11.07 179.049 11.224 179.049 11.532C179.049 11.6533 179.086 11.8447 179.161 12.106C179.236 12.3673 179.329 12.6333 179.441 12.904L180.981 16.628H181.051L182.325 13.478C182.446 13.17 182.544 12.918 182.619 12.722C182.703 12.526 182.764 12.3673 182.801 12.246C182.848 12.1153 182.876 12.008 182.885 11.924C182.904 11.84 182.913 11.7607 182.913 11.686C182.913 11.4433 182.843 11.28 182.703 11.196C182.572 11.112 182.316 11.07 181.933 11.07V10.58H185.013V11.07C184.836 11.07 184.686 11.0933 184.565 11.14C184.444 11.1867 184.318 11.294 184.187 11.462C184.066 11.6207 183.926 11.854 183.767 12.162C183.618 12.47 183.431 12.8853 183.207 13.408L180.155 20.198Z" fill="#6D6B67"/>
<path d="M293.341 5.81818L289.591 19.75H288.364L292.114 5.81818H293.341Z" fill="#E0DFDC"/>
<path d="M216.87 9.345C216.87 9.875 216.785 10.35 216.615 10.77C216.445 11.19 216.175 11.545 215.805 11.835C215.445 12.125 214.97 12.35 214.38 12.51C213.8 12.67 213.09 12.75 212.25 12.75H210.9V15.645C210.9 16.015 210.92 16.32 210.96 16.56C211.01 16.79 211.105 16.97 211.245 17.1C211.395 17.23 211.605 17.32 211.875 17.37C212.155 17.41 212.52 17.43 212.97 17.43V18H207.675V17.43C208.025 17.42 208.305 17.39 208.515 17.34C208.735 17.29 208.905 17.205 209.025 17.085C209.145 16.965 209.225 16.795 209.265 16.575C209.305 16.355 209.325 16.07 209.325 15.72V8.73C209.325 8.38 209.305 8.1 209.265 7.89C209.235 7.67 209.165 7.5 209.055 7.38C208.955 7.25 208.805 7.165 208.605 7.125C208.405 7.075 208.145 7.04 207.825 7.02V6.45H212.535C213.915 6.45 214.98 6.705 215.73 7.215C216.49 7.725 216.87 8.435 216.87 9.345ZM210.9 12H211.965C212.965 12 213.705 11.81 214.185 11.43C214.675 11.04 214.92 10.405 214.92 9.525C214.92 8.675 214.725 8.07 214.335 7.71C213.955 7.34 213.355 7.155 212.535 7.155H211.155C210.985 7.155 210.9 7.24 210.9 7.41V12ZM222.757 13.56C222.187 13.78 221.702 13.995 221.302 14.205C220.912 14.415 220.597 14.625 220.357 14.835C220.117 15.045 219.942 15.255 219.832 15.465C219.732 15.675 219.682 15.89 219.682 16.11C219.682 16.44 219.792 16.71 220.012 16.92C220.232 17.13 220.522 17.235 220.882 17.235C221.142 17.235 221.382 17.17 221.602 17.04C221.832 16.91 222.032 16.735 222.202 16.515C222.372 16.285 222.507 16.02 222.607 15.72C222.707 15.41 222.757 15.085 222.757 14.745V13.56ZM222.757 12.915V12.3C222.757 11.08 222.237 10.47 221.197 10.47C221.027 10.47 220.882 10.485 220.762 10.515C220.642 10.545 220.542 10.595 220.462 10.665C220.382 10.735 220.307 10.835 220.237 10.965C220.177 11.095 220.117 11.255 220.057 11.445C219.947 11.735 219.837 11.93 219.727 12.03C219.627 12.12 219.477 12.165 219.277 12.165C218.777 12.165 218.527 11.915 218.527 11.415C218.527 10.935 218.782 10.565 219.292 10.305C219.802 10.035 220.527 9.9 221.467 9.9C222.467 9.9 223.177 10.08 223.597 10.44C224.017 10.79 224.227 11.39 224.227 12.24V15.6C224.227 16.74 224.452 17.31 224.902 17.31C225.042 17.31 225.177 17.295 225.307 17.265C225.437 17.225 225.547 17.13 225.637 16.98L225.847 17.34C225.727 17.57 225.507 17.765 225.187 17.925C224.867 18.075 224.532 18.15 224.182 18.15C223.742 18.15 223.412 18.01 223.192 17.73C222.982 17.45 222.877 17.055 222.877 16.545H222.802C222.542 17.035 222.182 17.425 221.722 17.715C221.262 17.995 220.752 18.135 220.192 18.135C219.562 18.135 219.067 17.975 218.707 17.655C218.347 17.335 218.167 16.905 218.167 16.365C218.167 16.125 218.207 15.895 218.287 15.675C218.377 15.455 218.517 15.245 218.707 15.045C218.897 14.845 219.147 14.65 219.457 14.46C219.767 14.26 220.147 14.06 220.597 13.86L222.757 12.915ZM233.818 16.755C233.458 17.195 232.993 17.54 232.423 17.79C231.853 18.03 231.238 18.15 230.578 18.15C230.048 18.15 229.558 18.055 229.108 17.865C228.668 17.665 228.288 17.39 227.968 17.04C227.648 16.68 227.398 16.25 227.218 15.75C227.048 15.25 226.963 14.695 226.963 14.085C226.963 13.445 227.063 12.87 227.263 12.36C227.463 11.84 227.743 11.4 228.103 11.04C228.473 10.67 228.913 10.39 229.423 10.2C229.943 10 230.513 9.9 231.133 9.9C231.523 9.9 231.878 9.935 232.198 10.005C232.518 10.065 232.793 10.155 233.023 10.275C233.263 10.385 233.448 10.525 233.578 10.695C233.708 10.855 233.773 11.03 233.773 11.22C233.773 11.42 233.708 11.575 233.578 11.685C233.448 11.795 233.268 11.85 233.038 11.85C232.858 11.85 232.708 11.815 232.588 11.745C232.468 11.665 232.313 11.495 232.123 11.235C231.923 11.005 231.728 10.845 231.538 10.755C231.358 10.655 231.123 10.605 230.833 10.605C230.123 10.605 229.583 10.88 229.213 11.43C228.853 11.98 228.673 12.79 228.673 13.86C228.673 15.01 228.873 15.885 229.273 16.485C229.683 17.075 230.278 17.37 231.058 17.37C231.478 17.37 231.873 17.29 232.243 17.13C232.613 16.96 232.988 16.69 233.368 16.32L233.818 16.755ZM239.89 17.475C240.22 17.475 240.445 17.46 240.565 17.43C240.695 17.4 240.76 17.36 240.76 17.31C240.75 17.23 240.67 17.085 240.52 16.875C240.37 16.665 240.175 16.415 239.935 16.125L238.345 14.205L237.79 14.73V15.615C237.79 16.005 237.805 16.32 237.835 16.56C237.875 16.79 237.94 16.975 238.03 17.115C238.13 17.245 238.27 17.335 238.45 17.385C238.64 17.435 238.885 17.465 239.185 17.475V18H234.925V17.475C235.225 17.465 235.465 17.435 235.645 17.385C235.835 17.335 235.98 17.245 236.08 17.115C236.19 16.985 236.265 16.81 236.305 16.59C236.345 16.37 236.365 16.08 236.365 15.72V9.435C236.365 8.675 236.355 8.1 236.335 7.71C236.325 7.32 236.275 7.055 236.185 6.915C236.095 6.775 235.945 6.695 235.735 6.675C235.525 6.645 235.245 6.63 234.895 6.63V6.12L237.79 5.55V13.785L239.185 12.42C239.635 11.97 239.97 11.64 240.19 11.43C240.41 11.21 240.52 11.045 240.52 10.935C240.52 10.825 240.415 10.74 240.205 10.68C239.995 10.61 239.695 10.575 239.305 10.575V10.05H243.205V10.575C243.015 10.575 242.85 10.585 242.71 10.605C242.57 10.625 242.435 10.665 242.305 10.725C242.185 10.785 242.055 10.87 241.915 10.98C241.775 11.08 241.615 11.21 241.435 11.37L239.275 13.29L242.245 16.65C242.385 16.82 242.51 16.96 242.62 17.07C242.74 17.17 242.855 17.25 242.965 17.31C243.085 17.37 243.21 17.415 243.34 17.445C243.48 17.465 243.645 17.475 243.835 17.475V18H239.89V17.475ZM249.548 13.56C248.978 13.78 248.493 13.995 248.093 14.205C247.703 14.415 247.388 14.625 247.148 14.835C246.908 15.045 246.733 15.255 246.623 15.465C246.523 15.675 246.473 15.89 246.473 16.11C246.473 16.44 246.583 16.71 246.803 16.92C247.023 17.13 247.313 17.235 247.673 17.235C247.933 17.235 248.173 17.17 248.393 17.04C248.623 16.91 248.823 16.735 248.993 16.515C249.163 16.285 249.298 16.02 249.398 15.72C249.498 15.41 249.548 15.085 249.548 14.745V13.56ZM249.548 12.915V12.3C249.548 11.08 249.028 10.47 247.988 10.47C247.818 10.47 247.673 10.485 247.553 10.515C247.433 10.545 247.333 10.595 247.253 10.665C247.173 10.735 247.098 10.835 247.028 10.965C246.968 11.095 246.908 11.255 246.848 11.445C246.738 11.735 246.628 11.93 246.518 12.03C246.418 12.12 246.268 12.165 246.068 12.165C245.568 12.165 245.318 11.915 245.318 11.415C245.318 10.935 245.573 10.565 246.083 10.305C246.593 10.035 247.318 9.9 248.258 9.9C249.258 9.9 249.968 10.08 250.388 10.44C250.808 10.79 251.018 11.39 251.018 12.24V15.6C251.018 16.74 251.243 17.31 251.693 17.31C251.833 17.31 251.968 17.295 252.098 17.265C252.228 17.225 252.338 17.13 252.428 16.98L252.638 17.34C252.518 17.57 252.298 17.765 251.978 17.925C251.658 18.075 251.323 18.15 250.973 18.15C250.533 18.15 250.203 18.01 249.983 17.73C249.773 17.45 249.668 17.055 249.668 16.545H249.593C249.333 17.035 248.973 17.425 248.513 17.715C248.053 17.995 247.543 18.135 246.983 18.135C246.353 18.135 245.858 17.975 245.498 17.655C245.138 17.335 244.958 16.905 244.958 16.365C244.958 16.125 244.998 15.895 245.078 15.675C245.168 15.455 245.308 15.245 245.498 15.045C245.688 14.845 245.938 14.65 246.248 14.46C246.558 14.26 246.938 14.06 247.388 13.86L249.548 12.915ZM257.129 14.775C257.549 14.775 257.874 14.585 258.104 14.205C258.344 13.825 258.464 13.29 258.464 12.6C258.464 11.92 258.344 11.395 258.104 11.025C257.874 10.645 257.544 10.455 257.114 10.455C256.684 10.455 256.339 10.645 256.079 11.025C255.829 11.405 255.704 11.925 255.704 12.585C255.704 13.245 255.834 13.775 256.094 14.175C256.354 14.575 256.699 14.775 257.129 14.775ZM256.304 16.53C256.544 16.55 256.764 16.57 256.964 16.59C257.164 16.61 257.359 16.63 257.549 16.65C257.749 16.67 257.944 16.695 258.134 16.725C258.334 16.755 258.549 16.785 258.779 16.815C259.499 16.925 260.074 17.205 260.504 17.655C260.944 18.095 261.164 18.65 261.164 19.32C261.164 20.16 260.829 20.8 260.159 21.24C259.499 21.68 258.539 21.9 257.279 21.9C256.719 21.9 256.204 21.85 255.734 21.75C255.274 21.65 254.879 21.505 254.549 21.315C254.219 21.135 253.959 20.915 253.769 20.655C253.589 20.395 253.499 20.11 253.499 19.8C253.499 19.59 253.534 19.395 253.604 19.215C253.674 19.035 253.769 18.875 253.889 18.735C254.009 18.605 254.149 18.5 254.309 18.42C254.479 18.34 254.654 18.3 254.834 18.3C255.174 18.3 255.479 18.405 255.749 18.615C255.479 18.675 255.259 18.82 255.089 19.05C254.919 19.29 254.834 19.56 254.834 19.86C254.834 20.3 255.049 20.64 255.479 20.88C255.919 21.12 256.539 21.24 257.339 21.24C259.049 21.24 259.904 20.715 259.904 19.665C259.904 19.265 259.769 18.93 259.499 18.66C259.229 18.4 258.909 18.245 258.539 18.195C258.299 18.165 258.049 18.13 257.789 18.09C257.539 18.06 257.289 18.03 257.039 18C256.799 17.97 256.574 17.945 256.364 17.925C256.154 17.905 255.984 17.885 255.854 17.865C255.294 17.805 254.869 17.655 254.579 17.415C254.289 17.175 254.144 16.845 254.144 16.425C254.144 16.075 254.289 15.765 254.579 15.495C254.869 15.225 255.234 15.055 255.674 14.985V14.925C255.454 14.835 255.249 14.71 255.059 14.55C254.869 14.38 254.704 14.19 254.564 13.98C254.434 13.77 254.329 13.545 254.249 13.305C254.169 13.055 254.129 12.8 254.129 12.54C254.129 12.16 254.199 11.81 254.339 11.49C254.489 11.17 254.694 10.895 254.954 10.665C255.224 10.425 255.539 10.24 255.899 10.11C256.259 9.97 256.654 9.9 257.084 9.9C257.524 9.9 257.939 9.97 258.329 10.11C258.719 10.24 259.054 10.435 259.334 10.695C259.674 10.415 259.974 10.215 260.234 10.095C260.494 9.965 260.739 9.9 260.969 9.9C261.329 9.9 261.614 9.985 261.824 10.155C262.044 10.315 262.154 10.535 262.154 10.815C262.154 10.985 262.094 11.12 261.974 11.22C261.864 11.32 261.724 11.37 261.554 11.37C261.414 11.37 261.299 11.345 261.209 11.295C261.119 11.245 261.034 11.195 260.954 11.145C260.884 11.085 260.809 11.03 260.729 10.98C260.649 10.93 260.549 10.905 260.429 10.905C260.189 10.905 259.944 10.99 259.694 11.16C259.934 11.53 260.054 11.995 260.054 12.555C260.054 13.405 259.789 14.075 259.259 14.565C258.729 15.045 257.934 15.325 256.874 15.405C256.264 15.455 255.839 15.52 255.599 15.6C255.359 15.68 255.239 15.825 255.239 16.035C255.239 16.195 255.329 16.315 255.509 16.395C255.689 16.465 255.954 16.51 256.304 16.53ZM265.818 15.615C265.818 16.005 265.833 16.32 265.863 16.56C265.903 16.79 265.973 16.975 266.073 17.115C266.173 17.245 266.313 17.335 266.493 17.385C266.673 17.435 266.913 17.465 267.213 17.475V18H262.908V17.475C263.208 17.465 263.453 17.435 263.643 17.385C263.833 17.325 263.978 17.235 264.078 17.115C264.188 16.985 264.258 16.81 264.288 16.59C264.328 16.36 264.348 16.07 264.348 15.72V13.8C264.348 13.22 264.338 12.745 264.318 12.375C264.308 11.995 264.283 11.735 264.243 11.595C264.193 11.365 264.078 11.21 263.898 11.13C263.718 11.04 263.378 10.995 262.878 10.995V10.47L265.818 9.9V15.615ZM264.093 6.855C264.093 6.595 264.183 6.375 264.363 6.195C264.543 6.015 264.763 5.925 265.023 5.925C265.283 5.925 265.503 6.015 265.683 6.195C265.863 6.375 265.953 6.595 265.953 6.855C265.953 7.115 265.863 7.335 265.683 7.515C265.503 7.695 265.283 7.785 265.023 7.785C264.763 7.785 264.543 7.695 264.363 7.515C264.183 7.335 264.093 7.115 264.093 6.855ZM271.15 15.645C271.15 16.055 271.16 16.38 271.18 16.62C271.2 16.85 271.25 17.03 271.33 17.16C271.42 17.28 271.545 17.36 271.705 17.4C271.875 17.44 272.105 17.47 272.395 17.49V18H268.465V17.49C268.745 17.47 268.965 17.44 269.125 17.4C269.295 17.36 269.425 17.28 269.515 17.16C269.605 17.04 269.66 16.87 269.68 16.65C269.71 16.43 269.725 16.13 269.725 15.75V13.755C269.725 12.565 269.695 11.84 269.635 11.58C269.605 11.45 269.565 11.345 269.515 11.265C269.475 11.175 269.41 11.11 269.32 11.07C269.23 11.02 269.115 10.99 268.975 10.98C268.835 10.96 268.655 10.95 268.435 10.95V10.47L270.835 9.9L271.015 11.385H271.075C271.455 10.915 271.9 10.55 272.41 10.29C272.92 10.03 273.475 9.9 274.075 9.9C274.535 9.9 274.955 9.975 275.335 10.125C275.715 10.275 276.005 10.48 276.205 10.74C276.375 10.97 276.495 11.27 276.565 11.64C276.635 12 276.67 12.5 276.67 13.14V15.645C276.67 16.055 276.68 16.38 276.7 16.62C276.73 16.85 276.785 17.03 276.865 17.16C276.945 17.28 277.065 17.36 277.225 17.4C277.395 17.44 277.615 17.47 277.885 17.49V18H274V17.49C274.28 17.48 274.5 17.455 274.66 17.415C274.83 17.365 274.955 17.28 275.035 17.16C275.125 17.04 275.18 16.87 275.2 16.65C275.23 16.42 275.245 16.12 275.245 15.75V13.77C275.245 13.2 275.215 12.72 275.155 12.33C275.095 11.94 274.995 11.625 274.855 11.385C274.725 11.145 274.55 10.975 274.33 10.875C274.11 10.765 273.845 10.71 273.535 10.71C273.085 10.71 272.67 10.83 272.29 11.07C271.92 11.3 271.63 11.62 271.42 12.03C271.37 12.13 271.325 12.225 271.285 12.315C271.255 12.405 271.23 12.51 271.21 12.63C271.19 12.75 271.175 12.89 271.165 13.05C271.155 13.2 271.15 13.395 271.15 13.635V15.645ZM282.762 14.775C283.182 14.775 283.507 14.585 283.737 14.205C283.977 13.825 284.097 13.29 284.097 12.6C284.097 11.92 283.977 11.395 283.737 11.025C283.507 10.645 283.177 10.455 282.747 10.455C282.317 10.455 281.972 10.645 281.712 11.025C281.462 11.405 281.337 11.925 281.337 12.585C281.337 13.245 281.467 13.775 281.727 14.175C281.987 14.575 282.332 14.775 282.762 14.775ZM281.937 16.53C282.177 16.55 282.397 16.57 282.597 16.59C282.797 16.61 282.992 16.63 283.182 16.65C283.382 16.67 283.577 16.695 283.767 16.725C283.967 16.755 284.182 16.785 284.412 16.815C285.132 16.925 285.707 17.205 286.137 17.655C286.577 18.095 286.797 18.65 286.797 19.32C286.797 20.16 286.462 20.8 285.792 21.24C285.132 21.68 284.172 21.9 282.912 21.9C282.352 21.9 281.837 21.85 281.367 21.75C280.907 21.65 280.512 21.505 280.182 21.315C279.852 21.135 279.592 20.915 279.402 20.655C279.222 20.395 279.132 20.11 279.132 19.8C279.132 19.59 279.167 19.395 279.237 19.215C279.307 19.035 279.402 18.875 279.522 18.735C279.642 18.605 279.782 18.5 279.942 18.42C280.112 18.34 280.287 18.3 280.467 18.3C280.807 18.3 281.112 18.405 281.382 18.615C281.112 18.675 280.892 18.82 280.722 19.05C280.552 19.29 280.467 19.56 280.467 19.86C280.467 20.3 280.682 20.64 281.112 20.88C281.552 21.12 282.172 21.24 282.972 21.24C284.682 21.24 285.537 20.715 285.537 19.665C285.537 19.265 285.402 18.93 285.132 18.66C284.862 18.4 284.542 18.245 284.172 18.195C283.932 18.165 283.682 18.13 283.422 18.09C283.172 18.06 282.922 18.03 282.672 18C282.432 17.97 282.207 17.945 281.997 17.925C281.787 17.905 281.617 17.885 281.487 17.865C280.927 17.805 280.502 17.655 280.212 17.415C279.922 17.175 279.777 16.845 279.777 16.425C279.777 16.075 279.922 15.765 280.212 15.495C280.502 15.225 280.867 15.055 281.307 14.985V14.925C281.087 14.835 280.882 14.71 280.692 14.55C280.502 14.38 280.337 14.19 280.197 13.98C280.067 13.77 279.962 13.545 279.882 13.305C279.802 13.055 279.762 12.8 279.762 12.54C279.762 12.16 279.832 11.81 279.972 11.49C280.122 11.17 280.327 10.895 280.587 10.665C280.857 10.425 281.172 10.24 281.532 10.11C281.892 9.97 282.287 9.9 282.717 9.9C283.157 9.9 283.572 9.97 283.962 10.11C284.352 10.24 284.687 10.435 284.967 10.695C285.307 10.415 285.607 10.215 285.867 10.095C286.127 9.965 286.372 9.9 286.602 9.9C286.962 9.9 287.247 9.985 287.457 10.155C287.677 10.315 287.787 10.535 287.787 10.815C287.787 10.985 287.727 11.12 287.607 11.22C287.497 11.32 287.357 11.37 287.187 11.37C287.047 11.37 286.932 11.345 286.842 11.295C286.752 11.245 286.667 11.195 286.587 11.145C286.517 11.085 286.442 11.03 286.362 10.98C286.282 10.93 286.182 10.905 286.062 10.905C285.822 10.905 285.577 10.99 285.327 11.16C285.567 11.53 285.687 11.995 285.687 12.555C285.687 13.405 285.422 14.075 284.892 14.565C284.362 15.045 283.567 15.325 282.507 15.405C281.897 15.455 281.472 15.52 281.232 15.6C280.992 15.68 280.872 15.825 280.872 16.035C280.872 16.195 280.962 16.315 281.142 16.395C281.322 16.465 281.587 16.51 281.937 16.53Z" fill="#6D6B67"/>
<path d="M397.341 5.81818L393.591 19.75H392.364L396.114 5.81818H397.341Z" fill="black"/>
<path d="M307.64 15.354C307.64 15.8207 307.659 16.1893 307.696 16.46C307.733 16.7307 307.803 16.9407 307.906 17.09C308.018 17.2393 308.172 17.3373 308.368 17.384C308.573 17.4307 308.839 17.4587 309.166 17.468V18H304.63V17.468C304.957 17.4587 305.218 17.4307 305.414 17.384C305.619 17.328 305.778 17.23 305.89 17.09C306.002 16.95 306.077 16.754 306.114 16.502C306.151 16.2407 306.17 15.8907 306.17 15.452V9.768C306.17 9.376 306.151 9.054 306.114 8.802C306.086 8.54067 306.021 8.33533 305.918 8.186C305.825 8.03667 305.685 7.934 305.498 7.878C305.311 7.81267 305.069 7.77067 304.77 7.752V7.22H309.026V7.752C308.727 7.76133 308.485 7.79867 308.298 7.864C308.121 7.92933 307.981 8.04133 307.878 8.2C307.785 8.34933 307.719 8.55933 307.682 8.83C307.654 9.10067 307.64 9.446 307.64 9.866V15.354ZM313.137 15.816C313.137 16.1707 313.151 16.4553 313.179 16.67C313.207 16.8847 313.263 17.0527 313.347 17.174C313.44 17.2953 313.566 17.3793 313.725 17.426C313.893 17.4727 314.112 17.5007 314.383 17.51V18H310.519V17.51C310.799 17.5007 311.023 17.4727 311.191 17.426C311.359 17.37 311.489 17.286 311.583 17.174C311.685 17.062 311.751 16.908 311.779 16.712C311.816 16.5067 311.835 16.2407 311.835 15.914V9.88C311.835 9.376 311.825 8.956 311.807 8.62C311.797 8.27467 311.779 8.04133 311.751 7.92C311.704 7.70533 311.592 7.56067 311.415 7.486C311.247 7.41133 310.939 7.374 310.491 7.374V6.898L313.137 6.38V15.816ZM318.089 15.816C318.089 16.1707 318.103 16.4553 318.131 16.67C318.159 16.8847 318.215 17.0527 318.299 17.174C318.393 17.2953 318.519 17.3793 318.677 17.426C318.845 17.4727 319.065 17.5007 319.335 17.51V18H315.471V17.51C315.751 17.5007 315.975 17.4727 316.143 17.426C316.311 17.37 316.442 17.286 316.535 17.174C316.638 17.062 316.703 16.908 316.731 16.712C316.769 16.5067 316.787 16.2407 316.787 15.914V9.88C316.787 9.376 316.778 8.956 316.759 8.62C316.75 8.27467 316.731 8.04133 316.703 7.92C316.657 7.70533 316.545 7.56067 316.367 7.486C316.199 7.41133 315.891 7.374 315.443 7.374V6.898L318.089 6.38V15.816ZM326.598 12.82C326.598 12.4373 326.589 12.1387 326.57 11.924C326.551 11.7 326.5 11.532 326.416 11.42C326.341 11.2987 326.225 11.2193 326.066 11.182C325.917 11.1353 325.707 11.098 325.436 11.07V10.58H327.97V14.878C327.97 15.41 327.975 15.844 327.984 16.18C328.003 16.516 328.026 16.768 328.054 16.936C328.073 17.0573 328.101 17.1553 328.138 17.23C328.185 17.2953 328.25 17.3513 328.334 17.398C328.418 17.4353 328.525 17.4633 328.656 17.482C328.796 17.4913 328.973 17.496 329.188 17.496V17.986L326.878 18.154L326.724 16.474H326.668C326.313 17.0527 325.903 17.4773 325.436 17.748C324.979 18.0093 324.498 18.14 323.994 18.14C323.602 18.14 323.219 18.0653 322.846 17.916C322.482 17.7667 322.207 17.566 322.02 17.314C321.861 17.1087 321.745 16.824 321.67 16.46C321.605 16.096 321.572 15.6247 321.572 15.046V12.82C321.572 12.4373 321.563 12.1387 321.544 11.924C321.525 11.7 321.474 11.532 321.39 11.42C321.315 11.2987 321.199 11.2193 321.04 11.182C320.891 11.1353 320.681 11.098 320.41 11.07V10.58H322.944V14.402C322.944 15.4193 323.061 16.1567 323.294 16.614C323.537 17.0713 323.919 17.3 324.442 17.3C325.263 17.3 325.903 16.7633 326.36 15.69C326.407 15.578 326.444 15.4753 326.472 15.382C326.5 15.2887 326.523 15.186 326.542 15.074C326.561 14.962 326.575 14.836 326.584 14.696C326.593 14.556 326.598 14.388 326.598 14.192V12.82ZM331.099 18H330.791V15.592H331.141C331.505 16.908 332.168 17.566 333.129 17.566C333.502 17.566 333.796 17.4773 334.011 17.3C334.235 17.1133 334.347 16.8333 334.347 16.46C334.347 16.32 334.324 16.2033 334.277 16.11C334.24 16.0073 334.16 15.9047 334.039 15.802C333.927 15.69 333.764 15.564 333.549 15.424C333.344 15.284 333.068 15.1067 332.723 14.892C332.406 14.696 332.13 14.514 331.897 14.346C331.664 14.178 331.468 14.01 331.309 13.842C331.15 13.6647 331.029 13.478 330.945 13.282C330.87 13.086 330.833 12.8573 330.833 12.596C330.833 12.2787 330.884 11.9893 330.987 11.728C331.099 11.4573 331.248 11.2287 331.435 11.042C331.622 10.8553 331.841 10.7107 332.093 10.608C332.345 10.496 332.62 10.44 332.919 10.44C333.171 10.44 333.432 10.482 333.703 10.566C333.974 10.6407 334.212 10.7433 334.417 10.874L334.697 10.58H334.963V12.596H334.599C334.394 12.0267 334.17 11.6207 333.927 11.378C333.684 11.1353 333.386 11.014 333.031 11.014C332.714 11.014 332.457 11.098 332.261 11.266C332.074 11.434 331.981 11.6673 331.981 11.966C331.981 12.1247 332.004 12.2647 332.051 12.386C332.107 12.498 332.191 12.61 332.303 12.722C332.415 12.834 332.555 12.9507 332.723 13.072C332.9 13.184 333.11 13.3147 333.353 13.464C333.754 13.716 334.095 13.94 334.375 14.136C334.664 14.332 334.898 14.528 335.075 14.724C335.252 14.9107 335.383 15.1067 335.467 15.312C335.551 15.5173 335.593 15.7507 335.593 16.012C335.593 16.6747 335.378 17.1973 334.949 17.58C334.52 17.9533 333.955 18.14 333.255 18.14C332.527 18.14 331.902 17.93 331.379 17.51L331.099 18ZM337.212 11.462V10.944C337.707 10.6547 338.094 10.3653 338.374 10.076C338.654 9.78667 338.869 9.44133 339.018 9.04H339.424V10.804H341.3V11.462H339.424V15.718C339.424 16.0447 339.438 16.32 339.466 16.544C339.504 16.768 339.56 16.95 339.634 17.09C339.709 17.2207 339.807 17.314 339.928 17.37C340.05 17.426 340.204 17.454 340.39 17.454C340.624 17.454 340.82 17.4073 340.978 17.314C341.146 17.2113 341.31 17.0433 341.468 16.81L341.818 17.076C341.688 17.4213 341.459 17.6873 341.132 17.874C340.815 18.0513 340.418 18.14 339.942 18.14C339.326 18.14 338.855 17.9953 338.528 17.706C338.211 17.4073 338.052 16.9827 338.052 16.432V11.462H337.212ZM345.451 15.774C345.451 16.1567 345.461 16.46 345.479 16.684C345.498 16.908 345.545 17.0807 345.619 17.202C345.703 17.314 345.82 17.3887 345.969 17.426C346.119 17.4633 346.329 17.4913 346.599 17.51V18H342.875V17.51C343.146 17.5007 343.361 17.4773 343.519 17.44C343.678 17.3933 343.799 17.314 343.883 17.202C343.967 17.09 344.019 16.9313 344.037 16.726C344.065 16.5113 344.079 16.2267 344.079 15.872V14.234C344.079 13.5993 344.07 13.1047 344.051 12.75C344.042 12.3953 343.995 12.134 343.911 11.966C343.837 11.798 343.715 11.7 343.547 11.672C343.379 11.6347 343.146 11.616 342.847 11.616V11.126L345.297 10.594L345.493 12.33H345.549C345.671 12.05 345.82 11.7933 345.997 11.56C346.184 11.3267 346.385 11.1307 346.599 10.972C346.814 10.804 347.038 10.6733 347.271 10.58C347.505 10.4867 347.743 10.44 347.985 10.44C348.284 10.44 348.517 10.5147 348.685 10.664C348.863 10.804 348.951 10.9953 348.951 11.238C348.951 11.462 348.881 11.6393 348.741 11.77C348.601 11.8913 348.401 11.952 348.139 11.952C347.99 11.952 347.864 11.9333 347.761 11.896C347.659 11.8587 347.565 11.8213 347.481 11.784C347.407 11.7373 347.332 11.6953 347.257 11.658C347.192 11.6207 347.117 11.602 347.033 11.602C346.781 11.602 346.529 11.7653 346.277 12.092C346.025 12.4093 345.829 12.8153 345.689 13.31C345.615 13.5807 345.554 13.8887 345.507 14.234C345.47 14.57 345.451 14.9247 345.451 15.298V15.774ZM354.301 13.856C353.769 14.0613 353.317 14.262 352.943 14.458C352.579 14.654 352.285 14.85 352.061 15.046C351.837 15.242 351.674 15.438 351.571 15.634C351.478 15.83 351.431 16.0307 351.431 16.236C351.431 16.544 351.534 16.796 351.739 16.992C351.945 17.188 352.215 17.286 352.551 17.286C352.794 17.286 353.018 17.2253 353.223 17.104C353.438 16.9827 353.625 16.8193 353.783 16.614C353.942 16.3993 354.068 16.152 354.161 15.872C354.255 15.5827 354.301 15.2793 354.301 14.962V13.856ZM354.301 13.254V12.68C354.301 11.5413 353.816 10.972 352.845 10.972C352.687 10.972 352.551 10.986 352.439 11.014C352.327 11.042 352.234 11.0887 352.159 11.154C352.085 11.2193 352.015 11.3127 351.949 11.434C351.893 11.5553 351.837 11.7047 351.781 11.882C351.679 12.1527 351.576 12.3347 351.473 12.428C351.38 12.512 351.24 12.554 351.053 12.554C350.587 12.554 350.353 12.3207 350.353 11.854C350.353 11.406 350.591 11.0607 351.067 10.818C351.543 10.566 352.22 10.44 353.097 10.44C354.031 10.44 354.693 10.608 355.085 10.944C355.477 11.2707 355.673 11.8307 355.673 12.624V15.76C355.673 16.824 355.883 17.356 356.303 17.356C356.434 17.356 356.56 17.342 356.681 17.314C356.803 17.2767 356.905 17.188 356.989 17.048L357.185 17.384C357.073 17.5987 356.868 17.7807 356.569 17.93C356.271 18.07 355.958 18.14 355.631 18.14C355.221 18.14 354.913 18.0093 354.707 17.748C354.511 17.4867 354.413 17.118 354.413 16.642H354.343C354.101 17.0993 353.765 17.4633 353.335 17.734C352.906 17.9953 352.43 18.126 351.907 18.126C351.319 18.126 350.857 17.9767 350.521 17.678C350.185 17.3793 350.017 16.978 350.017 16.474C350.017 16.25 350.055 16.0353 350.129 15.83C350.213 15.6247 350.344 15.4287 350.521 15.242C350.699 15.0553 350.932 14.8733 351.221 14.696C351.511 14.5093 351.865 14.3227 352.285 14.136L354.301 13.254ZM358.127 11.462V10.944C358.622 10.6547 359.009 10.3653 359.289 10.076C359.569 9.78667 359.784 9.44133 359.933 9.04H360.339V10.804H362.215V11.462H360.339V15.718C360.339 16.0447 360.353 16.32 360.381 16.544C360.419 16.768 360.475 16.95 360.549 17.09C360.624 17.2207 360.722 17.314 360.843 17.37C360.965 17.426 361.119 17.454 361.305 17.454C361.539 17.454 361.735 17.4073 361.893 17.314C362.061 17.2113 362.225 17.0433 362.383 16.81L362.733 17.076C362.603 17.4213 362.374 17.6873 362.047 17.874C361.73 18.0513 361.333 18.14 360.857 18.14C360.241 18.14 359.77 17.9953 359.443 17.706C359.126 17.4073 358.967 16.9827 358.967 16.432V11.462H358.127ZM366.45 15.774C366.45 16.138 366.464 16.432 366.492 16.656C366.53 16.8707 366.595 17.0433 366.688 17.174C366.782 17.2953 366.912 17.3793 367.08 17.426C367.248 17.4727 367.472 17.5007 367.752 17.51V18H363.734V17.51C364.014 17.5007 364.243 17.4727 364.42 17.426C364.598 17.37 364.733 17.286 364.826 17.174C364.929 17.0527 364.994 16.8893 365.022 16.684C365.06 16.4693 365.078 16.1987 365.078 15.872V14.08C365.078 13.5387 365.069 13.0953 365.05 12.75C365.041 12.3953 365.018 12.1527 364.98 12.022C364.934 11.8073 364.826 11.6627 364.658 11.588C364.49 11.504 364.173 11.462 363.706 11.462V10.972L366.45 10.44V15.774ZM364.84 7.598C364.84 7.35533 364.924 7.15 365.092 6.982C365.26 6.814 365.466 6.73 365.708 6.73C365.951 6.73 366.156 6.814 366.324 6.982C366.492 7.15 366.576 7.35533 366.576 7.598C366.576 7.84067 366.492 8.046 366.324 8.214C366.156 8.382 365.951 8.466 365.708 8.466C365.466 8.466 365.26 8.382 365.092 8.214C364.924 8.046 364.84 7.84067 364.84 7.598ZM372.98 10.44C373.512 10.44 374.016 10.538 374.492 10.734C374.968 10.9207 375.383 11.182 375.738 11.518C376.102 11.854 376.386 12.2553 376.592 12.722C376.806 13.1793 376.914 13.6833 376.914 14.234C376.914 14.8033 376.806 15.326 376.592 15.802C376.386 16.278 376.102 16.6887 375.738 17.034C375.383 17.3793 374.968 17.65 374.492 17.846C374.016 18.042 373.512 18.14 372.98 18.14C372.457 18.14 371.958 18.0467 371.482 17.86C371.015 17.664 370.604 17.3933 370.25 17.048C369.895 16.7027 369.615 16.292 369.41 15.816C369.204 15.3307 369.102 14.8033 369.102 14.234C369.102 13.6833 369.204 13.1747 369.41 12.708C369.615 12.2413 369.895 11.84 370.25 11.504C370.604 11.168 371.015 10.9067 371.482 10.72C371.958 10.5333 372.457 10.44 372.98 10.44ZM372.98 11.112C372.634 11.112 372.317 11.1867 372.028 11.336C371.748 11.4853 371.505 11.7 371.3 11.98C371.104 12.2507 370.95 12.582 370.838 12.974C370.735 13.3567 370.684 13.7813 370.684 14.248C370.684 14.7333 370.735 15.172 370.838 15.564C370.95 15.956 371.104 16.292 371.3 16.572C371.505 16.8427 371.748 17.0527 372.028 17.202C372.308 17.3513 372.625 17.426 372.98 17.426C373.334 17.426 373.656 17.3513 373.946 17.202C374.235 17.0527 374.482 16.838 374.688 16.558C374.893 16.278 375.052 15.942 375.164 15.55C375.276 15.158 375.332 14.724 375.332 14.248C375.332 13.7813 375.276 13.3567 375.164 12.974C375.052 12.5913 374.893 12.2647 374.688 11.994C374.482 11.714 374.235 11.4993 373.946 11.35C373.656 11.1913 373.334 11.112 372.98 11.112ZM381.014 15.802C381.014 16.1847 381.023 16.488 381.042 16.712C381.061 16.9267 381.107 17.0947 381.182 17.216C381.266 17.328 381.383 17.4027 381.532 17.44C381.691 17.4773 381.905 17.5053 382.176 17.524V18H378.508V17.524C378.769 17.5053 378.975 17.4773 379.124 17.44C379.283 17.4027 379.404 17.328 379.488 17.216C379.572 17.104 379.623 16.9453 379.642 16.74C379.67 16.5347 379.684 16.2547 379.684 15.9V14.038C379.684 12.9273 379.656 12.2507 379.6 12.008C379.572 11.8867 379.535 11.7887 379.488 11.714C379.451 11.63 379.39 11.5693 379.306 11.532C379.222 11.4853 379.115 11.4573 378.984 11.448C378.853 11.4293 378.685 11.42 378.48 11.42V10.972L380.72 10.44L380.888 11.826H380.944C381.299 11.3873 381.714 11.0467 382.19 10.804C382.666 10.5613 383.184 10.44 383.744 10.44C384.173 10.44 384.565 10.51 384.92 10.65C385.275 10.79 385.545 10.9813 385.732 11.224C385.891 11.4387 386.003 11.7187 386.068 12.064C386.133 12.4 386.166 12.8667 386.166 13.464V15.802C386.166 16.1847 386.175 16.488 386.194 16.712C386.222 16.9267 386.273 17.0947 386.348 17.216C386.423 17.328 386.535 17.4027 386.684 17.44C386.843 17.4773 387.048 17.5053 387.3 17.524V18H383.674V17.524C383.935 17.5147 384.141 17.4913 384.29 17.454C384.449 17.4073 384.565 17.328 384.64 17.216C384.724 17.104 384.775 16.9453 384.794 16.74C384.822 16.5253 384.836 16.2453 384.836 15.9V14.052C384.836 13.52 384.808 13.072 384.752 12.708C384.696 12.344 384.603 12.05 384.472 11.826C384.351 11.602 384.187 11.4433 383.982 11.35C383.777 11.2473 383.529 11.196 383.24 11.196C382.82 11.196 382.433 11.308 382.078 11.532C381.733 11.7467 381.462 12.0453 381.266 12.428C381.219 12.5213 381.177 12.61 381.14 12.694C381.112 12.778 381.089 12.876 381.07 12.988C381.051 13.1 381.037 13.2307 381.028 13.38C381.019 13.52 381.014 13.702 381.014 13.926V15.802Z" fill="#6D6B67"/>
</svg>
