<svg width="459" height="25" viewBox="0 0 459 25" fill="none" xmlns="http://www.w3.org/2000/svg">
<path d="M9.87 9.345C9.87 9.875 9.785 10.35 9.615 10.77C9.445 11.19 9.175 11.545 8.805 11.835C8.445 12.125 7.97 12.35 7.38 12.51C6.8 12.67 6.09 12.75 5.25 12.75H3.9V15.645C3.9 16.015 3.92 16.32 3.96 16.56C4.01 16.79 4.105 16.97 4.245 17.1C4.395 17.23 4.605 17.32 4.875 17.37C5.155 17.41 5.52 17.43 5.97 17.43V18H0.675V17.43C1.025 17.42 1.305 17.39 1.515 17.34C1.735 17.29 1.905 17.205 2.025 17.085C2.145 16.965 2.225 16.795 2.265 16.575C2.305 16.355 2.325 16.07 2.325 15.72V8.73C2.325 8.38 2.305 8.1 2.265 7.89C2.235 7.67 2.165 7.5 2.055 7.38C1.955 7.25 1.805 7.165 1.605 7.125C1.405 7.075 1.145 7.04 0.825 7.02V6.45H5.535C6.915 6.45 7.98 6.705 8.73 7.215C9.49 7.725 9.87 8.435 9.87 9.345ZM3.9 12H4.965C5.965 12 6.705 11.81 7.185 11.43C7.675 11.04 7.92 10.405 7.92 9.525C7.92 8.675 7.725 8.07 7.335 7.71C6.955 7.34 6.355 7.155 5.535 7.155H4.155C3.985 7.155 3.9 7.24 3.9 7.41V12ZM15.7571 13.56C15.1871 13.78 14.7021 13.995 14.3021 14.205C13.9121 14.415 13.5971 14.625 13.3571 14.835C13.1171 15.045 12.9421 15.255 12.8321 15.465C12.7321 15.675 12.6821 15.89 12.6821 16.11C12.6821 16.44 12.7921 16.71 13.0121 16.92C13.2321 17.13 13.5221 17.235 13.8821 17.235C14.1421 17.235 14.3821 17.17 14.6021 17.04C14.8321 16.91 15.0321 16.735 15.2021 16.515C15.3721 16.285 15.5071 16.02 15.6071 15.72C15.7071 15.41 15.7571 15.085 15.7571 14.745V13.56ZM15.7571 12.915V12.3C15.7571 11.08 15.2371 10.47 14.1971 10.47C14.0271 10.47 13.8821 10.485 13.7621 10.515C13.6421 10.545 13.5421 10.595 13.4621 10.665C13.3821 10.735 13.3071 10.835 13.2371 10.965C13.1771 11.095 13.1171 11.255 13.0571 11.445C12.9471 11.735 12.8371 11.93 12.7271 12.03C12.6271 12.12 12.4771 12.165 12.2771 12.165C11.7771 12.165 11.5271 11.915 11.5271 11.415C11.5271 10.935 11.7821 10.565 12.2921 10.305C12.8021 10.035 13.5271 9.9 14.4671 9.9C15.4671 9.9 16.1771 10.08 16.5971 10.44C17.0171 10.79 17.2271 11.39 17.2271 12.24V15.6C17.2271 16.74 17.4521 17.31 17.9021 17.31C18.0421 17.31 18.1771 17.295 18.3071 17.265C18.4371 17.225 18.5471 17.13 18.6371 16.98L18.8471 17.34C18.7271 17.57 18.5071 17.765 18.1871 17.925C17.8671 18.075 17.5321 18.15 17.1821 18.15C16.7421 18.15 16.4121 18.01 16.1921 17.73C15.9821 17.45 15.8771 17.055 15.8771 16.545H15.8021C15.5421 17.035 15.1821 17.425 14.7221 17.715C14.2621 17.995 13.7521 18.135 13.1921 18.135C12.5621 18.135 12.0671 17.975 11.7071 17.655C11.3471 17.335 11.1671 16.905 11.1671 16.365C11.1671 16.125 11.2071 15.895 11.2871 15.675C11.3771 15.455 11.5171 15.245 11.7071 15.045C11.8971 14.845 12.1471 14.65 12.4571 14.46C12.7671 14.26 13.1471 14.06 13.5971 13.86L15.7571 12.915ZM26.8177 16.755C26.4577 17.195 25.9927 17.54 25.4227 17.79C24.8527 18.03 24.2377 18.15 23.5777 18.15C23.0477 18.15 22.5577 18.055 22.1077 17.865C21.6677 17.665 21.2877 17.39 20.9677 17.04C20.6477 16.68 20.3977 16.25 20.2177 15.75C20.0477 15.25 19.9627 14.695 19.9627 14.085C19.9627 13.445 20.0627 12.87 20.2627 12.36C20.4627 11.84 20.7427 11.4 21.1027 11.04C21.4727 10.67 21.9127 10.39 22.4227 10.2C22.9427 10 23.5127 9.9 24.1327 9.9C24.5227 9.9 24.8777 9.935 25.1977 10.005C25.5177 10.065 25.7927 10.155 26.0227 10.275C26.2627 10.385 26.4477 10.525 26.5777 10.695C26.7077 10.855 26.7727 11.03 26.7727 11.22C26.7727 11.42 26.7077 11.575 26.5777 11.685C26.4477 11.795 26.2677 11.85 26.0377 11.85C25.8577 11.85 25.7077 11.815 25.5877 11.745C25.4677 11.665 25.3127 11.495 25.1227 11.235C24.9227 11.005 24.7277 10.845 24.5377 10.755C24.3577 10.655 24.1227 10.605 23.8327 10.605C23.1227 10.605 22.5827 10.88 22.2127 11.43C21.8527 11.98 21.6727 12.79 21.6727 13.86C21.6727 15.01 21.8727 15.885 22.2727 16.485C22.6827 17.075 23.2777 17.37 24.0577 17.37C24.4777 17.37 24.8727 17.29 25.2427 17.13C25.6127 16.96 25.9877 16.69 26.3677 16.32L26.8177 16.755ZM32.8897 17.475C33.2197 17.475 33.4447 17.46 33.5647 17.43C33.6947 17.4 33.7597 17.36 33.7597 17.31C33.7497 17.23 33.6697 17.085 33.5197 16.875C33.3697 16.665 33.1747 16.415 32.9347 16.125L31.3447 14.205L30.7897 14.73V15.615C30.7897 16.005 30.8047 16.32 30.8347 16.56C30.8747 16.79 30.9397 16.975 31.0297 17.115C31.1297 17.245 31.2697 17.335 31.4497 17.385C31.6397 17.435 31.8847 17.465 32.1847 17.475V18H27.9247V17.475C28.2247 17.465 28.4647 17.435 28.6447 17.385C28.8347 17.335 28.9797 17.245 29.0797 17.115C29.1897 16.985 29.2647 16.81 29.3047 16.59C29.3447 16.37 29.3647 16.08 29.3647 15.72V9.435C29.3647 8.675 29.3547 8.1 29.3347 7.71C29.3247 7.32 29.2747 7.055 29.1847 6.915C29.0947 6.775 28.9447 6.695 28.7347 6.675C28.5247 6.645 28.2447 6.63 27.8947 6.63V6.12L30.7897 5.55V13.785L32.1847 12.42C32.6347 11.97 32.9697 11.64 33.1897 11.43C33.4097 11.21 33.5197 11.045 33.5197 10.935C33.5197 10.825 33.4147 10.74 33.2047 10.68C32.9947 10.61 32.6947 10.575 32.3047 10.575V10.05H36.2047V10.575C36.0147 10.575 35.8497 10.585 35.7097 10.605C35.5697 10.625 35.4347 10.665 35.3047 10.725C35.1847 10.785 35.0547 10.87 34.9147 10.98C34.7747 11.08 34.6147 11.21 34.4347 11.37L32.2747 13.29L35.2447 16.65C35.3847 16.82 35.5097 16.96 35.6197 17.07C35.7397 17.17 35.8547 17.25 35.9647 17.31C36.0847 17.37 36.2097 17.415 36.3397 17.445C36.4797 17.465 36.6447 17.475 36.8347 17.475V18H32.8897V17.475ZM42.5479 13.56C41.9779 13.78 41.4929 13.995 41.0929 14.205C40.7029 14.415 40.3879 14.625 40.1479 14.835C39.9079 15.045 39.7329 15.255 39.6229 15.465C39.5229 15.675 39.4729 15.89 39.4729 16.11C39.4729 16.44 39.5829 16.71 39.8029 16.92C40.0229 17.13 40.3129 17.235 40.6729 17.235C40.9329 17.235 41.1729 17.17 41.3929 17.04C41.6229 16.91 41.8229 16.735 41.9929 16.515C42.1629 16.285 42.2979 16.02 42.3979 15.72C42.4979 15.41 42.5479 15.085 42.5479 14.745V13.56ZM42.5479 12.915V12.3C42.5479 11.08 42.0279 10.47 40.9879 10.47C40.8179 10.47 40.6729 10.485 40.5529 10.515C40.4329 10.545 40.3329 10.595 40.2529 10.665C40.1729 10.735 40.0979 10.835 40.0279 10.965C39.9679 11.095 39.9079 11.255 39.8479 11.445C39.7379 11.735 39.6279 11.93 39.5179 12.03C39.4179 12.12 39.2679 12.165 39.0679 12.165C38.5679 12.165 38.3179 11.915 38.3179 11.415C38.3179 10.935 38.5729 10.565 39.0829 10.305C39.5929 10.035 40.3179 9.9 41.2579 9.9C42.2579 9.9 42.9679 10.08 43.3879 10.44C43.8079 10.79 44.0179 11.39 44.0179 12.24V15.6C44.0179 16.74 44.2429 17.31 44.6929 17.31C44.8329 17.31 44.9679 17.295 45.0979 17.265C45.2279 17.225 45.3379 17.13 45.4279 16.98L45.6379 17.34C45.5179 17.57 45.2979 17.765 44.9779 17.925C44.6579 18.075 44.3229 18.15 43.9729 18.15C43.5329 18.15 43.2029 18.01 42.9829 17.73C42.7729 17.45 42.6679 17.055 42.6679 16.545H42.5929C42.3329 17.035 41.9729 17.425 41.5129 17.715C41.0529 17.995 40.5429 18.135 39.9829 18.135C39.3529 18.135 38.8579 17.975 38.4979 17.655C38.1379 17.335 37.9579 16.905 37.9579 16.365C37.9579 16.125 37.9979 15.895 38.0779 15.675C38.1679 15.455 38.3079 15.245 38.4979 15.045C38.6879 14.845 38.9379 14.65 39.2479 14.46C39.5579 14.26 39.9379 14.06 40.3879 13.86L42.5479 12.915ZM50.1286 14.775C50.5486 14.775 50.8736 14.585 51.1036 14.205C51.3436 13.825 51.4636 13.29 51.4636 12.6C51.4636 11.92 51.3436 11.395 51.1036 11.025C50.8736 10.645 50.5436 10.455 50.1136 10.455C49.6836 10.455 49.3386 10.645 49.0786 11.025C48.8286 11.405 48.7036 11.925 48.7036 12.585C48.7036 13.245 48.8336 13.775 49.0936 14.175C49.3536 14.575 49.6986 14.775 50.1286 14.775ZM49.3036 16.53C49.5436 16.55 49.7636 16.57 49.9636 16.59C50.1636 16.61 50.3586 16.63 50.5486 16.65C50.7486 16.67 50.9436 16.695 51.1336 16.725C51.3336 16.755 51.5486 16.785 51.7786 16.815C52.4986 16.925 53.0736 17.205 53.5036 17.655C53.9436 18.095 54.1636 18.65 54.1636 19.32C54.1636 20.16 53.8286 20.8 53.1586 21.24C52.4986 21.68 51.5386 21.9 50.2786 21.9C49.7186 21.9 49.2036 21.85 48.7336 21.75C48.2736 21.65 47.8786 21.505 47.5486 21.315C47.2186 21.135 46.9586 20.915 46.7686 20.655C46.5886 20.395 46.4986 20.11 46.4986 19.8C46.4986 19.59 46.5336 19.395 46.6036 19.215C46.6736 19.035 46.7686 18.875 46.8886 18.735C47.0086 18.605 47.1486 18.5 47.3086 18.42C47.4786 18.34 47.6536 18.3 47.8336 18.3C48.1736 18.3 48.4786 18.405 48.7486 18.615C48.4786 18.675 48.2586 18.82 48.0886 19.05C47.9186 19.29 47.8336 19.56 47.8336 19.86C47.8336 20.3 48.0486 20.64 48.4786 20.88C48.9186 21.12 49.5386 21.24 50.3386 21.24C52.0486 21.24 52.9036 20.715 52.9036 19.665C52.9036 19.265 52.7686 18.93 52.4986 18.66C52.2286 18.4 51.9086 18.245 51.5386 18.195C51.2986 18.165 51.0486 18.13 50.7886 18.09C50.5386 18.06 50.2886 18.03 50.0386 18C49.7986 17.97 49.5736 17.945 49.3636 17.925C49.1536 17.905 48.9836 17.885 48.8536 17.865C48.2936 17.805 47.8686 17.655 47.5786 17.415C47.2886 17.175 47.1436 16.845 47.1436 16.425C47.1436 16.075 47.2886 15.765 47.5786 15.495C47.8686 15.225 48.2336 15.055 48.6736 14.985V14.925C48.4536 14.835 48.2486 14.71 48.0586 14.55C47.8686 14.38 47.7036 14.19 47.5636 13.98C47.4336 13.77 47.3286 13.545 47.2486 13.305C47.1686 13.055 47.1286 12.8 47.1286 12.54C47.1286 12.16 47.1986 11.81 47.3386 11.49C47.4886 11.17 47.6936 10.895 47.9536 10.665C48.2236 10.425 48.5386 10.24 48.8986 10.11C49.2586 9.97 49.6536 9.9 50.0836 9.9C50.5236 9.9 50.9386 9.97 51.3286 10.11C51.7186 10.24 52.0536 10.435 52.3336 10.695C52.6736 10.415 52.9736 10.215 53.2336 10.095C53.4936 9.965 53.7386 9.9 53.9686 9.9C54.3286 9.9 54.6136 9.985 54.8236 10.155C55.0436 10.315 55.1536 10.535 55.1536 10.815C55.1536 10.985 55.0936 11.12 54.9736 11.22C54.8636 11.32 54.7236 11.37 54.5536 11.37C54.4136 11.37 54.2986 11.345 54.2086 11.295C54.1186 11.245 54.0336 11.195 53.9536 11.145C53.8836 11.085 53.8086 11.03 53.7286 10.98C53.6486 10.93 53.5486 10.905 53.4286 10.905C53.1886 10.905 52.9436 10.99 52.6936 11.16C52.9336 11.53 53.0536 11.995 53.0536 12.555C53.0536 13.405 52.7886 14.075 52.2586 14.565C51.7286 15.045 50.9336 15.325 49.8736 15.405C49.2636 15.455 48.8386 15.52 48.5986 15.6C48.3586 15.68 48.2386 15.825 48.2386 16.035C48.2386 16.195 48.3286 16.315 48.5086 16.395C48.6886 16.465 48.9536 16.51 49.3036 16.53ZM58.818 15.615C58.818 16.005 58.833 16.32 58.863 16.56C58.903 16.79 58.973 16.975 59.073 17.115C59.173 17.245 59.313 17.335 59.493 17.385C59.673 17.435 59.913 17.465 60.213 17.475V18H55.908V17.475C56.208 17.465 56.453 17.435 56.643 17.385C56.833 17.325 56.978 17.235 57.078 17.115C57.188 16.985 57.258 16.81 57.288 16.59C57.328 16.36 57.348 16.07 57.348 15.72V13.8C57.348 13.22 57.338 12.745 57.318 12.375C57.308 11.995 57.283 11.735 57.243 11.595C57.193 11.365 57.078 11.21 56.898 11.13C56.718 11.04 56.378 10.995 55.878 10.995V10.47L58.818 9.9V15.615ZM57.093 6.855C57.093 6.595 57.183 6.375 57.363 6.195C57.543 6.015 57.763 5.925 58.023 5.925C58.283 5.925 58.503 6.015 58.683 6.195C58.863 6.375 58.953 6.595 58.953 6.855C58.953 7.115 58.863 7.335 58.683 7.515C58.503 7.695 58.283 7.785 58.023 7.785C57.763 7.785 57.543 7.695 57.363 7.515C57.183 7.335 57.093 7.115 57.093 6.855ZM64.1504 15.645C64.1504 16.055 64.1604 16.38 64.1804 16.62C64.2004 16.85 64.2504 17.03 64.3304 17.16C64.4204 17.28 64.5454 17.36 64.7054 17.4C64.8754 17.44 65.1054 17.47 65.3954 17.49V18H61.4654V17.49C61.7454 17.47 61.9654 17.44 62.1254 17.4C62.2954 17.36 62.4254 17.28 62.5154 17.16C62.6054 17.04 62.6604 16.87 62.6804 16.65C62.7104 16.43 62.7254 16.13 62.7254 15.75V13.755C62.7254 12.565 62.6954 11.84 62.6354 11.58C62.6054 11.45 62.5654 11.345 62.5154 11.265C62.4754 11.175 62.4104 11.11 62.3204 11.07C62.2304 11.02 62.1154 10.99 61.9754 10.98C61.8354 10.96 61.6554 10.95 61.4354 10.95V10.47L63.8354 9.9L64.0154 11.385H64.0754C64.4554 10.915 64.9004 10.55 65.4104 10.29C65.9204 10.03 66.4754 9.9 67.0754 9.9C67.5354 9.9 67.9554 9.975 68.3354 10.125C68.7154 10.275 69.0054 10.48 69.2054 10.74C69.3754 10.97 69.4954 11.27 69.5654 11.64C69.6354 12 69.6704 12.5 69.6704 13.14V15.645C69.6704 16.055 69.6804 16.38 69.7004 16.62C69.7304 16.85 69.7854 17.03 69.8654 17.16C69.9454 17.28 70.0654 17.36 70.2254 17.4C70.3954 17.44 70.6154 17.47 70.8854 17.49V18H67.0004V17.49C67.2804 17.48 67.5004 17.455 67.6604 17.415C67.8304 17.365 67.9554 17.28 68.0354 17.16C68.1254 17.04 68.1804 16.87 68.2004 16.65C68.2304 16.42 68.2454 16.12 68.2454 15.75V13.77C68.2454 13.2 68.2154 12.72 68.1554 12.33C68.0954 11.94 67.9954 11.625 67.8554 11.385C67.7254 11.145 67.5504 10.975 67.3304 10.875C67.1104 10.765 66.8454 10.71 66.5354 10.71C66.0854 10.71 65.6704 10.83 65.2904 11.07C64.9204 11.3 64.6304 11.62 64.4204 12.03C64.3704 12.13 64.3254 12.225 64.2854 12.315C64.2554 12.405 64.2304 12.51 64.2104 12.63C64.1904 12.75 64.1754 12.89 64.1654 13.05C64.1554 13.2 64.1504 13.395 64.1504 13.635V15.645ZM75.7621 14.775C76.1821 14.775 76.5071 14.585 76.7371 14.205C76.9771 13.825 77.0971 13.29 77.0971 12.6C77.0971 11.92 76.9771 11.395 76.7371 11.025C76.5071 10.645 76.1771 10.455 75.7471 10.455C75.3171 10.455 74.9721 10.645 74.7121 11.025C74.4621 11.405 74.3371 11.925 74.3371 12.585C74.3371 13.245 74.4671 13.775 74.7271 14.175C74.9871 14.575 75.3321 14.775 75.7621 14.775ZM74.9371 16.53C75.1771 16.55 75.3971 16.57 75.5971 16.59C75.7971 16.61 75.9921 16.63 76.1821 16.65C76.3821 16.67 76.5771 16.695 76.7671 16.725C76.9671 16.755 77.1821 16.785 77.4121 16.815C78.1321 16.925 78.7071 17.205 79.1371 17.655C79.5771 18.095 79.7971 18.65 79.7971 19.32C79.7971 20.16 79.4621 20.8 78.7921 21.24C78.1321 21.68 77.1721 21.9 75.9121 21.9C75.3521 21.9 74.8371 21.85 74.3671 21.75C73.9071 21.65 73.5121 21.505 73.1821 21.315C72.8521 21.135 72.5921 20.915 72.4021 20.655C72.2221 20.395 72.1321 20.11 72.1321 19.8C72.1321 19.59 72.1671 19.395 72.2371 19.215C72.3071 19.035 72.4021 18.875 72.5221 18.735C72.6421 18.605 72.7821 18.5 72.9421 18.42C73.1121 18.34 73.2871 18.3 73.4671 18.3C73.8071 18.3 74.1121 18.405 74.3821 18.615C74.1121 18.675 73.8921 18.82 73.7221 19.05C73.5521 19.29 73.4671 19.56 73.4671 19.86C73.4671 20.3 73.6821 20.64 74.1121 20.88C74.5521 21.12 75.1721 21.24 75.9721 21.24C77.6821 21.24 78.5371 20.715 78.5371 19.665C78.5371 19.265 78.4021 18.93 78.1321 18.66C77.8621 18.4 77.5421 18.245 77.1721 18.195C76.9321 18.165 76.6821 18.13 76.4221 18.09C76.1721 18.06 75.9221 18.03 75.6721 18C75.4321 17.97 75.2071 17.945 74.9971 17.925C74.7871 17.905 74.6171 17.885 74.4871 17.865C73.9271 17.805 73.5021 17.655 73.2121 17.415C72.9221 17.175 72.7771 16.845 72.7771 16.425C72.7771 16.075 72.9221 15.765 73.2121 15.495C73.5021 15.225 73.8671 15.055 74.3071 14.985V14.925C74.0871 14.835 73.8821 14.71 73.6921 14.55C73.5021 14.38 73.3371 14.19 73.1971 13.98C73.0671 13.77 72.9621 13.545 72.8821 13.305C72.8021 13.055 72.7621 12.8 72.7621 12.54C72.7621 12.16 72.8321 11.81 72.9721 11.49C73.1221 11.17 73.3271 10.895 73.5871 10.665C73.8571 10.425 74.1721 10.24 74.5321 10.11C74.8921 9.97 75.2871 9.9 75.7171 9.9C76.1571 9.9 76.5721 9.97 76.9621 10.11C77.3521 10.24 77.6871 10.435 77.9671 10.695C78.3071 10.415 78.6071 10.215 78.8671 10.095C79.1271 9.965 79.3721 9.9 79.6021 9.9C79.9621 9.9 80.2471 9.985 80.4571 10.155C80.6771 10.315 80.7871 10.535 80.7871 10.815C80.7871 10.985 80.7271 11.12 80.6071 11.22C80.4971 11.32 80.3571 11.37 80.1871 11.37C80.0471 11.37 79.9321 11.345 79.8421 11.295C79.7521 11.245 79.6671 11.195 79.5871 11.145C79.5171 11.085 79.4421 11.03 79.3621 10.98C79.2821 10.93 79.1821 10.905 79.0621 10.905C78.8221 10.905 78.5771 10.99 78.3271 11.16C78.5671 11.53 78.6871 11.995 78.6871 12.555C78.6871 13.405 78.4221 14.075 77.8921 14.565C77.3621 15.045 76.5671 15.325 75.5071 15.405C74.8971 15.455 74.4721 15.52 74.2321 15.6C73.9921 15.68 73.8721 15.825 73.8721 16.035C73.8721 16.195 73.9621 16.315 74.1421 16.395C74.3221 16.465 74.5871 16.51 74.9371 16.53Z" fill="#6D6B67"/>
<path d="M87.3409 5.81818L83.5909 19.75H82.3636L86.1136 5.81818H87.3409Z" fill="#E0DFDC"/>
<path d="M103.832 14.094H100.094C99.9353 14.4767 99.8 14.8173 99.688 15.116C99.576 15.4053 99.4827 15.6573 99.408 15.872C99.3427 16.0867 99.296 16.2687 99.268 16.418C99.24 16.5673 99.226 16.6887 99.226 16.782C99.226 17.0433 99.31 17.2253 99.478 17.328C99.646 17.4213 99.926 17.468 100.318 17.468V18H96.916V17.468C97.1307 17.44 97.3127 17.4027 97.462 17.356C97.6207 17.3093 97.756 17.244 97.868 17.16C97.9893 17.076 98.092 16.9687 98.176 16.838C98.2693 16.698 98.358 16.53 98.442 16.334L102.082 7.22H102.684L105.862 15.116C106.077 15.6387 106.263 16.0587 106.422 16.376C106.581 16.684 106.735 16.9173 106.884 17.076C107.033 17.2347 107.192 17.3373 107.36 17.384C107.537 17.4307 107.747 17.454 107.99 17.454V18H103.426V17.454C103.921 17.454 104.261 17.4073 104.448 17.314C104.635 17.2207 104.728 17.0667 104.728 16.852C104.728 16.7587 104.723 16.6747 104.714 16.6C104.705 16.516 104.686 16.4273 104.658 16.334C104.639 16.2407 104.607 16.138 104.56 16.026C104.523 15.9047 104.471 15.7647 104.406 15.606L103.832 14.094ZM100.374 13.394H103.566L102.012 9.264L100.374 13.394ZM111.322 15.774C111.322 16.1567 111.332 16.46 111.35 16.684C111.369 16.908 111.416 17.0807 111.49 17.202C111.574 17.314 111.691 17.3887 111.84 17.426C111.99 17.4633 112.2 17.4913 112.47 17.51V18H108.746V17.51C109.017 17.5007 109.232 17.4773 109.39 17.44C109.549 17.3933 109.67 17.314 109.754 17.202C109.838 17.09 109.89 16.9313 109.908 16.726C109.936 16.5113 109.95 16.2267 109.95 15.872V14.234C109.95 13.5993 109.941 13.1047 109.922 12.75C109.913 12.3953 109.866 12.134 109.782 11.966C109.708 11.798 109.586 11.7 109.418 11.672C109.25 11.6347 109.017 11.616 108.718 11.616V11.126L111.168 10.594L111.364 12.33H111.42C111.542 12.05 111.691 11.7933 111.868 11.56C112.055 11.3267 112.256 11.1307 112.47 10.972C112.685 10.804 112.909 10.6733 113.142 10.58C113.376 10.4867 113.614 10.44 113.856 10.44C114.155 10.44 114.388 10.5147 114.556 10.664C114.734 10.804 114.822 10.9953 114.822 11.238C114.822 11.462 114.752 11.6393 114.612 11.77C114.472 11.8913 114.272 11.952 114.01 11.952C113.861 11.952 113.735 11.9333 113.632 11.896C113.53 11.8587 113.436 11.8213 113.352 11.784C113.278 11.7373 113.203 11.6953 113.128 11.658C113.063 11.6207 112.988 11.602 112.904 11.602C112.652 11.602 112.4 11.7653 112.148 12.092C111.896 12.4093 111.7 12.8153 111.56 13.31C111.486 13.5807 111.425 13.8887 111.378 14.234C111.341 14.57 111.322 14.9247 111.322 15.298V15.774ZM115.846 11.462V10.944C116.341 10.6547 116.728 10.3653 117.008 10.076C117.288 9.78667 117.503 9.44133 117.652 9.04H118.058V10.804H119.934V11.462H118.058V15.718C118.058 16.0447 118.072 16.32 118.1 16.544C118.138 16.768 118.194 16.95 118.268 17.09C118.343 17.2207 118.441 17.314 118.562 17.37C118.684 17.426 118.838 17.454 119.024 17.454C119.258 17.454 119.454 17.4073 119.612 17.314C119.78 17.2113 119.944 17.0433 120.102 16.81L120.452 17.076C120.322 17.4213 120.093 17.6873 119.766 17.874C119.449 18.0513 119.052 18.14 118.576 18.14C117.96 18.14 117.489 17.9953 117.162 17.706C116.845 17.4073 116.686 16.9827 116.686 16.432V11.462H115.846ZM125.929 18V17.468C126.284 17.4587 126.568 17.4353 126.783 17.398C127.007 17.3513 127.18 17.272 127.301 17.16C127.422 17.0387 127.502 16.88 127.539 16.684C127.586 16.4787 127.609 16.208 127.609 15.872V9.348C127.609 9.02133 127.59 8.76 127.553 8.564C127.525 8.35867 127.46 8.2 127.357 8.088C127.264 7.96667 127.124 7.88733 126.937 7.85C126.75 7.80333 126.508 7.77067 126.209 7.752V7.22H131.123C131.963 7.22 132.738 7.36 133.447 7.64C134.166 7.92 134.782 8.30733 135.295 8.802C135.818 9.29667 136.224 9.88467 136.513 10.566C136.802 11.2473 136.947 11.9893 136.947 12.792C136.947 13.5573 136.812 14.262 136.541 14.906C136.27 15.5407 135.888 16.0867 135.393 16.544C134.908 17.0013 134.324 17.3607 133.643 17.622C132.962 17.874 132.215 18 131.403 18H125.929ZM129.317 7.906C129.158 7.906 129.079 7.98533 129.079 8.144V15.718C129.079 16.782 129.774 17.314 131.165 17.314C132.444 17.314 133.424 16.936 134.105 16.18C134.786 15.4147 135.127 14.2947 135.127 12.82C135.127 12.0453 135.034 11.3547 134.847 10.748C134.66 10.1413 134.39 9.628 134.035 9.208C133.69 8.788 133.27 8.466 132.775 8.242C132.28 8.018 131.72 7.906 131.095 7.906H129.317ZM141.362 15.774C141.362 16.138 141.376 16.432 141.404 16.656C141.441 16.8707 141.507 17.0433 141.6 17.174C141.693 17.2953 141.824 17.3793 141.992 17.426C142.16 17.4727 142.384 17.5007 142.664 17.51V18H138.646V17.51C138.926 17.5007 139.155 17.4727 139.332 17.426C139.509 17.37 139.645 17.286 139.738 17.174C139.841 17.0527 139.906 16.8893 139.934 16.684C139.971 16.4693 139.99 16.1987 139.99 15.872V14.08C139.99 13.5387 139.981 13.0953 139.962 12.75C139.953 12.3953 139.929 12.1527 139.892 12.022C139.845 11.8073 139.738 11.6627 139.57 11.588C139.402 11.504 139.085 11.462 138.618 11.462V10.972L141.362 10.44V15.774ZM139.752 7.598C139.752 7.35533 139.836 7.15 140.004 6.982C140.172 6.814 140.377 6.73 140.62 6.73C140.863 6.73 141.068 6.814 141.236 6.982C141.404 7.15 141.488 7.35533 141.488 7.598C141.488 7.84067 141.404 8.046 141.236 8.214C141.068 8.382 140.863 8.466 140.62 8.466C140.377 8.466 140.172 8.382 140.004 8.214C139.836 8.046 139.752 7.84067 139.752 7.598ZM146.449 15.774C146.449 16.1567 146.459 16.46 146.477 16.684C146.496 16.908 146.543 17.0807 146.617 17.202C146.701 17.314 146.818 17.3887 146.967 17.426C147.117 17.4633 147.327 17.4913 147.597 17.51V18H143.873V17.51C144.144 17.5007 144.359 17.4773 144.517 17.44C144.676 17.3933 144.797 17.314 144.881 17.202C144.965 17.09 145.017 16.9313 145.035 16.726C145.063 16.5113 145.077 16.2267 145.077 15.872V14.234C145.077 13.5993 145.068 13.1047 145.049 12.75C145.04 12.3953 144.993 12.134 144.909 11.966C144.835 11.798 144.713 11.7 144.545 11.672C144.377 11.6347 144.144 11.616 143.845 11.616V11.126L146.295 10.594L146.491 12.33H146.547C146.669 12.05 146.818 11.7933 146.995 11.56C147.182 11.3267 147.383 11.1307 147.597 10.972C147.812 10.804 148.036 10.6733 148.269 10.58C148.503 10.4867 148.741 10.44 148.983 10.44C149.282 10.44 149.515 10.5147 149.683 10.664C149.861 10.804 149.949 10.9953 149.949 11.238C149.949 11.462 149.879 11.6393 149.739 11.77C149.599 11.8913 149.399 11.952 149.137 11.952C148.988 11.952 148.862 11.9333 148.759 11.896C148.657 11.8587 148.563 11.8213 148.479 11.784C148.405 11.7373 148.33 11.6953 148.255 11.658C148.19 11.6207 148.115 11.602 148.031 11.602C147.779 11.602 147.527 11.7653 147.275 12.092C147.023 12.4093 146.827 12.8153 146.687 13.31C146.613 13.5807 146.552 13.8887 146.505 14.234C146.468 14.57 146.449 14.9247 146.449 15.298V15.774ZM157.571 16.698C156.778 17.6593 155.793 18.14 154.617 18.14C154.066 18.14 153.567 18.0513 153.119 17.874C152.671 17.6873 152.284 17.4307 151.957 17.104C151.64 16.768 151.392 16.3713 151.215 15.914C151.038 15.4473 150.949 14.934 150.949 14.374C150.949 13.8047 151.042 13.2773 151.229 12.792C151.416 12.3067 151.677 11.8913 152.013 11.546C152.358 11.2007 152.764 10.93 153.231 10.734C153.707 10.538 154.225 10.44 154.785 10.44C155.69 10.44 156.39 10.6873 156.885 11.182C157.38 11.6673 157.627 12.3673 157.627 13.282C157.627 13.4127 157.599 13.492 157.543 13.52C157.496 13.548 157.38 13.562 157.193 13.562H152.587C152.568 13.6367 152.554 13.73 152.545 13.842C152.536 13.9447 152.531 14.0613 152.531 14.192C152.531 14.6773 152.587 15.1207 152.699 15.522C152.82 15.914 152.988 16.25 153.203 16.53C153.427 16.81 153.688 17.0293 153.987 17.188C154.295 17.3373 154.636 17.412 155.009 17.412C155.401 17.412 155.765 17.328 156.101 17.16C156.437 16.9827 156.782 16.698 157.137 16.306L157.571 16.698ZM155.261 12.918C155.448 12.918 155.597 12.9133 155.709 12.904C155.821 12.8947 155.905 12.876 155.961 12.848C156.017 12.82 156.054 12.7827 156.073 12.736C156.092 12.68 156.101 12.61 156.101 12.526C156.101 12.0967 155.961 11.756 155.681 11.504C155.41 11.2427 155.037 11.112 154.561 11.112C153.553 11.112 152.928 11.714 152.685 12.918H155.261ZM165.772 16.838C165.436 17.2487 165.002 17.5707 164.47 17.804C163.938 18.028 163.364 18.14 162.748 18.14C162.254 18.14 161.796 18.0513 161.376 17.874C160.966 17.6873 160.611 17.4307 160.312 17.104C160.014 16.768 159.78 16.3667 159.612 15.9C159.454 15.4333 159.374 14.9153 159.374 14.346C159.374 13.7487 159.468 13.212 159.654 12.736C159.841 12.2507 160.102 11.84 160.438 11.504C160.784 11.1587 161.194 10.8973 161.67 10.72C162.156 10.5333 162.688 10.44 163.266 10.44C163.63 10.44 163.962 10.4727 164.26 10.538C164.559 10.594 164.816 10.678 165.03 10.79C165.254 10.8927 165.427 11.0233 165.548 11.182C165.67 11.3313 165.73 11.4947 165.73 11.672C165.73 11.8587 165.67 12.0033 165.548 12.106C165.427 12.2087 165.259 12.26 165.044 12.26C164.876 12.26 164.736 12.2273 164.624 12.162C164.512 12.0873 164.368 11.9287 164.19 11.686C164.004 11.4713 163.822 11.322 163.644 11.238C163.476 11.1447 163.257 11.098 162.986 11.098C162.324 11.098 161.82 11.3547 161.474 11.868C161.138 12.3813 160.97 13.1373 160.97 14.136C160.97 15.2093 161.157 16.026 161.53 16.586C161.913 17.1367 162.468 17.412 163.196 17.412C163.588 17.412 163.957 17.3373 164.302 17.188C164.648 17.0293 164.998 16.7773 165.352 16.432L165.772 16.838ZM167.154 11.462V10.944C167.649 10.6547 168.036 10.3653 168.316 10.076C168.596 9.78667 168.811 9.44133 168.96 9.04H169.366V10.804H171.242V11.462H169.366V15.718C169.366 16.0447 169.38 16.32 169.408 16.544C169.445 16.768 169.501 16.95 169.576 17.09C169.651 17.2207 169.749 17.314 169.87 17.37C169.991 17.426 170.145 17.454 170.332 17.454C170.565 17.454 170.761 17.4073 170.92 17.314C171.088 17.2113 171.251 17.0433 171.41 16.81L171.76 17.076C171.629 17.4213 171.401 17.6873 171.074 17.874C170.757 18.0513 170.36 18.14 169.884 18.14C169.268 18.14 168.797 17.9953 168.47 17.706C168.153 17.4073 167.994 16.9827 167.994 16.432V11.462H167.154ZM175.477 15.774C175.477 16.138 175.491 16.432 175.519 16.656C175.556 16.8707 175.622 17.0433 175.715 17.174C175.808 17.2953 175.939 17.3793 176.107 17.426C176.275 17.4727 176.499 17.5007 176.779 17.51V18H172.761V17.51C173.041 17.5007 173.27 17.4727 173.447 17.426C173.624 17.37 173.76 17.286 173.853 17.174C173.956 17.0527 174.021 16.8893 174.049 16.684C174.086 16.4693 174.105 16.1987 174.105 15.872V14.08C174.105 13.5387 174.096 13.0953 174.077 12.75C174.068 12.3953 174.044 12.1527 174.007 12.022C173.96 11.8073 173.853 11.6627 173.685 11.588C173.517 11.504 173.2 11.462 172.733 11.462V10.972L175.477 10.44V15.774ZM173.867 7.598C173.867 7.35533 173.951 7.15 174.119 6.982C174.287 6.814 174.492 6.73 174.735 6.73C174.978 6.73 175.183 6.814 175.351 6.982C175.519 7.15 175.603 7.35533 175.603 7.598C175.603 7.84067 175.519 8.046 175.351 8.214C175.183 8.382 174.978 8.466 174.735 8.466C174.492 8.466 174.287 8.382 174.119 8.214C173.951 8.046 173.867 7.84067 173.867 7.598ZM182.007 10.44C182.539 10.44 183.043 10.538 183.519 10.734C183.995 10.9207 184.41 11.182 184.765 11.518C185.129 11.854 185.413 12.2553 185.619 12.722C185.833 13.1793 185.941 13.6833 185.941 14.234C185.941 14.8033 185.833 15.326 185.619 15.802C185.413 16.278 185.129 16.6887 184.765 17.034C184.41 17.3793 183.995 17.65 183.519 17.846C183.043 18.042 182.539 18.14 182.007 18.14C181.484 18.14 180.985 18.0467 180.509 17.86C180.042 17.664 179.631 17.3933 179.277 17.048C178.922 16.7027 178.642 16.292 178.437 15.816C178.231 15.3307 178.129 14.8033 178.129 14.234C178.129 13.6833 178.231 13.1747 178.437 12.708C178.642 12.2413 178.922 11.84 179.277 11.504C179.631 11.168 180.042 10.9067 180.509 10.72C180.985 10.5333 181.484 10.44 182.007 10.44ZM182.007 11.112C181.661 11.112 181.344 11.1867 181.055 11.336C180.775 11.4853 180.532 11.7 180.327 11.98C180.131 12.2507 179.977 12.582 179.865 12.974C179.762 13.3567 179.711 13.7813 179.711 14.248C179.711 14.7333 179.762 15.172 179.865 15.564C179.977 15.956 180.131 16.292 180.327 16.572C180.532 16.8427 180.775 17.0527 181.055 17.202C181.335 17.3513 181.652 17.426 182.007 17.426C182.361 17.426 182.683 17.3513 182.973 17.202C183.262 17.0527 183.509 16.838 183.715 16.558C183.92 16.278 184.079 15.942 184.191 15.55C184.303 15.158 184.359 14.724 184.359 14.248C184.359 13.7813 184.303 13.3567 184.191 12.974C184.079 12.5913 183.92 12.2647 183.715 11.994C183.509 11.714 183.262 11.4993 182.973 11.35C182.683 11.1913 182.361 11.112 182.007 11.112ZM190.041 15.802C190.041 16.1847 190.05 16.488 190.069 16.712C190.087 16.9267 190.134 17.0947 190.209 17.216C190.293 17.328 190.409 17.4027 190.559 17.44C190.717 17.4773 190.932 17.5053 191.203 17.524V18H187.535V17.524C187.796 17.5053 188.001 17.4773 188.151 17.44C188.309 17.4027 188.431 17.328 188.515 17.216C188.599 17.104 188.65 16.9453 188.669 16.74C188.697 16.5347 188.711 16.2547 188.711 15.9V14.038C188.711 12.9273 188.683 12.2507 188.627 12.008C188.599 11.8867 188.561 11.7887 188.515 11.714C188.477 11.63 188.417 11.5693 188.333 11.532C188.249 11.4853 188.141 11.4573 188.011 11.448C187.88 11.4293 187.712 11.42 187.507 11.42V10.972L189.747 10.44L189.915 11.826H189.971C190.325 11.3873 190.741 11.0467 191.217 10.804C191.693 10.5613 192.211 10.44 192.771 10.44C193.2 10.44 193.592 10.51 193.947 10.65C194.301 10.79 194.572 10.9813 194.759 11.224C194.917 11.4387 195.029 11.7187 195.095 12.064C195.16 12.4 195.193 12.8667 195.193 13.464V15.802C195.193 16.1847 195.202 16.488 195.221 16.712C195.249 16.9267 195.3 17.0947 195.375 17.216C195.449 17.328 195.561 17.4027 195.711 17.44C195.869 17.4773 196.075 17.5053 196.327 17.524V18H192.701V17.524C192.962 17.5147 193.167 17.4913 193.317 17.454C193.475 17.4073 193.592 17.328 193.667 17.216C193.751 17.104 193.802 16.9453 193.821 16.74C193.849 16.5253 193.863 16.2453 193.863 15.9V14.052C193.863 13.52 193.835 13.072 193.779 12.708C193.723 12.344 193.629 12.05 193.499 11.826C193.377 11.602 193.214 11.4433 193.009 11.35C192.803 11.2473 192.556 11.196 192.267 11.196C191.847 11.196 191.459 11.308 191.105 11.532C190.759 11.7467 190.489 12.0453 190.293 12.428C190.246 12.5213 190.204 12.61 190.167 12.694C190.139 12.778 190.115 12.876 190.097 12.988C190.078 13.1 190.064 13.2307 190.055 13.38C190.045 13.52 190.041 13.702 190.041 13.926V15.802Z" fill="#6D6B67"/>
<path d="M205.341 5.81818L201.591 19.75H200.364L204.114 5.81818H205.341Z" fill="#E0DFDC"/>
<path d="M216.532 18V17.468C216.887 17.4587 217.171 17.4353 217.386 17.398C217.61 17.3513 217.783 17.272 217.904 17.16C218.025 17.0387 218.105 16.88 218.142 16.684C218.189 16.4787 218.212 16.208 218.212 15.872V9.348C218.212 9.02133 218.193 8.76 218.156 8.564C218.128 8.35867 218.063 8.2 217.96 8.088C217.867 7.96667 217.727 7.88733 217.54 7.85C217.353 7.80333 217.111 7.77067 216.812 7.752V7.22H221.726C222.566 7.22 223.341 7.36 224.05 7.64C224.769 7.92 225.385 8.30733 225.898 8.802C226.421 9.29667 226.827 9.88467 227.116 10.566C227.405 11.2473 227.55 11.9893 227.55 12.792C227.55 13.5573 227.415 14.262 227.144 14.906C226.873 15.5407 226.491 16.0867 225.996 16.544C225.511 17.0013 224.927 17.3607 224.246 17.622C223.565 17.874 222.818 18 222.006 18H216.532ZM219.92 7.906C219.761 7.906 219.682 7.98533 219.682 8.144V15.718C219.682 16.782 220.377 17.314 221.768 17.314C223.047 17.314 224.027 16.936 224.708 16.18C225.389 15.4147 225.73 14.2947 225.73 12.82C225.73 12.0453 225.637 11.3547 225.45 10.748C225.263 10.1413 224.993 9.628 224.638 9.208C224.293 8.788 223.873 8.466 223.378 8.242C222.883 8.018 222.323 7.906 221.698 7.906H219.92ZM231.965 15.774C231.965 16.138 231.979 16.432 232.007 16.656C232.044 16.8707 232.11 17.0433 232.203 17.174C232.296 17.2953 232.427 17.3793 232.595 17.426C232.763 17.4727 232.987 17.5007 233.267 17.51V18H229.249V17.51C229.529 17.5007 229.758 17.4727 229.935 17.426C230.112 17.37 230.248 17.286 230.341 17.174C230.444 17.0527 230.509 16.8893 230.537 16.684C230.574 16.4693 230.593 16.1987 230.593 15.872V14.08C230.593 13.5387 230.584 13.0953 230.565 12.75C230.556 12.3953 230.532 12.1527 230.495 12.022C230.448 11.8073 230.341 11.6627 230.173 11.588C230.005 11.504 229.688 11.462 229.221 11.462V10.972L231.965 10.44V15.774ZM230.355 7.598C230.355 7.35533 230.439 7.15 230.607 6.982C230.775 6.814 230.98 6.73 231.223 6.73C231.466 6.73 231.671 6.814 231.839 6.982C232.007 7.15 232.091 7.35533 232.091 7.598C232.091 7.84067 232.007 8.046 231.839 8.214C231.671 8.382 231.466 8.466 231.223 8.466C230.98 8.466 230.775 8.382 230.607 8.214C230.439 8.046 230.355 7.84067 230.355 7.598ZM237.781 14.99C238.173 14.99 238.476 14.8127 238.691 14.458C238.915 14.1033 239.027 13.604 239.027 12.96C239.027 12.3253 238.915 11.8353 238.691 11.49C238.476 11.1353 238.168 10.958 237.767 10.958C237.365 10.958 237.043 11.1353 236.801 11.49C236.567 11.8447 236.451 12.33 236.451 12.946C236.451 13.562 236.572 14.0567 236.815 14.43C237.057 14.8033 237.379 14.99 237.781 14.99ZM237.011 16.628C237.235 16.6467 237.44 16.6653 237.627 16.684C237.813 16.7027 237.995 16.7213 238.173 16.74C238.359 16.7587 238.541 16.782 238.719 16.81C238.905 16.838 239.106 16.866 239.321 16.894C239.993 16.9967 240.529 17.258 240.931 17.678C241.341 18.0887 241.547 18.6067 241.547 19.232C241.547 20.016 241.234 20.6133 240.609 21.024C239.993 21.4347 239.097 21.64 237.921 21.64C237.398 21.64 236.917 21.5933 236.479 21.5C236.049 21.4067 235.681 21.2713 235.373 21.094C235.065 20.926 234.822 20.7207 234.645 20.478C234.477 20.2353 234.393 19.9693 234.393 19.68C234.393 19.484 234.425 19.302 234.491 19.134C234.556 18.966 234.645 18.8167 234.757 18.686C234.869 18.5647 234.999 18.4667 235.149 18.392C235.307 18.3173 235.471 18.28 235.639 18.28C235.956 18.28 236.241 18.378 236.493 18.574C236.241 18.63 236.035 18.7653 235.877 18.98C235.718 19.204 235.639 19.456 235.639 19.736C235.639 20.1467 235.839 20.464 236.241 20.688C236.651 20.912 237.23 21.024 237.977 21.024C239.573 21.024 240.371 20.534 240.371 19.554C240.371 19.1807 240.245 18.868 239.993 18.616C239.741 18.3733 239.442 18.2287 239.097 18.182C238.873 18.154 238.639 18.1213 238.397 18.084C238.163 18.056 237.93 18.028 237.697 18C237.473 17.972 237.263 17.9487 237.067 17.93C236.871 17.9113 236.712 17.8927 236.591 17.874C236.068 17.818 235.671 17.678 235.401 17.454C235.13 17.23 234.995 16.922 234.995 16.53C234.995 16.2033 235.13 15.914 235.401 15.662C235.671 15.41 236.012 15.2513 236.423 15.186V15.13C236.217 15.046 236.026 14.9293 235.849 14.78C235.671 14.6213 235.517 14.444 235.387 14.248C235.265 14.052 235.167 13.842 235.093 13.618C235.018 13.3847 234.981 13.1467 234.981 12.904C234.981 12.5493 235.046 12.2227 235.177 11.924C235.317 11.6253 235.508 11.3687 235.751 11.154C236.003 10.93 236.297 10.7573 236.633 10.636C236.969 10.5053 237.337 10.44 237.739 10.44C238.149 10.44 238.537 10.5053 238.901 10.636C239.265 10.7573 239.577 10.9393 239.839 11.182C240.156 10.9207 240.436 10.734 240.679 10.622C240.921 10.5007 241.15 10.44 241.365 10.44C241.701 10.44 241.967 10.5193 242.163 10.678C242.368 10.8273 242.471 11.0327 242.471 11.294C242.471 11.4527 242.415 11.5787 242.303 11.672C242.2 11.7653 242.069 11.812 241.911 11.812C241.78 11.812 241.673 11.7887 241.589 11.742C241.505 11.6953 241.425 11.6487 241.351 11.602C241.285 11.546 241.215 11.4947 241.141 11.448C241.066 11.4013 240.973 11.378 240.861 11.378C240.637 11.378 240.408 11.4573 240.175 11.616C240.399 11.9613 240.511 12.3953 240.511 12.918C240.511 13.7113 240.263 14.3367 239.769 14.794C239.274 15.242 238.532 15.5033 237.543 15.578C236.973 15.6247 236.577 15.6853 236.353 15.76C236.129 15.8347 236.017 15.97 236.017 16.166C236.017 16.3153 236.101 16.4273 236.269 16.502C236.437 16.5673 236.684 16.6093 237.011 16.628ZM245.917 15.774C245.917 16.138 245.931 16.432 245.959 16.656C245.997 16.8707 246.062 17.0433 246.155 17.174C246.249 17.2953 246.379 17.3793 246.547 17.426C246.715 17.4727 246.939 17.5007 247.219 17.51V18H243.201V17.51C243.481 17.5007 243.71 17.4727 243.887 17.426C244.065 17.37 244.2 17.286 244.293 17.174C244.396 17.0527 244.461 16.8893 244.489 16.684C244.527 16.4693 244.545 16.1987 244.545 15.872V14.08C244.545 13.5387 244.536 13.0953 244.517 12.75C244.508 12.3953 244.485 12.1527 244.447 12.022C244.401 11.8073 244.293 11.6627 244.125 11.588C243.957 11.504 243.64 11.462 243.173 11.462V10.972L245.917 10.44V15.774ZM244.307 7.598C244.307 7.35533 244.391 7.15 244.559 6.982C244.727 6.814 244.933 6.73 245.175 6.73C245.418 6.73 245.623 6.814 245.791 6.982C245.959 7.15 246.043 7.35533 246.043 7.598C246.043 7.84067 245.959 8.046 245.791 8.214C245.623 8.382 245.418 8.466 245.175 8.466C244.933 8.466 244.727 8.382 244.559 8.214C244.391 8.046 244.307 7.84067 244.307 7.598ZM248.457 11.462V10.944C248.952 10.6547 249.339 10.3653 249.619 10.076C249.899 9.78667 250.114 9.44133 250.263 9.04H250.669V10.804H252.545V11.462H250.669V15.718C250.669 16.0447 250.683 16.32 250.711 16.544C250.748 16.768 250.804 16.95 250.879 17.09C250.954 17.2207 251.052 17.314 251.173 17.37C251.294 17.426 251.448 17.454 251.635 17.454C251.868 17.454 252.064 17.4073 252.223 17.314C252.391 17.2113 252.554 17.0433 252.713 16.81L253.063 17.076C252.932 17.4213 252.704 17.6873 252.377 17.874C252.06 18.0513 251.663 18.14 251.187 18.14C250.571 18.14 250.1 17.9953 249.773 17.706C249.456 17.4073 249.297 16.9827 249.297 16.432V11.462H248.457ZM258.474 13.856C257.942 14.0613 257.489 14.262 257.116 14.458C256.752 14.654 256.458 14.85 256.234 15.046C256.01 15.242 255.847 15.438 255.744 15.634C255.651 15.83 255.604 16.0307 255.604 16.236C255.604 16.544 255.707 16.796 255.912 16.992C256.117 17.188 256.388 17.286 256.724 17.286C256.967 17.286 257.191 17.2253 257.396 17.104C257.611 16.9827 257.797 16.8193 257.956 16.614C258.115 16.3993 258.241 16.152 258.334 15.872C258.427 15.5827 258.474 15.2793 258.474 14.962V13.856ZM258.474 13.254V12.68C258.474 11.5413 257.989 10.972 257.018 10.972C256.859 10.972 256.724 10.986 256.612 11.014C256.5 11.042 256.407 11.0887 256.332 11.154C256.257 11.2193 256.187 11.3127 256.122 11.434C256.066 11.5553 256.01 11.7047 255.954 11.882C255.851 12.1527 255.749 12.3347 255.646 12.428C255.553 12.512 255.413 12.554 255.226 12.554C254.759 12.554 254.526 12.3207 254.526 11.854C254.526 11.406 254.764 11.0607 255.24 10.818C255.716 10.566 256.393 10.44 257.27 10.44C258.203 10.44 258.866 10.608 259.258 10.944C259.65 11.2707 259.846 11.8307 259.846 12.624V15.76C259.846 16.824 260.056 17.356 260.476 17.356C260.607 17.356 260.733 17.342 260.854 17.314C260.975 17.2767 261.078 17.188 261.162 17.048L261.358 17.384C261.246 17.5987 261.041 17.7807 260.742 17.93C260.443 18.07 260.131 18.14 259.804 18.14C259.393 18.14 259.085 18.0093 258.88 17.748C258.684 17.4867 258.586 17.118 258.586 16.642H258.516C258.273 17.0993 257.937 17.4633 257.508 17.734C257.079 17.9953 256.603 18.126 256.08 18.126C255.492 18.126 255.03 17.9767 254.694 17.678C254.358 17.3793 254.19 16.978 254.19 16.474C254.19 16.25 254.227 16.0353 254.302 15.83C254.386 15.6247 254.517 15.4287 254.694 15.242C254.871 15.0553 255.105 14.8733 255.394 14.696C255.683 14.5093 256.038 14.3227 256.458 14.136L258.474 13.254ZM264.666 15.816C264.666 16.1707 264.68 16.4553 264.708 16.67C264.736 16.8847 264.792 17.0527 264.876 17.174C264.969 17.2953 265.095 17.3793 265.254 17.426C265.422 17.4727 265.641 17.5007 265.912 17.51V18H262.048V17.51C262.328 17.5007 262.552 17.4727 262.72 17.426C262.888 17.37 263.019 17.286 263.112 17.174C263.215 17.062 263.28 16.908 263.308 16.712C263.345 16.5067 263.364 16.2407 263.364 15.914V9.88C263.364 9.376 263.355 8.956 263.336 8.62C263.327 8.27467 263.308 8.04133 263.28 7.92C263.233 7.70533 263.121 7.56067 262.944 7.486C262.776 7.41133 262.468 7.374 262.02 7.374V6.898L264.666 6.38V15.816ZM280.758 7.22H281.15L281.276 10.44H280.758C280.553 9.61867 280.156 8.97467 279.568 8.508C278.98 8.04133 278.271 7.808 277.44 7.808C276.871 7.808 276.362 7.92 275.914 8.144C275.466 8.368 275.088 8.69 274.78 9.11C274.472 9.53 274.234 10.0433 274.066 10.65C273.907 11.2567 273.828 11.9427 273.828 12.708C273.828 14.2107 274.141 15.368 274.766 16.18C275.391 16.9827 276.297 17.384 277.482 17.384C279.283 17.384 280.441 16.4273 280.954 14.514H281.528V18H281.038L280.716 16.894C279.736 17.7247 278.551 18.14 277.16 18.14C276.367 18.14 275.648 18.014 275.004 17.762C274.369 17.51 273.823 17.1553 273.366 16.698C272.918 16.2313 272.568 15.6667 272.316 15.004C272.073 14.3413 271.952 13.604 271.952 12.792C271.952 11.9427 272.083 11.168 272.344 10.468C272.605 9.768 272.969 9.166 273.436 8.662C273.912 8.158 274.477 7.77067 275.13 7.5C275.793 7.22 276.521 7.08 277.314 7.08C277.874 7.08 278.401 7.15933 278.896 7.318C279.391 7.47667 279.927 7.73333 280.506 8.088L280.758 7.22ZM287.287 10.44C287.819 10.44 288.323 10.538 288.799 10.734C289.275 10.9207 289.69 11.182 290.045 11.518C290.409 11.854 290.693 12.2553 290.899 12.722C291.113 13.1793 291.221 13.6833 291.221 14.234C291.221 14.8033 291.113 15.326 290.899 15.802C290.693 16.278 290.409 16.6887 290.045 17.034C289.69 17.3793 289.275 17.65 288.799 17.846C288.323 18.042 287.819 18.14 287.287 18.14C286.764 18.14 286.265 18.0467 285.789 17.86C285.322 17.664 284.911 17.3933 284.557 17.048C284.202 16.7027 283.922 16.292 283.717 15.816C283.511 15.3307 283.409 14.8033 283.409 14.234C283.409 13.6833 283.511 13.1747 283.717 12.708C283.922 12.2413 284.202 11.84 284.557 11.504C284.911 11.168 285.322 10.9067 285.789 10.72C286.265 10.5333 286.764 10.44 287.287 10.44ZM287.287 11.112C286.941 11.112 286.624 11.1867 286.335 11.336C286.055 11.4853 285.812 11.7 285.607 11.98C285.411 12.2507 285.257 12.582 285.145 12.974C285.042 13.3567 284.991 13.7813 284.991 14.248C284.991 14.7333 285.042 15.172 285.145 15.564C285.257 15.956 285.411 16.292 285.607 16.572C285.812 16.8427 286.055 17.0527 286.335 17.202C286.615 17.3513 286.932 17.426 287.287 17.426C287.641 17.426 287.963 17.3513 288.253 17.202C288.542 17.0527 288.789 16.838 288.995 16.558C289.2 16.278 289.359 15.942 289.471 15.55C289.583 15.158 289.639 14.724 289.639 14.248C289.639 13.7813 289.583 13.3567 289.471 12.974C289.359 12.5913 289.2 12.2647 288.995 11.994C288.789 11.714 288.542 11.4993 288.253 11.35C287.963 11.1913 287.641 11.112 287.287 11.112ZM295.321 15.802C295.321 16.1847 295.33 16.488 295.349 16.712C295.368 16.9267 295.414 17.0947 295.489 17.216C295.573 17.328 295.69 17.4027 295.839 17.44C295.998 17.4773 296.212 17.5053 296.483 17.524V18H292.815V17.524C293.076 17.5053 293.282 17.4773 293.431 17.44C293.59 17.4027 293.711 17.328 293.795 17.216C293.879 17.104 293.93 16.9453 293.949 16.74C293.977 16.5347 293.991 16.2547 293.991 15.9V14.038C293.991 12.9273 293.963 12.2507 293.907 12.008C293.879 11.8867 293.842 11.7887 293.795 11.714C293.758 11.63 293.697 11.5693 293.613 11.532C293.529 11.4853 293.422 11.4573 293.291 11.448C293.16 11.4293 292.992 11.42 292.787 11.42V10.972L295.027 10.44L295.195 11.826H295.251C295.606 11.3873 296.021 11.0467 296.497 10.804C296.973 10.5613 297.491 10.44 298.051 10.44C298.48 10.44 298.872 10.51 299.227 10.65C299.582 10.79 299.852 10.9813 300.039 11.224C300.198 11.4387 300.31 11.7187 300.375 12.064C300.44 12.4 300.473 12.8667 300.473 13.464V15.802C300.473 16.1847 300.482 16.488 300.501 16.712C300.529 16.9267 300.58 17.0947 300.655 17.216C300.73 17.328 300.842 17.4027 300.991 17.44C301.15 17.4773 301.355 17.5053 301.607 17.524V18H297.981V17.524C298.242 17.5147 298.448 17.4913 298.597 17.454C298.756 17.4073 298.872 17.328 298.947 17.216C299.031 17.104 299.082 16.9453 299.101 16.74C299.129 16.5253 299.143 16.2453 299.143 15.9V14.052C299.143 13.52 299.115 13.072 299.059 12.708C299.003 12.344 298.91 12.05 298.779 11.826C298.658 11.602 298.494 11.4433 298.289 11.35C298.084 11.2473 297.836 11.196 297.547 11.196C297.127 11.196 296.74 11.308 296.385 11.532C296.04 11.7467 295.769 12.0453 295.573 12.428C295.526 12.5213 295.484 12.61 295.447 12.694C295.419 12.778 295.396 12.876 295.377 12.988C295.358 13.1 295.344 13.2307 295.335 13.38C295.326 13.52 295.321 13.702 295.321 13.926V15.802ZM302.909 11.462V10.944C303.404 10.6547 303.791 10.3653 304.071 10.076C304.351 9.78667 304.566 9.44133 304.715 9.04H305.121V10.804H306.997V11.462H305.121V15.718C305.121 16.0447 305.135 16.32 305.163 16.544C305.201 16.768 305.257 16.95 305.331 17.09C305.406 17.2207 305.504 17.314 305.625 17.37C305.747 17.426 305.901 17.454 306.087 17.454C306.321 17.454 306.517 17.4073 306.675 17.314C306.843 17.2113 307.007 17.0433 307.165 16.81L307.515 17.076C307.385 17.4213 307.156 17.6873 306.829 17.874C306.512 18.0513 306.115 18.14 305.639 18.14C305.023 18.14 304.552 17.9953 304.225 17.706C303.908 17.4073 303.749 16.9827 303.749 16.432V11.462H302.909ZM315.348 16.698C314.555 17.6593 313.57 18.14 312.394 18.14C311.844 18.14 311.344 18.0513 310.896 17.874C310.448 17.6873 310.061 17.4307 309.734 17.104C309.417 16.768 309.17 16.3713 308.992 15.914C308.815 15.4473 308.726 14.934 308.726 14.374C308.726 13.8047 308.82 13.2773 309.006 12.792C309.193 12.3067 309.454 11.8913 309.79 11.546C310.136 11.2007 310.542 10.93 311.008 10.734C311.484 10.538 312.002 10.44 312.562 10.44C313.468 10.44 314.168 10.6873 314.662 11.182C315.157 11.6673 315.404 12.3673 315.404 13.282C315.404 13.4127 315.376 13.492 315.32 13.52C315.274 13.548 315.157 13.562 314.97 13.562H310.364C310.346 13.6367 310.332 13.73 310.322 13.842C310.313 13.9447 310.308 14.0613 310.308 14.192C310.308 14.6773 310.364 15.1207 310.476 15.522C310.598 15.914 310.766 16.25 310.98 16.53C311.204 16.81 311.466 17.0293 311.764 17.188C312.072 17.3373 312.413 17.412 312.786 17.412C313.178 17.412 313.542 17.328 313.878 17.16C314.214 16.9827 314.56 16.698 314.914 16.306L315.348 16.698ZM313.038 12.918C313.225 12.918 313.374 12.9133 313.486 12.904C313.598 12.8947 313.682 12.876 313.738 12.848C313.794 12.82 313.832 12.7827 313.85 12.736C313.869 12.68 313.878 12.61 313.878 12.526C313.878 12.0967 313.738 11.756 313.458 11.504C313.188 11.2427 312.814 11.112 312.338 11.112C311.33 11.112 310.705 11.714 310.462 12.918H313.038ZM319.49 15.802C319.49 16.1847 319.499 16.488 319.518 16.712C319.536 16.9267 319.583 17.0947 319.658 17.216C319.742 17.328 319.858 17.4027 320.008 17.44C320.166 17.4773 320.381 17.5053 320.652 17.524V18H316.984V17.524C317.245 17.5053 317.45 17.4773 317.6 17.44C317.758 17.4027 317.88 17.328 317.964 17.216C318.048 17.104 318.099 16.9453 318.118 16.74C318.146 16.5347 318.16 16.2547 318.16 15.9V14.038C318.16 12.9273 318.132 12.2507 318.076 12.008C318.048 11.8867 318.01 11.7887 317.964 11.714C317.926 11.63 317.866 11.5693 317.782 11.532C317.698 11.4853 317.59 11.4573 317.46 11.448C317.329 11.4293 317.161 11.42 316.956 11.42V10.972L319.196 10.44L319.364 11.826H319.42C319.774 11.3873 320.19 11.0467 320.666 10.804C321.142 10.5613 321.66 10.44 322.22 10.44C322.649 10.44 323.041 10.51 323.396 10.65C323.75 10.79 324.021 10.9813 324.208 11.224C324.366 11.4387 324.478 11.7187 324.544 12.064C324.609 12.4 324.642 12.8667 324.642 13.464V15.802C324.642 16.1847 324.651 16.488 324.67 16.712C324.698 16.9267 324.749 17.0947 324.824 17.216C324.898 17.328 325.01 17.4027 325.16 17.44C325.318 17.4773 325.524 17.5053 325.776 17.524V18H322.15V17.524C322.411 17.5147 322.616 17.4913 322.766 17.454C322.924 17.4073 323.041 17.328 323.116 17.216C323.2 17.104 323.251 16.9453 323.27 16.74C323.298 16.5253 323.312 16.2453 323.312 15.9V14.052C323.312 13.52 323.284 13.072 323.228 12.708C323.172 12.344 323.078 12.05 322.948 11.826C322.826 11.602 322.663 11.4433 322.458 11.35C322.252 11.2473 322.005 11.196 321.716 11.196C321.296 11.196 320.908 11.308 320.554 11.532C320.208 11.7467 319.938 12.0453 319.742 12.428C319.695 12.5213 319.653 12.61 319.616 12.694C319.588 12.778 319.564 12.876 319.546 12.988C319.527 13.1 319.513 13.2307 319.504 13.38C319.494 13.52 319.49 13.702 319.49 13.926V15.802ZM327.078 11.462V10.944C327.573 10.6547 327.96 10.3653 328.24 10.076C328.52 9.78667 328.735 9.44133 328.884 9.04H329.29V10.804H331.166V11.462H329.29V15.718C329.29 16.0447 329.304 16.32 329.332 16.544C329.369 16.768 329.425 16.95 329.5 17.09C329.575 17.2207 329.673 17.314 329.794 17.37C329.915 17.426 330.069 17.454 330.256 17.454C330.489 17.454 330.685 17.4073 330.844 17.314C331.012 17.2113 331.175 17.0433 331.334 16.81L331.684 17.076C331.553 17.4213 331.325 17.6873 330.998 17.874C330.681 18.0513 330.284 18.14 329.808 18.14C329.192 18.14 328.721 17.9953 328.394 17.706C328.077 17.4073 327.918 16.9827 327.918 16.432V11.462H327.078Z" fill="#6D6B67"/>
<path d="M344.341 5.81818L340.591 19.75H339.364L343.114 5.81818H344.341Z" fill="#E0DFDC"/>
<path d="M357.64 15.354C357.64 15.8207 357.659 16.1893 357.696 16.46C357.733 16.7307 357.803 16.9407 357.906 17.09C358.018 17.2393 358.172 17.3373 358.368 17.384C358.573 17.4307 358.839 17.4587 359.166 17.468V18H354.63V17.468C354.957 17.4587 355.218 17.4307 355.414 17.384C355.619 17.328 355.778 17.23 355.89 17.09C356.002 16.95 356.077 16.754 356.114 16.502C356.151 16.2407 356.17 15.8907 356.17 15.452V9.768C356.17 9.376 356.151 9.054 356.114 8.802C356.086 8.54067 356.021 8.33533 355.918 8.186C355.825 8.03667 355.685 7.934 355.498 7.878C355.311 7.81267 355.069 7.77067 354.77 7.752V7.22H359.026V7.752C358.727 7.76133 358.485 7.79867 358.298 7.864C358.121 7.92933 357.981 8.04133 357.878 8.2C357.785 8.34933 357.719 8.55933 357.682 8.83C357.654 9.10067 357.64 9.446 357.64 9.866V15.354ZM363.137 15.816C363.137 16.1707 363.151 16.4553 363.179 16.67C363.207 16.8847 363.263 17.0527 363.347 17.174C363.44 17.2953 363.566 17.3793 363.725 17.426C363.893 17.4727 364.112 17.5007 364.383 17.51V18H360.519V17.51C360.799 17.5007 361.023 17.4727 361.191 17.426C361.359 17.37 361.489 17.286 361.583 17.174C361.685 17.062 361.751 16.908 361.779 16.712C361.816 16.5067 361.835 16.2407 361.835 15.914V9.88C361.835 9.376 361.825 8.956 361.807 8.62C361.797 8.27467 361.779 8.04133 361.751 7.92C361.704 7.70533 361.592 7.56067 361.415 7.486C361.247 7.41133 360.939 7.374 360.491 7.374V6.898L363.137 6.38V15.816ZM368.089 15.816C368.089 16.1707 368.103 16.4553 368.131 16.67C368.159 16.8847 368.215 17.0527 368.299 17.174C368.393 17.2953 368.519 17.3793 368.677 17.426C368.845 17.4727 369.065 17.5007 369.335 17.51V18H365.471V17.51C365.751 17.5007 365.975 17.4727 366.143 17.426C366.311 17.37 366.442 17.286 366.535 17.174C366.638 17.062 366.703 16.908 366.731 16.712C366.769 16.5067 366.787 16.2407 366.787 15.914V9.88C366.787 9.376 366.778 8.956 366.759 8.62C366.75 8.27467 366.731 8.04133 366.703 7.92C366.657 7.70533 366.545 7.56067 366.367 7.486C366.199 7.41133 365.891 7.374 365.443 7.374V6.898L368.089 6.38V15.816ZM376.598 12.82C376.598 12.4373 376.589 12.1387 376.57 11.924C376.551 11.7 376.5 11.532 376.416 11.42C376.341 11.2987 376.225 11.2193 376.066 11.182C375.917 11.1353 375.707 11.098 375.436 11.07V10.58H377.97V14.878C377.97 15.41 377.975 15.844 377.984 16.18C378.003 16.516 378.026 16.768 378.054 16.936C378.073 17.0573 378.101 17.1553 378.138 17.23C378.185 17.2953 378.25 17.3513 378.334 17.398C378.418 17.4353 378.525 17.4633 378.656 17.482C378.796 17.4913 378.973 17.496 379.188 17.496V17.986L376.878 18.154L376.724 16.474H376.668C376.313 17.0527 375.903 17.4773 375.436 17.748C374.979 18.0093 374.498 18.14 373.994 18.14C373.602 18.14 373.219 18.0653 372.846 17.916C372.482 17.7667 372.207 17.566 372.02 17.314C371.861 17.1087 371.745 16.824 371.67 16.46C371.605 16.096 371.572 15.6247 371.572 15.046V12.82C371.572 12.4373 371.563 12.1387 371.544 11.924C371.525 11.7 371.474 11.532 371.39 11.42C371.315 11.2987 371.199 11.2193 371.04 11.182C370.891 11.1353 370.681 11.098 370.41 11.07V10.58H372.944V14.402C372.944 15.4193 373.061 16.1567 373.294 16.614C373.537 17.0713 373.919 17.3 374.442 17.3C375.263 17.3 375.903 16.7633 376.36 15.69C376.407 15.578 376.444 15.4753 376.472 15.382C376.5 15.2887 376.523 15.186 376.542 15.074C376.561 14.962 376.575 14.836 376.584 14.696C376.593 14.556 376.598 14.388 376.598 14.192V12.82ZM381.099 18H380.791V15.592H381.141C381.505 16.908 382.168 17.566 383.129 17.566C383.502 17.566 383.796 17.4773 384.011 17.3C384.235 17.1133 384.347 16.8333 384.347 16.46C384.347 16.32 384.324 16.2033 384.277 16.11C384.24 16.0073 384.16 15.9047 384.039 15.802C383.927 15.69 383.764 15.564 383.549 15.424C383.344 15.284 383.068 15.1067 382.723 14.892C382.406 14.696 382.13 14.514 381.897 14.346C381.664 14.178 381.468 14.01 381.309 13.842C381.15 13.6647 381.029 13.478 380.945 13.282C380.87 13.086 380.833 12.8573 380.833 12.596C380.833 12.2787 380.884 11.9893 380.987 11.728C381.099 11.4573 381.248 11.2287 381.435 11.042C381.622 10.8553 381.841 10.7107 382.093 10.608C382.345 10.496 382.62 10.44 382.919 10.44C383.171 10.44 383.432 10.482 383.703 10.566C383.974 10.6407 384.212 10.7433 384.417 10.874L384.697 10.58H384.963V12.596H384.599C384.394 12.0267 384.17 11.6207 383.927 11.378C383.684 11.1353 383.386 11.014 383.031 11.014C382.714 11.014 382.457 11.098 382.261 11.266C382.074 11.434 381.981 11.6673 381.981 11.966C381.981 12.1247 382.004 12.2647 382.051 12.386C382.107 12.498 382.191 12.61 382.303 12.722C382.415 12.834 382.555 12.9507 382.723 13.072C382.9 13.184 383.11 13.3147 383.353 13.464C383.754 13.716 384.095 13.94 384.375 14.136C384.664 14.332 384.898 14.528 385.075 14.724C385.252 14.9107 385.383 15.1067 385.467 15.312C385.551 15.5173 385.593 15.7507 385.593 16.012C385.593 16.6747 385.378 17.1973 384.949 17.58C384.52 17.9533 383.955 18.14 383.255 18.14C382.527 18.14 381.902 17.93 381.379 17.51L381.099 18ZM387.212 11.462V10.944C387.707 10.6547 388.094 10.3653 388.374 10.076C388.654 9.78667 388.869 9.44133 389.018 9.04H389.424V10.804H391.3V11.462H389.424V15.718C389.424 16.0447 389.438 16.32 389.466 16.544C389.504 16.768 389.56 16.95 389.634 17.09C389.709 17.2207 389.807 17.314 389.928 17.37C390.05 17.426 390.204 17.454 390.39 17.454C390.624 17.454 390.82 17.4073 390.978 17.314C391.146 17.2113 391.31 17.0433 391.468 16.81L391.818 17.076C391.688 17.4213 391.459 17.6873 391.132 17.874C390.815 18.0513 390.418 18.14 389.942 18.14C389.326 18.14 388.855 17.9953 388.528 17.706C388.211 17.4073 388.052 16.9827 388.052 16.432V11.462H387.212ZM395.451 15.774C395.451 16.1567 395.461 16.46 395.479 16.684C395.498 16.908 395.545 17.0807 395.619 17.202C395.703 17.314 395.82 17.3887 395.969 17.426C396.119 17.4633 396.329 17.4913 396.599 17.51V18H392.875V17.51C393.146 17.5007 393.361 17.4773 393.519 17.44C393.678 17.3933 393.799 17.314 393.883 17.202C393.967 17.09 394.019 16.9313 394.037 16.726C394.065 16.5113 394.079 16.2267 394.079 15.872V14.234C394.079 13.5993 394.07 13.1047 394.051 12.75C394.042 12.3953 393.995 12.134 393.911 11.966C393.837 11.798 393.715 11.7 393.547 11.672C393.379 11.6347 393.146 11.616 392.847 11.616V11.126L395.297 10.594L395.493 12.33H395.549C395.671 12.05 395.82 11.7933 395.997 11.56C396.184 11.3267 396.385 11.1307 396.599 10.972C396.814 10.804 397.038 10.6733 397.271 10.58C397.505 10.4867 397.743 10.44 397.985 10.44C398.284 10.44 398.517 10.5147 398.685 10.664C398.863 10.804 398.951 10.9953 398.951 11.238C398.951 11.462 398.881 11.6393 398.741 11.77C398.601 11.8913 398.401 11.952 398.139 11.952C397.99 11.952 397.864 11.9333 397.761 11.896C397.659 11.8587 397.565 11.8213 397.481 11.784C397.407 11.7373 397.332 11.6953 397.257 11.658C397.192 11.6207 397.117 11.602 397.033 11.602C396.781 11.602 396.529 11.7653 396.277 12.092C396.025 12.4093 395.829 12.8153 395.689 13.31C395.615 13.5807 395.554 13.8887 395.507 14.234C395.47 14.57 395.451 14.9247 395.451 15.298V15.774ZM404.301 13.856C403.769 14.0613 403.317 14.262 402.943 14.458C402.579 14.654 402.285 14.85 402.061 15.046C401.837 15.242 401.674 15.438 401.571 15.634C401.478 15.83 401.431 16.0307 401.431 16.236C401.431 16.544 401.534 16.796 401.739 16.992C401.945 17.188 402.215 17.286 402.551 17.286C402.794 17.286 403.018 17.2253 403.223 17.104C403.438 16.9827 403.625 16.8193 403.783 16.614C403.942 16.3993 404.068 16.152 404.161 15.872C404.255 15.5827 404.301 15.2793 404.301 14.962V13.856ZM404.301 13.254V12.68C404.301 11.5413 403.816 10.972 402.845 10.972C402.687 10.972 402.551 10.986 402.439 11.014C402.327 11.042 402.234 11.0887 402.159 11.154C402.085 11.2193 402.015 11.3127 401.949 11.434C401.893 11.5553 401.837 11.7047 401.781 11.882C401.679 12.1527 401.576 12.3347 401.473 12.428C401.38 12.512 401.24 12.554 401.053 12.554C400.587 12.554 400.353 12.3207 400.353 11.854C400.353 11.406 400.591 11.0607 401.067 10.818C401.543 10.566 402.22 10.44 403.097 10.44C404.031 10.44 404.693 10.608 405.085 10.944C405.477 11.2707 405.673 11.8307 405.673 12.624V15.76C405.673 16.824 405.883 17.356 406.303 17.356C406.434 17.356 406.56 17.342 406.681 17.314C406.803 17.2767 406.905 17.188 406.989 17.048L407.185 17.384C407.073 17.5987 406.868 17.7807 406.569 17.93C406.271 18.07 405.958 18.14 405.631 18.14C405.221 18.14 404.913 18.0093 404.707 17.748C404.511 17.4867 404.413 17.118 404.413 16.642H404.343C404.101 17.0993 403.765 17.4633 403.335 17.734C402.906 17.9953 402.43 18.126 401.907 18.126C401.319 18.126 400.857 17.9767 400.521 17.678C400.185 17.3793 400.017 16.978 400.017 16.474C400.017 16.25 400.055 16.0353 400.129 15.83C400.213 15.6247 400.344 15.4287 400.521 15.242C400.699 15.0553 400.932 14.8733 401.221 14.696C401.511 14.5093 401.865 14.3227 402.285 14.136L404.301 13.254ZM408.127 11.462V10.944C408.622 10.6547 409.009 10.3653 409.289 10.076C409.569 9.78667 409.784 9.44133 409.933 9.04H410.339V10.804H412.215V11.462H410.339V15.718C410.339 16.0447 410.353 16.32 410.381 16.544C410.419 16.768 410.475 16.95 410.549 17.09C410.624 17.2207 410.722 17.314 410.843 17.37C410.965 17.426 411.119 17.454 411.305 17.454C411.539 17.454 411.735 17.4073 411.893 17.314C412.061 17.2113 412.225 17.0433 412.383 16.81L412.733 17.076C412.603 17.4213 412.374 17.6873 412.047 17.874C411.73 18.0513 411.333 18.14 410.857 18.14C410.241 18.14 409.77 17.9953 409.443 17.706C409.126 17.4073 408.967 16.9827 408.967 16.432V11.462H408.127ZM416.45 15.774C416.45 16.138 416.464 16.432 416.492 16.656C416.53 16.8707 416.595 17.0433 416.688 17.174C416.782 17.2953 416.912 17.3793 417.08 17.426C417.248 17.4727 417.472 17.5007 417.752 17.51V18H413.734V17.51C414.014 17.5007 414.243 17.4727 414.42 17.426C414.598 17.37 414.733 17.286 414.826 17.174C414.929 17.0527 414.994 16.8893 415.022 16.684C415.06 16.4693 415.078 16.1987 415.078 15.872V14.08C415.078 13.5387 415.069 13.0953 415.05 12.75C415.041 12.3953 415.018 12.1527 414.98 12.022C414.934 11.8073 414.826 11.6627 414.658 11.588C414.49 11.504 414.173 11.462 413.706 11.462V10.972L416.45 10.44V15.774ZM414.84 7.598C414.84 7.35533 414.924 7.15 415.092 6.982C415.26 6.814 415.466 6.73 415.708 6.73C415.951 6.73 416.156 6.814 416.324 6.982C416.492 7.15 416.576 7.35533 416.576 7.598C416.576 7.84067 416.492 8.046 416.324 8.214C416.156 8.382 415.951 8.466 415.708 8.466C415.466 8.466 415.26 8.382 415.092 8.214C414.924 8.046 414.84 7.84067 414.84 7.598ZM422.98 10.44C423.512 10.44 424.016 10.538 424.492 10.734C424.968 10.9207 425.383 11.182 425.738 11.518C426.102 11.854 426.386 12.2553 426.592 12.722C426.806 13.1793 426.914 13.6833 426.914 14.234C426.914 14.8033 426.806 15.326 426.592 15.802C426.386 16.278 426.102 16.6887 425.738 17.034C425.383 17.3793 424.968 17.65 424.492 17.846C424.016 18.042 423.512 18.14 422.98 18.14C422.457 18.14 421.958 18.0467 421.482 17.86C421.015 17.664 420.604 17.3933 420.25 17.048C419.895 16.7027 419.615 16.292 419.41 15.816C419.204 15.3307 419.102 14.8033 419.102 14.234C419.102 13.6833 419.204 13.1747 419.41 12.708C419.615 12.2413 419.895 11.84 420.25 11.504C420.604 11.168 421.015 10.9067 421.482 10.72C421.958 10.5333 422.457 10.44 422.98 10.44ZM422.98 11.112C422.634 11.112 422.317 11.1867 422.028 11.336C421.748 11.4853 421.505 11.7 421.3 11.98C421.104 12.2507 420.95 12.582 420.838 12.974C420.735 13.3567 420.684 13.7813 420.684 14.248C420.684 14.7333 420.735 15.172 420.838 15.564C420.95 15.956 421.104 16.292 421.3 16.572C421.505 16.8427 421.748 17.0527 422.028 17.202C422.308 17.3513 422.625 17.426 422.98 17.426C423.334 17.426 423.656 17.3513 423.946 17.202C424.235 17.0527 424.482 16.838 424.688 16.558C424.893 16.278 425.052 15.942 425.164 15.55C425.276 15.158 425.332 14.724 425.332 14.248C425.332 13.7813 425.276 13.3567 425.164 12.974C425.052 12.5913 424.893 12.2647 424.688 11.994C424.482 11.714 424.235 11.4993 423.946 11.35C423.656 11.1913 423.334 11.112 422.98 11.112ZM431.014 15.802C431.014 16.1847 431.023 16.488 431.042 16.712C431.061 16.9267 431.107 17.0947 431.182 17.216C431.266 17.328 431.383 17.4027 431.532 17.44C431.691 17.4773 431.905 17.5053 432.176 17.524V18H428.508V17.524C428.769 17.5053 428.975 17.4773 429.124 17.44C429.283 17.4027 429.404 17.328 429.488 17.216C429.572 17.104 429.623 16.9453 429.642 16.74C429.67 16.5347 429.684 16.2547 429.684 15.9V14.038C429.684 12.9273 429.656 12.2507 429.6 12.008C429.572 11.8867 429.535 11.7887 429.488 11.714C429.451 11.63 429.39 11.5693 429.306 11.532C429.222 11.4853 429.115 11.4573 428.984 11.448C428.853 11.4293 428.685 11.42 428.48 11.42V10.972L430.72 10.44L430.888 11.826H430.944C431.299 11.3873 431.714 11.0467 432.19 10.804C432.666 10.5613 433.184 10.44 433.744 10.44C434.173 10.44 434.565 10.51 434.92 10.65C435.275 10.79 435.545 10.9813 435.732 11.224C435.891 11.4387 436.003 11.7187 436.068 12.064C436.133 12.4 436.166 12.8667 436.166 13.464V15.802C436.166 16.1847 436.175 16.488 436.194 16.712C436.222 16.9267 436.273 17.0947 436.348 17.216C436.423 17.328 436.535 17.4027 436.684 17.44C436.843 17.4773 437.048 17.5053 437.3 17.524V18H433.674V17.524C433.935 17.5147 434.141 17.4913 434.29 17.454C434.449 17.4073 434.565 17.328 434.64 17.216C434.724 17.104 434.775 16.9453 434.794 16.74C434.822 16.5253 434.836 16.2453 434.836 15.9V14.052C434.836 13.52 434.808 13.072 434.752 12.708C434.696 12.344 434.603 12.05 434.472 11.826C434.351 11.602 434.187 11.4433 433.982 11.35C433.777 11.2473 433.529 11.196 433.24 11.196C432.82 11.196 432.433 11.308 432.078 11.532C431.733 11.7467 431.462 12.0453 431.266 12.428C431.219 12.5213 431.177 12.61 431.14 12.694C431.112 12.778 431.089 12.876 431.07 12.988C431.051 13.1 431.037 13.2307 431.028 13.38C431.019 13.52 431.014 13.702 431.014 13.926V15.802Z" fill="#6D6B67"/>
<path d="M448.341 5.81818L444.591 19.75H443.364L447.114 5.81818H448.341Z" fill="black"/>
</svg>
