<svg width="299" height="25" viewBox="0 0 299 25" fill="none" xmlns="http://www.w3.org/2000/svg">
<path d="M11.842 16.037L13.87 10.395C13.9913 10.057 14.078 9.78833 14.13 9.589C14.182 9.38967 14.208 9.21633 14.208 9.069C14.208 8.84367 14.1343 8.692 13.987 8.614C13.8483 8.52733 13.597 8.484 13.233 8.484V7.99H16.392V8.484C15.9933 8.484 15.69 8.56633 15.482 8.731C15.2827 8.89567 15.1137 9.16433 14.975 9.537L11.712 18.13H11.257L8.761 10.733L5.992 18.13H5.537L2.833 10.668C2.677 10.252 2.534 9.90533 2.404 9.628C2.28267 9.342 2.14833 9.11667 2.001 8.952C1.86233 8.78733 1.702 8.67033 1.52 8.601C1.338 8.53167 1.117 8.497 0.857 8.497V7.99H5.095V8.497C4.653 8.497 4.341 8.536 4.159 8.614C3.98567 8.692 3.899 8.84367 3.899 9.069C3.899 9.18167 3.91633 9.31167 3.951 9.459C3.98567 9.60633 4.03767 9.77967 4.107 9.979L6.083 15.998L7.682 11.5C7.80333 11.162 7.92033 10.85 8.033 10.564C8.15433 10.2693 8.24967 10.005 8.319 9.771C8.19767 9.51967 8.085 9.31167 7.981 9.147C7.88567 8.98233 7.786 8.85233 7.682 8.757C7.58667 8.66167 7.48267 8.59667 7.37 8.562C7.266 8.51867 7.15333 8.497 7.032 8.497V7.99H11.01V8.497C10.7587 8.497 10.555 8.50567 10.399 8.523C10.243 8.54033 10.1217 8.57067 10.035 8.614C9.957 8.64867 9.90067 8.70067 9.866 8.77C9.84 8.83933 9.827 8.92167 9.827 9.017C9.827 9.147 9.84867 9.30733 9.892 9.498C9.944 9.68 10.0133 9.914 10.1 10.2L11.842 16.037ZM22.4682 16.791C21.7316 17.6837 20.8172 18.13 19.7252 18.13C19.2139 18.13 18.7502 18.0477 18.3342 17.883C17.9182 17.7097 17.5586 17.4713 17.2552 17.168C16.9606 16.856 16.7309 16.4877 16.5662 16.063C16.4016 15.6297 16.3192 15.153 16.3192 14.633C16.3192 14.1043 16.4059 13.6147 16.5792 13.164C16.7526 12.7133 16.9952 12.3277 17.3072 12.007C17.6279 11.6863 18.0049 11.435 18.4382 11.253C18.8802 11.071 19.3612 10.98 19.8812 10.98C20.7219 10.98 21.3719 11.2097 21.8312 11.669C22.2906 12.1197 22.5202 12.7697 22.5202 13.619C22.5202 13.7403 22.4942 13.814 22.4422 13.84C22.3989 13.866 22.2906 13.879 22.1172 13.879H17.8402C17.8229 13.9483 17.8099 14.035 17.8012 14.139C17.7926 14.2343 17.7882 14.3427 17.7882 14.464C17.7882 14.9147 17.8402 15.3263 17.9442 15.699C18.0569 16.063 18.2129 16.375 18.4122 16.635C18.6202 16.895 18.8629 17.0987 19.1402 17.246C19.4262 17.3847 19.7426 17.454 20.0892 17.454C20.4532 17.454 20.7912 17.376 21.1032 17.22C21.4152 17.0553 21.7359 16.791 22.0652 16.427L22.4682 16.791ZM20.3232 13.281C20.4966 13.281 20.6352 13.2767 20.7392 13.268C20.8432 13.2593 20.9212 13.242 20.9732 13.216C21.0252 13.19 21.0599 13.1553 21.0772 13.112C21.0946 13.06 21.1032 12.995 21.1032 12.917C21.1032 12.5183 20.9732 12.202 20.7132 11.968C20.4619 11.7253 20.1152 11.604 19.6732 11.604C18.7372 11.604 18.1566 12.163 17.9312 13.281H20.3232ZM25.9914 15.283C25.9914 15.6123 26.039 15.9157 26.1344 16.193C26.2297 16.4617 26.3597 16.6957 26.5244 16.895C26.6977 17.0857 26.9014 17.2373 27.1354 17.35C27.378 17.4627 27.638 17.519 27.9154 17.519C28.2187 17.519 28.4917 17.4497 28.7344 17.311C28.9857 17.1723 29.198 16.9773 29.3714 16.726C29.5534 16.466 29.692 16.1583 29.7874 15.803C29.8914 15.439 29.9434 15.036 29.9434 14.594C29.9434 14.152 29.8914 13.749 29.7874 13.385C29.6834 13.0123 29.5404 12.696 29.3584 12.436C29.1764 12.1673 28.9554 11.9593 28.6954 11.812C28.444 11.6647 28.1667 11.591 27.8634 11.591C27.508 11.591 27.1917 11.6777 26.9144 11.851C26.637 12.0157 26.4247 12.2497 26.2774 12.553C26.0867 12.9343 25.9914 13.4587 25.9914 14.126V15.283ZM25.9654 12.033H26.0174C26.2947 11.669 26.598 11.4047 26.9274 11.24C27.2654 11.0667 27.6554 10.98 28.0974 10.98C28.5654 10.98 28.9987 11.071 29.3974 11.253C29.8047 11.435 30.1557 11.6863 30.4504 12.007C30.7537 12.3277 30.9877 12.709 31.1524 13.151C31.3257 13.5843 31.4124 14.0523 31.4124 14.555C31.4124 15.0663 31.3257 15.543 31.1524 15.985C30.979 16.4183 30.7407 16.7953 30.4374 17.116C30.1427 17.4367 29.7917 17.688 29.3844 17.87C28.977 18.052 28.535 18.143 28.0584 18.143C27.5644 18.143 27.1007 18.052 26.6674 17.87C26.2427 17.688 25.8917 17.441 25.6144 17.129L25.0034 18H24.7174V10.148C24.7174 9.27267 24.661 8.71367 24.5484 8.471C24.5224 8.41033 24.492 8.36267 24.4574 8.328C24.4227 8.28467 24.3707 8.25 24.3014 8.224C24.232 8.18933 24.1367 8.159 24.0154 8.133C23.894 8.107 23.7294 8.081 23.5214 8.055V7.73L25.9654 7.21V12.033ZM33.5582 18H33.2722V15.764H33.5972C33.9352 16.986 34.5506 17.597 35.4432 17.597C35.7899 17.597 36.0629 17.5147 36.2622 17.35C36.4702 17.1767 36.5742 16.9167 36.5742 16.57C36.5742 16.44 36.5526 16.3317 36.5092 16.245C36.4746 16.1497 36.4009 16.0543 36.2882 15.959C36.1842 15.855 36.0326 15.738 35.8332 15.608C35.6426 15.478 35.3869 15.3133 35.0662 15.114C34.7716 14.932 34.5159 14.763 34.2992 14.607C34.0826 14.451 33.9006 14.295 33.7532 14.139C33.6059 13.9743 33.4932 13.801 33.4152 13.619C33.3459 13.437 33.3112 13.2247 33.3112 12.982C33.3112 12.6873 33.3589 12.4187 33.4542 12.176C33.5582 11.9247 33.6969 11.7123 33.8702 11.539C34.0436 11.3657 34.2472 11.2313 34.4812 11.136C34.7152 11.032 34.9709 10.98 35.2482 10.98C35.4822 10.98 35.7249 11.019 35.9762 11.097C36.2276 11.1663 36.4486 11.2617 36.6392 11.383L36.8992 11.11H37.1462V12.982H36.8082C36.6176 12.4533 36.4096 12.0763 36.1842 11.851C35.9589 11.6257 35.6816 11.513 35.3522 11.513C35.0576 11.513 34.8192 11.591 34.6372 11.747C34.4639 11.903 34.3772 12.1197 34.3772 12.397C34.3772 12.5443 34.3989 12.6743 34.4422 12.787C34.4942 12.891 34.5722 12.995 34.6762 13.099C34.7802 13.203 34.9102 13.3113 35.0662 13.424C35.2309 13.528 35.4259 13.6493 35.6512 13.788C36.0239 14.022 36.3402 14.23 36.6002 14.412C36.8689 14.594 37.0856 14.776 37.2502 14.958C37.4149 15.1313 37.5362 15.3133 37.6142 15.504C37.6922 15.6947 37.7312 15.9113 37.7312 16.154C37.7312 16.7693 37.5319 17.2547 37.1332 17.61C36.7346 17.9567 36.2102 18.13 35.5602 18.13C34.8842 18.13 34.3036 17.935 33.8182 17.545L33.5582 18ZM41.7076 15.933C41.7076 16.271 41.7206 16.544 41.7466 16.752C41.7812 16.9513 41.8419 17.1117 41.9286 17.233C42.0152 17.3457 42.1366 17.4237 42.2926 17.467C42.4486 17.5103 42.6566 17.5363 42.9166 17.545V18H39.1856V17.545C39.4456 17.5363 39.6579 17.5103 39.8226 17.467C39.9872 17.415 40.1129 17.337 40.1996 17.233C40.2949 17.1203 40.3556 16.9687 40.3816 16.778C40.4162 16.5787 40.4336 16.3273 40.4336 16.024V14.36C40.4336 13.8573 40.4249 13.4457 40.4076 13.125C40.3989 12.7957 40.3772 12.5703 40.3426 12.449C40.2992 12.2497 40.1996 12.1153 40.0436 12.046C39.8876 11.968 39.5929 11.929 39.1596 11.929V11.474L41.7076 10.98V15.933ZM40.2126 8.341C40.2126 8.11567 40.2906 7.925 40.4466 7.769C40.6026 7.613 40.7932 7.535 41.0186 7.535C41.2439 7.535 41.4346 7.613 41.5906 7.769C41.7466 7.925 41.8246 8.11567 41.8246 8.341C41.8246 8.56633 41.7466 8.757 41.5906 8.913C41.4346 9.069 41.2439 9.147 41.0186 9.147C40.7932 9.147 40.6026 9.069 40.4466 8.913C40.2906 8.757 40.2126 8.56633 40.2126 8.341ZM44.0942 11.929V11.448C44.5536 11.1793 44.9132 10.9107 45.1732 10.642C45.4332 10.3733 45.6326 10.0527 45.7712 9.68H46.1482V11.318H47.8902V11.929H46.1482V15.881C46.1482 16.1843 46.1612 16.44 46.1872 16.648C46.2219 16.856 46.2739 17.025 46.3432 17.155C46.4126 17.2763 46.5036 17.363 46.6162 17.415C46.7289 17.467 46.8719 17.493 47.0452 17.493C47.2619 17.493 47.4439 17.4497 47.5912 17.363C47.7472 17.2677 47.8989 17.1117 48.0462 16.895L48.3712 17.142C48.2499 17.4627 48.0376 17.7097 47.7342 17.883C47.4396 18.0477 47.0712 18.13 46.6292 18.13C46.0572 18.13 45.6196 17.9957 45.3162 17.727C45.0216 17.4497 44.8742 17.0553 44.8742 16.544V11.929H44.0942ZM55.6733 16.791C54.9366 17.6837 54.0223 18.13 52.9303 18.13C52.419 18.13 51.9553 18.0477 51.5393 17.883C51.1233 17.7097 50.7636 17.4713 50.4603 17.168C50.1656 16.856 49.936 16.4877 49.7713 16.063C49.6066 15.6297 49.5243 15.153 49.5243 14.633C49.5243 14.1043 49.611 13.6147 49.7843 13.164C49.9576 12.7133 50.2003 12.3277 50.5123 12.007C50.833 11.6863 51.21 11.435 51.6433 11.253C52.0853 11.071 52.5663 10.98 53.0863 10.98C53.927 10.98 54.577 11.2097 55.0363 11.669C55.4956 12.1197 55.7253 12.7697 55.7253 13.619C55.7253 13.7403 55.6993 13.814 55.6473 13.84C55.604 13.866 55.4956 13.879 55.3223 13.879H51.0453C51.028 13.9483 51.015 14.035 51.0063 14.139C50.9976 14.2343 50.9933 14.3427 50.9933 14.464C50.9933 14.9147 51.0453 15.3263 51.1493 15.699C51.262 16.063 51.418 16.375 51.6173 16.635C51.8253 16.895 52.068 17.0987 52.3453 17.246C52.6313 17.3847 52.9476 17.454 53.2943 17.454C53.6583 17.454 53.9963 17.376 54.3083 17.22C54.6203 17.0553 54.941 16.791 55.2703 16.427L55.6733 16.791ZM53.5283 13.281C53.7016 13.281 53.8403 13.2767 53.9443 13.268C54.0483 13.2593 54.1263 13.242 54.1783 13.216C54.2303 13.19 54.265 13.1553 54.2823 13.112C54.2996 13.06 54.3083 12.995 54.3083 12.917C54.3083 12.5183 54.1783 12.202 53.9183 11.968C53.667 11.7253 53.3203 11.604 52.8783 11.604C51.9423 11.604 51.3616 12.163 51.1363 13.281H53.5283Z" fill="#6D6B67"/>
<path d="M65.3409 6.81818L61.5909 20.75H60.3636L64.1136 6.81818H65.3409Z" fill="#E0DFDC"/>
<path d="M78.64 15.354C78.64 15.8207 78.6587 16.1893 78.696 16.46C78.7333 16.7307 78.8033 16.9407 78.906 17.09C79.018 17.2393 79.172 17.3373 79.368 17.384C79.5733 17.4307 79.8393 17.4587 80.166 17.468V18H75.63V17.468C75.9567 17.4587 76.218 17.4307 76.414 17.384C76.6193 17.328 76.778 17.23 76.89 17.09C77.002 16.95 77.0767 16.754 77.114 16.502C77.1513 16.2407 77.17 15.8907 77.17 15.452V9.768C77.17 9.376 77.1513 9.054 77.114 8.802C77.086 8.54067 77.0207 8.33533 76.918 8.186C76.8247 8.03667 76.6847 7.934 76.498 7.878C76.3113 7.81267 76.0687 7.77067 75.77 7.752V7.22H80.026V7.752C79.7273 7.76133 79.4847 7.79867 79.298 7.864C79.1207 7.92933 78.9807 8.04133 78.878 8.2C78.7847 8.34933 78.7193 8.55933 78.682 8.83C78.654 9.10067 78.64 9.446 78.64 9.866V15.354ZM84.1365 15.816C84.1365 16.1707 84.1505 16.4553 84.1785 16.67C84.2065 16.8847 84.2625 17.0527 84.3465 17.174C84.4399 17.2953 84.5659 17.3793 84.7245 17.426C84.8925 17.4727 85.1119 17.5007 85.3825 17.51V18H81.5185V17.51C81.7985 17.5007 82.0225 17.4727 82.1905 17.426C82.3585 17.37 82.4892 17.286 82.5825 17.174C82.6852 17.062 82.7505 16.908 82.7785 16.712C82.8159 16.5067 82.8345 16.2407 82.8345 15.914V9.88C82.8345 9.376 82.8252 8.956 82.8065 8.62C82.7972 8.27467 82.7785 8.04133 82.7505 7.92C82.7039 7.70533 82.5919 7.56067 82.4145 7.486C82.2465 7.41133 81.9385 7.374 81.4905 7.374V6.898L84.1365 6.38V15.816ZM89.0893 15.816C89.0893 16.1707 89.1033 16.4553 89.1313 16.67C89.1593 16.8847 89.2153 17.0527 89.2993 17.174C89.3926 17.2953 89.5186 17.3793 89.6773 17.426C89.8453 17.4727 90.0646 17.5007 90.3353 17.51V18H86.4713V17.51C86.7513 17.5007 86.9753 17.4727 87.1433 17.426C87.3113 17.37 87.4419 17.286 87.5353 17.174C87.6379 17.062 87.7033 16.908 87.7313 16.712C87.7686 16.5067 87.7873 16.2407 87.7873 15.914V9.88C87.7873 9.376 87.7779 8.956 87.7593 8.62C87.7499 8.27467 87.7313 8.04133 87.7033 7.92C87.6566 7.70533 87.5446 7.56067 87.3673 7.486C87.1993 7.41133 86.8913 7.374 86.4433 7.374V6.898L89.0893 6.38V15.816ZM97.598 12.82C97.598 12.4373 97.5887 12.1387 97.57 11.924C97.5514 11.7 97.5 11.532 97.416 11.42C97.3414 11.2987 97.2247 11.2193 97.066 11.182C96.9167 11.1353 96.7067 11.098 96.436 11.07V10.58H98.97V14.878C98.97 15.41 98.9747 15.844 98.984 16.18C99.0027 16.516 99.026 16.768 99.054 16.936C99.0727 17.0573 99.1007 17.1553 99.138 17.23C99.1847 17.2953 99.25 17.3513 99.334 17.398C99.418 17.4353 99.5253 17.4633 99.656 17.482C99.796 17.4913 99.9733 17.496 100.188 17.496V17.986L97.878 18.154L97.724 16.474H97.668C97.3133 17.0527 96.9027 17.4773 96.436 17.748C95.9787 18.0093 95.498 18.14 94.994 18.14C94.602 18.14 94.2193 18.0653 93.846 17.916C93.482 17.7667 93.2067 17.566 93.02 17.314C92.8613 17.1087 92.7447 16.824 92.67 16.46C92.6047 16.096 92.572 15.6247 92.572 15.046V12.82C92.572 12.4373 92.5627 12.1387 92.544 11.924C92.5253 11.7 92.474 11.532 92.39 11.42C92.3153 11.2987 92.1987 11.2193 92.04 11.182C91.8907 11.1353 91.6807 11.098 91.41 11.07V10.58H93.944V14.402C93.944 15.4193 94.0607 16.1567 94.294 16.614C94.5367 17.0713 94.9193 17.3 95.442 17.3C96.2633 17.3 96.9027 16.7633 97.36 15.69C97.4067 15.578 97.444 15.4753 97.472 15.382C97.5 15.2887 97.5233 15.186 97.542 15.074C97.5607 14.962 97.5747 14.836 97.584 14.696C97.5934 14.556 97.598 14.388 97.598 14.192V12.82ZM102.099 18H101.791V15.592H102.141C102.505 16.908 103.168 17.566 104.129 17.566C104.502 17.566 104.796 17.4773 105.011 17.3C105.235 17.1133 105.347 16.8333 105.347 16.46C105.347 16.32 105.324 16.2033 105.277 16.11C105.24 16.0073 105.16 15.9047 105.039 15.802C104.927 15.69 104.764 15.564 104.549 15.424C104.344 15.284 104.068 15.1067 103.723 14.892C103.406 14.696 103.13 14.514 102.897 14.346C102.664 14.178 102.468 14.01 102.309 13.842C102.15 13.6647 102.029 13.478 101.945 13.282C101.87 13.086 101.833 12.8573 101.833 12.596C101.833 12.2787 101.884 11.9893 101.987 11.728C102.099 11.4573 102.248 11.2287 102.435 11.042C102.622 10.8553 102.841 10.7107 103.093 10.608C103.345 10.496 103.62 10.44 103.919 10.44C104.171 10.44 104.432 10.482 104.703 10.566C104.974 10.6407 105.212 10.7433 105.417 10.874L105.697 10.58H105.963V12.596H105.599C105.394 12.0267 105.17 11.6207 104.927 11.378C104.684 11.1353 104.386 11.014 104.031 11.014C103.714 11.014 103.457 11.098 103.261 11.266C103.074 11.434 102.981 11.6673 102.981 11.966C102.981 12.1247 103.004 12.2647 103.051 12.386C103.107 12.498 103.191 12.61 103.303 12.722C103.415 12.834 103.555 12.9507 103.723 13.072C103.9 13.184 104.11 13.3147 104.353 13.464C104.754 13.716 105.095 13.94 105.375 14.136C105.664 14.332 105.898 14.528 106.075 14.724C106.252 14.9107 106.383 15.1067 106.467 15.312C106.551 15.5173 106.593 15.7507 106.593 16.012C106.593 16.6747 106.378 17.1973 105.949 17.58C105.52 17.9533 104.955 18.14 104.255 18.14C103.527 18.14 102.902 17.93 102.379 17.51L102.099 18ZM108.212 11.462V10.944C108.707 10.6547 109.094 10.3653 109.374 10.076C109.654 9.78667 109.869 9.44133 110.018 9.04H110.424V10.804H112.3V11.462H110.424V15.718C110.424 16.0447 110.438 16.32 110.466 16.544C110.504 16.768 110.56 16.95 110.634 17.09C110.709 17.2207 110.807 17.314 110.928 17.37C111.05 17.426 111.204 17.454 111.39 17.454C111.624 17.454 111.82 17.4073 111.978 17.314C112.146 17.2113 112.31 17.0433 112.468 16.81L112.818 17.076C112.688 17.4213 112.459 17.6873 112.132 17.874C111.815 18.0513 111.418 18.14 110.942 18.14C110.326 18.14 109.855 17.9953 109.528 17.706C109.211 17.4073 109.052 16.9827 109.052 16.432V11.462H108.212ZM116.451 15.774C116.451 16.1567 116.461 16.46 116.479 16.684C116.498 16.908 116.545 17.0807 116.619 17.202C116.703 17.314 116.82 17.3887 116.969 17.426C117.119 17.4633 117.329 17.4913 117.599 17.51V18H113.875V17.51C114.146 17.5007 114.361 17.4773 114.519 17.44C114.678 17.3933 114.799 17.314 114.883 17.202C114.967 17.09 115.019 16.9313 115.037 16.726C115.065 16.5113 115.079 16.2267 115.079 15.872V14.234C115.079 13.5993 115.07 13.1047 115.051 12.75C115.042 12.3953 114.995 12.134 114.911 11.966C114.837 11.798 114.715 11.7 114.547 11.672C114.379 11.6347 114.146 11.616 113.847 11.616V11.126L116.297 10.594L116.493 12.33H116.549C116.671 12.05 116.82 11.7933 116.997 11.56C117.184 11.3267 117.385 11.1307 117.599 10.972C117.814 10.804 118.038 10.6733 118.271 10.58C118.505 10.4867 118.743 10.44 118.985 10.44C119.284 10.44 119.517 10.5147 119.685 10.664C119.863 10.804 119.951 10.9953 119.951 11.238C119.951 11.462 119.881 11.6393 119.741 11.77C119.601 11.8913 119.401 11.952 119.139 11.952C118.99 11.952 118.864 11.9333 118.761 11.896C118.659 11.8587 118.565 11.8213 118.481 11.784C118.407 11.7373 118.332 11.6953 118.257 11.658C118.192 11.6207 118.117 11.602 118.033 11.602C117.781 11.602 117.529 11.7653 117.277 12.092C117.025 12.4093 116.829 12.8153 116.689 13.31C116.615 13.5807 116.554 13.8887 116.507 14.234C116.47 14.57 116.451 14.9247 116.451 15.298V15.774ZM125.301 13.856C124.769 14.0613 124.317 14.262 123.943 14.458C123.579 14.654 123.285 14.85 123.061 15.046C122.837 15.242 122.674 15.438 122.571 15.634C122.478 15.83 122.431 16.0307 122.431 16.236C122.431 16.544 122.534 16.796 122.739 16.992C122.945 17.188 123.215 17.286 123.551 17.286C123.794 17.286 124.018 17.2253 124.223 17.104C124.438 16.9827 124.625 16.8193 124.783 16.614C124.942 16.3993 125.068 16.152 125.161 15.872C125.255 15.5827 125.301 15.2793 125.301 14.962V13.856ZM125.301 13.254V12.68C125.301 11.5413 124.816 10.972 123.845 10.972C123.687 10.972 123.551 10.986 123.439 11.014C123.327 11.042 123.234 11.0887 123.159 11.154C123.085 11.2193 123.015 11.3127 122.949 11.434C122.893 11.5553 122.837 11.7047 122.781 11.882C122.679 12.1527 122.576 12.3347 122.473 12.428C122.38 12.512 122.24 12.554 122.053 12.554C121.587 12.554 121.353 12.3207 121.353 11.854C121.353 11.406 121.591 11.0607 122.067 10.818C122.543 10.566 123.22 10.44 124.097 10.44C125.031 10.44 125.693 10.608 126.085 10.944C126.477 11.2707 126.673 11.8307 126.673 12.624V15.76C126.673 16.824 126.883 17.356 127.303 17.356C127.434 17.356 127.56 17.342 127.681 17.314C127.803 17.2767 127.905 17.188 127.989 17.048L128.185 17.384C128.073 17.5987 127.868 17.7807 127.569 17.93C127.271 18.07 126.958 18.14 126.631 18.14C126.221 18.14 125.913 18.0093 125.707 17.748C125.511 17.4867 125.413 17.118 125.413 16.642H125.343C125.101 17.0993 124.765 17.4633 124.335 17.734C123.906 17.9953 123.43 18.126 122.907 18.126C122.319 18.126 121.857 17.9767 121.521 17.678C121.185 17.3793 121.017 16.978 121.017 16.474C121.017 16.25 121.055 16.0353 121.129 15.83C121.213 15.6247 121.344 15.4287 121.521 15.242C121.699 15.0553 121.932 14.8733 122.221 14.696C122.511 14.5093 122.865 14.3227 123.285 14.136L125.301 13.254ZM129.127 11.462V10.944C129.622 10.6547 130.009 10.3653 130.289 10.076C130.569 9.78667 130.784 9.44133 130.933 9.04H131.339V10.804H133.215V11.462H131.339V15.718C131.339 16.0447 131.353 16.32 131.381 16.544C131.419 16.768 131.475 16.95 131.549 17.09C131.624 17.2207 131.722 17.314 131.843 17.37C131.965 17.426 132.119 17.454 132.305 17.454C132.539 17.454 132.735 17.4073 132.893 17.314C133.061 17.2113 133.225 17.0433 133.383 16.81L133.733 17.076C133.603 17.4213 133.374 17.6873 133.047 17.874C132.73 18.0513 132.333 18.14 131.857 18.14C131.241 18.14 130.77 17.9953 130.443 17.706C130.126 17.4073 129.967 16.9827 129.967 16.432V11.462H129.127ZM137.45 15.774C137.45 16.138 137.464 16.432 137.492 16.656C137.53 16.8707 137.595 17.0433 137.688 17.174C137.782 17.2953 137.912 17.3793 138.08 17.426C138.248 17.4727 138.472 17.5007 138.752 17.51V18H134.734V17.51C135.014 17.5007 135.243 17.4727 135.42 17.426C135.598 17.37 135.733 17.286 135.826 17.174C135.929 17.0527 135.994 16.8893 136.022 16.684C136.06 16.4693 136.078 16.1987 136.078 15.872V14.08C136.078 13.5387 136.069 13.0953 136.05 12.75C136.041 12.3953 136.018 12.1527 135.98 12.022C135.934 11.8073 135.826 11.6627 135.658 11.588C135.49 11.504 135.173 11.462 134.706 11.462V10.972L137.45 10.44V15.774ZM135.84 7.598C135.84 7.35533 135.924 7.15 136.092 6.982C136.26 6.814 136.466 6.73 136.708 6.73C136.951 6.73 137.156 6.814 137.324 6.982C137.492 7.15 137.576 7.35533 137.576 7.598C137.576 7.84067 137.492 8.046 137.324 8.214C137.156 8.382 136.951 8.466 136.708 8.466C136.466 8.466 136.26 8.382 136.092 8.214C135.924 8.046 135.84 7.84067 135.84 7.598ZM143.98 10.44C144.512 10.44 145.016 10.538 145.492 10.734C145.968 10.9207 146.383 11.182 146.738 11.518C147.102 11.854 147.386 12.2553 147.592 12.722C147.806 13.1793 147.914 13.6833 147.914 14.234C147.914 14.8033 147.806 15.326 147.592 15.802C147.386 16.278 147.102 16.6887 146.738 17.034C146.383 17.3793 145.968 17.65 145.492 17.846C145.016 18.042 144.512 18.14 143.98 18.14C143.457 18.14 142.958 18.0467 142.482 17.86C142.015 17.664 141.604 17.3933 141.25 17.048C140.895 16.7027 140.615 16.292 140.41 15.816C140.204 15.3307 140.102 14.8033 140.102 14.234C140.102 13.6833 140.204 13.1747 140.41 12.708C140.615 12.2413 140.895 11.84 141.25 11.504C141.604 11.168 142.015 10.9067 142.482 10.72C142.958 10.5333 143.457 10.44 143.98 10.44ZM143.98 11.112C143.634 11.112 143.317 11.1867 143.028 11.336C142.748 11.4853 142.505 11.7 142.3 11.98C142.104 12.2507 141.95 12.582 141.838 12.974C141.735 13.3567 141.684 13.7813 141.684 14.248C141.684 14.7333 141.735 15.172 141.838 15.564C141.95 15.956 142.104 16.292 142.3 16.572C142.505 16.8427 142.748 17.0527 143.028 17.202C143.308 17.3513 143.625 17.426 143.98 17.426C144.334 17.426 144.656 17.3513 144.946 17.202C145.235 17.0527 145.482 16.838 145.688 16.558C145.893 16.278 146.052 15.942 146.164 15.55C146.276 15.158 146.332 14.724 146.332 14.248C146.332 13.7813 146.276 13.3567 146.164 12.974C146.052 12.5913 145.893 12.2647 145.688 11.994C145.482 11.714 145.235 11.4993 144.946 11.35C144.656 11.1913 144.334 11.112 143.98 11.112ZM152.014 15.802C152.014 16.1847 152.023 16.488 152.042 16.712C152.061 16.9267 152.107 17.0947 152.182 17.216C152.266 17.328 152.383 17.4027 152.532 17.44C152.691 17.4773 152.905 17.5053 153.176 17.524V18H149.508V17.524C149.769 17.5053 149.975 17.4773 150.124 17.44C150.283 17.4027 150.404 17.328 150.488 17.216C150.572 17.104 150.623 16.9453 150.642 16.74C150.67 16.5347 150.684 16.2547 150.684 15.9V14.038C150.684 12.9273 150.656 12.2507 150.6 12.008C150.572 11.8867 150.535 11.7887 150.488 11.714C150.451 11.63 150.39 11.5693 150.306 11.532C150.222 11.4853 150.115 11.4573 149.984 11.448C149.853 11.4293 149.685 11.42 149.48 11.42V10.972L151.72 10.44L151.888 11.826H151.944C152.299 11.3873 152.714 11.0467 153.19 10.804C153.666 10.5613 154.184 10.44 154.744 10.44C155.173 10.44 155.565 10.51 155.92 10.65C156.275 10.79 156.545 10.9813 156.732 11.224C156.891 11.4387 157.003 11.7187 157.068 12.064C157.133 12.4 157.166 12.8667 157.166 13.464V15.802C157.166 16.1847 157.175 16.488 157.194 16.712C157.222 16.9267 157.273 17.0947 157.348 17.216C157.423 17.328 157.535 17.4027 157.684 17.44C157.843 17.4773 158.048 17.5053 158.3 17.524V18H154.674V17.524C154.935 17.5147 155.141 17.4913 155.29 17.454C155.449 17.4073 155.565 17.328 155.64 17.216C155.724 17.104 155.775 16.9453 155.794 16.74C155.822 16.5253 155.836 16.2453 155.836 15.9V14.052C155.836 13.52 155.808 13.072 155.752 12.708C155.696 12.344 155.603 12.05 155.472 11.826C155.351 11.602 155.187 11.4433 154.982 11.35C154.777 11.2473 154.529 11.196 154.24 11.196C153.82 11.196 153.433 11.308 153.078 11.532C152.733 11.7467 152.462 12.0453 152.266 12.428C152.219 12.5213 152.177 12.61 152.14 12.694C152.112 12.778 152.089 12.876 152.07 12.988C152.051 13.1 152.037 13.2307 152.028 13.38C152.019 13.52 152.014 13.702 152.014 13.926V15.802Z" fill="#6D6B67"/>
<path d="M169.341 6.81818L165.591 20.75H164.364L168.114 6.81818H169.341Z" fill="#E0DFDC"/>
<path d="M185.832 14.094H182.094C181.935 14.4767 181.8 14.8173 181.688 15.116C181.576 15.4053 181.483 15.6573 181.408 15.872C181.343 16.0867 181.296 16.2687 181.268 16.418C181.24 16.5673 181.226 16.6887 181.226 16.782C181.226 17.0433 181.31 17.2253 181.478 17.328C181.646 17.4213 181.926 17.468 182.318 17.468V18H178.916V17.468C179.131 17.44 179.313 17.4027 179.462 17.356C179.621 17.3093 179.756 17.244 179.868 17.16C179.989 17.076 180.092 16.9687 180.176 16.838C180.269 16.698 180.358 16.53 180.442 16.334L184.082 7.22H184.684L187.862 15.116C188.077 15.6387 188.263 16.0587 188.422 16.376C188.581 16.684 188.735 16.9173 188.884 17.076C189.033 17.2347 189.192 17.3373 189.36 17.384C189.537 17.4307 189.747 17.454 189.99 17.454V18H185.426V17.454C185.921 17.454 186.261 17.4073 186.448 17.314C186.635 17.2207 186.728 17.0667 186.728 16.852C186.728 16.7587 186.723 16.6747 186.714 16.6C186.705 16.516 186.686 16.4273 186.658 16.334C186.639 16.2407 186.607 16.138 186.56 16.026C186.523 15.9047 186.471 15.7647 186.406 15.606L185.832 14.094ZM182.374 13.394H185.566L184.012 9.264L182.374 13.394ZM193.322 15.774C193.322 16.1567 193.332 16.46 193.35 16.684C193.369 16.908 193.416 17.0807 193.49 17.202C193.574 17.314 193.691 17.3887 193.84 17.426C193.99 17.4633 194.2 17.4913 194.47 17.51V18H190.746V17.51C191.017 17.5007 191.232 17.4773 191.39 17.44C191.549 17.3933 191.67 17.314 191.754 17.202C191.838 17.09 191.89 16.9313 191.908 16.726C191.936 16.5113 191.95 16.2267 191.95 15.872V14.234C191.95 13.5993 191.941 13.1047 191.922 12.75C191.913 12.3953 191.866 12.134 191.782 11.966C191.708 11.798 191.586 11.7 191.418 11.672C191.25 11.6347 191.017 11.616 190.718 11.616V11.126L193.168 10.594L193.364 12.33H193.42C193.542 12.05 193.691 11.7933 193.868 11.56C194.055 11.3267 194.256 11.1307 194.47 10.972C194.685 10.804 194.909 10.6733 195.142 10.58C195.376 10.4867 195.614 10.44 195.856 10.44C196.155 10.44 196.388 10.5147 196.556 10.664C196.734 10.804 196.822 10.9953 196.822 11.238C196.822 11.462 196.752 11.6393 196.612 11.77C196.472 11.8913 196.272 11.952 196.01 11.952C195.861 11.952 195.735 11.9333 195.632 11.896C195.53 11.8587 195.436 11.8213 195.352 11.784C195.278 11.7373 195.203 11.6953 195.128 11.658C195.063 11.6207 194.988 11.602 194.904 11.602C194.652 11.602 194.4 11.7653 194.148 12.092C193.896 12.4093 193.7 12.8153 193.56 13.31C193.486 13.5807 193.425 13.8887 193.378 14.234C193.341 14.57 193.322 14.9247 193.322 15.298V15.774ZM197.846 11.462V10.944C198.341 10.6547 198.728 10.3653 199.008 10.076C199.288 9.78667 199.503 9.44133 199.652 9.04H200.058V10.804H201.934V11.462H200.058V15.718C200.058 16.0447 200.072 16.32 200.1 16.544C200.138 16.768 200.194 16.95 200.268 17.09C200.343 17.2207 200.441 17.314 200.562 17.37C200.684 17.426 200.838 17.454 201.024 17.454C201.258 17.454 201.454 17.4073 201.612 17.314C201.78 17.2113 201.944 17.0433 202.102 16.81L202.452 17.076C202.322 17.4213 202.093 17.6873 201.766 17.874C201.449 18.0513 201.052 18.14 200.576 18.14C199.96 18.14 199.489 17.9953 199.162 17.706C198.845 17.4073 198.686 16.9827 198.686 16.432V11.462H197.846ZM207.929 18V17.468C208.284 17.4587 208.568 17.4353 208.783 17.398C209.007 17.3513 209.18 17.272 209.301 17.16C209.422 17.0387 209.502 16.88 209.539 16.684C209.586 16.4787 209.609 16.208 209.609 15.872V9.348C209.609 9.02133 209.59 8.76 209.553 8.564C209.525 8.35867 209.46 8.2 209.357 8.088C209.264 7.96667 209.124 7.88733 208.937 7.85C208.75 7.80333 208.508 7.77067 208.209 7.752V7.22H213.123C213.963 7.22 214.738 7.36 215.447 7.64C216.166 7.92 216.782 8.30733 217.295 8.802C217.818 9.29667 218.224 9.88467 218.513 10.566C218.802 11.2473 218.947 11.9893 218.947 12.792C218.947 13.5573 218.812 14.262 218.541 14.906C218.27 15.5407 217.888 16.0867 217.393 16.544C216.908 17.0013 216.324 17.3607 215.643 17.622C214.962 17.874 214.215 18 213.403 18H207.929ZM211.317 7.906C211.158 7.906 211.079 7.98533 211.079 8.144V15.718C211.079 16.782 211.774 17.314 213.165 17.314C214.444 17.314 215.424 16.936 216.105 16.18C216.786 15.4147 217.127 14.2947 217.127 12.82C217.127 12.0453 217.034 11.3547 216.847 10.748C216.66 10.1413 216.39 9.628 216.035 9.208C215.69 8.788 215.27 8.466 214.775 8.242C214.28 8.018 213.72 7.906 213.095 7.906H211.317ZM223.362 15.774C223.362 16.138 223.376 16.432 223.404 16.656C223.441 16.8707 223.507 17.0433 223.6 17.174C223.693 17.2953 223.824 17.3793 223.992 17.426C224.16 17.4727 224.384 17.5007 224.664 17.51V18H220.646V17.51C220.926 17.5007 221.155 17.4727 221.332 17.426C221.509 17.37 221.645 17.286 221.738 17.174C221.841 17.0527 221.906 16.8893 221.934 16.684C221.971 16.4693 221.99 16.1987 221.99 15.872V14.08C221.99 13.5387 221.981 13.0953 221.962 12.75C221.953 12.3953 221.929 12.1527 221.892 12.022C221.845 11.8073 221.738 11.6627 221.57 11.588C221.402 11.504 221.085 11.462 220.618 11.462V10.972L223.362 10.44V15.774ZM221.752 7.598C221.752 7.35533 221.836 7.15 222.004 6.982C222.172 6.814 222.377 6.73 222.62 6.73C222.863 6.73 223.068 6.814 223.236 6.982C223.404 7.15 223.488 7.35533 223.488 7.598C223.488 7.84067 223.404 8.046 223.236 8.214C223.068 8.382 222.863 8.466 222.62 8.466C222.377 8.466 222.172 8.382 222.004 8.214C221.836 8.046 221.752 7.84067 221.752 7.598ZM228.449 15.774C228.449 16.1567 228.459 16.46 228.477 16.684C228.496 16.908 228.543 17.0807 228.617 17.202C228.701 17.314 228.818 17.3887 228.967 17.426C229.117 17.4633 229.327 17.4913 229.597 17.51V18H225.873V17.51C226.144 17.5007 226.359 17.4773 226.517 17.44C226.676 17.3933 226.797 17.314 226.881 17.202C226.965 17.09 227.017 16.9313 227.035 16.726C227.063 16.5113 227.077 16.2267 227.077 15.872V14.234C227.077 13.5993 227.068 13.1047 227.049 12.75C227.04 12.3953 226.993 12.134 226.909 11.966C226.835 11.798 226.713 11.7 226.545 11.672C226.377 11.6347 226.144 11.616 225.845 11.616V11.126L228.295 10.594L228.491 12.33H228.547C228.669 12.05 228.818 11.7933 228.995 11.56C229.182 11.3267 229.383 11.1307 229.597 10.972C229.812 10.804 230.036 10.6733 230.269 10.58C230.503 10.4867 230.741 10.44 230.983 10.44C231.282 10.44 231.515 10.5147 231.683 10.664C231.861 10.804 231.949 10.9953 231.949 11.238C231.949 11.462 231.879 11.6393 231.739 11.77C231.599 11.8913 231.399 11.952 231.137 11.952C230.988 11.952 230.862 11.9333 230.759 11.896C230.657 11.8587 230.563 11.8213 230.479 11.784C230.405 11.7373 230.33 11.6953 230.255 11.658C230.19 11.6207 230.115 11.602 230.031 11.602C229.779 11.602 229.527 11.7653 229.275 12.092C229.023 12.4093 228.827 12.8153 228.687 13.31C228.613 13.5807 228.552 13.8887 228.505 14.234C228.468 14.57 228.449 14.9247 228.449 15.298V15.774ZM239.571 16.698C238.778 17.6593 237.793 18.14 236.617 18.14C236.066 18.14 235.567 18.0513 235.119 17.874C234.671 17.6873 234.284 17.4307 233.957 17.104C233.64 16.768 233.392 16.3713 233.215 15.914C233.038 15.4473 232.949 14.934 232.949 14.374C232.949 13.8047 233.042 13.2773 233.229 12.792C233.416 12.3067 233.677 11.8913 234.013 11.546C234.358 11.2007 234.764 10.93 235.231 10.734C235.707 10.538 236.225 10.44 236.785 10.44C237.69 10.44 238.39 10.6873 238.885 11.182C239.38 11.6673 239.627 12.3673 239.627 13.282C239.627 13.4127 239.599 13.492 239.543 13.52C239.496 13.548 239.38 13.562 239.193 13.562H234.587C234.568 13.6367 234.554 13.73 234.545 13.842C234.536 13.9447 234.531 14.0613 234.531 14.192C234.531 14.6773 234.587 15.1207 234.699 15.522C234.82 15.914 234.988 16.25 235.203 16.53C235.427 16.81 235.688 17.0293 235.987 17.188C236.295 17.3373 236.636 17.412 237.009 17.412C237.401 17.412 237.765 17.328 238.101 17.16C238.437 16.9827 238.782 16.698 239.137 16.306L239.571 16.698ZM237.261 12.918C237.448 12.918 237.597 12.9133 237.709 12.904C237.821 12.8947 237.905 12.876 237.961 12.848C238.017 12.82 238.054 12.7827 238.073 12.736C238.092 12.68 238.101 12.61 238.101 12.526C238.101 12.0967 237.961 11.756 237.681 11.504C237.41 11.2427 237.037 11.112 236.561 11.112C235.553 11.112 234.928 11.714 234.685 12.918H237.261ZM247.772 16.838C247.436 17.2487 247.002 17.5707 246.47 17.804C245.938 18.028 245.364 18.14 244.748 18.14C244.254 18.14 243.796 18.0513 243.376 17.874C242.966 17.6873 242.611 17.4307 242.312 17.104C242.014 16.768 241.78 16.3667 241.612 15.9C241.454 15.4333 241.374 14.9153 241.374 14.346C241.374 13.7487 241.468 13.212 241.654 12.736C241.841 12.2507 242.102 11.84 242.438 11.504C242.784 11.1587 243.194 10.8973 243.67 10.72C244.156 10.5333 244.688 10.44 245.266 10.44C245.63 10.44 245.962 10.4727 246.26 10.538C246.559 10.594 246.816 10.678 247.03 10.79C247.254 10.8927 247.427 11.0233 247.548 11.182C247.67 11.3313 247.73 11.4947 247.73 11.672C247.73 11.8587 247.67 12.0033 247.548 12.106C247.427 12.2087 247.259 12.26 247.044 12.26C246.876 12.26 246.736 12.2273 246.624 12.162C246.512 12.0873 246.368 11.9287 246.19 11.686C246.004 11.4713 245.822 11.322 245.644 11.238C245.476 11.1447 245.257 11.098 244.986 11.098C244.324 11.098 243.82 11.3547 243.474 11.868C243.138 12.3813 242.97 13.1373 242.97 14.136C242.97 15.2093 243.157 16.026 243.53 16.586C243.913 17.1367 244.468 17.412 245.196 17.412C245.588 17.412 245.957 17.3373 246.302 17.188C246.648 17.0293 246.998 16.7773 247.352 16.432L247.772 16.838ZM249.154 11.462V10.944C249.649 10.6547 250.036 10.3653 250.316 10.076C250.596 9.78667 250.811 9.44133 250.96 9.04H251.366V10.804H253.242V11.462H251.366V15.718C251.366 16.0447 251.38 16.32 251.408 16.544C251.445 16.768 251.501 16.95 251.576 17.09C251.651 17.2207 251.749 17.314 251.87 17.37C251.991 17.426 252.145 17.454 252.332 17.454C252.565 17.454 252.761 17.4073 252.92 17.314C253.088 17.2113 253.251 17.0433 253.41 16.81L253.76 17.076C253.629 17.4213 253.401 17.6873 253.074 17.874C252.757 18.0513 252.36 18.14 251.884 18.14C251.268 18.14 250.797 17.9953 250.47 17.706C250.153 17.4073 249.994 16.9827 249.994 16.432V11.462H249.154ZM257.477 15.774C257.477 16.138 257.491 16.432 257.519 16.656C257.556 16.8707 257.622 17.0433 257.715 17.174C257.808 17.2953 257.939 17.3793 258.107 17.426C258.275 17.4727 258.499 17.5007 258.779 17.51V18H254.761V17.51C255.041 17.5007 255.27 17.4727 255.447 17.426C255.624 17.37 255.76 17.286 255.853 17.174C255.956 17.0527 256.021 16.8893 256.049 16.684C256.086 16.4693 256.105 16.1987 256.105 15.872V14.08C256.105 13.5387 256.096 13.0953 256.077 12.75C256.068 12.3953 256.044 12.1527 256.007 12.022C255.96 11.8073 255.853 11.6627 255.685 11.588C255.517 11.504 255.2 11.462 254.733 11.462V10.972L257.477 10.44V15.774ZM255.867 7.598C255.867 7.35533 255.951 7.15 256.119 6.982C256.287 6.814 256.492 6.73 256.735 6.73C256.978 6.73 257.183 6.814 257.351 6.982C257.519 7.15 257.603 7.35533 257.603 7.598C257.603 7.84067 257.519 8.046 257.351 8.214C257.183 8.382 256.978 8.466 256.735 8.466C256.492 8.466 256.287 8.382 256.119 8.214C255.951 8.046 255.867 7.84067 255.867 7.598ZM264.007 10.44C264.539 10.44 265.043 10.538 265.519 10.734C265.995 10.9207 266.41 11.182 266.765 11.518C267.129 11.854 267.413 12.2553 267.619 12.722C267.833 13.1793 267.941 13.6833 267.941 14.234C267.941 14.8033 267.833 15.326 267.619 15.802C267.413 16.278 267.129 16.6887 266.765 17.034C266.41 17.3793 265.995 17.65 265.519 17.846C265.043 18.042 264.539 18.14 264.007 18.14C263.484 18.14 262.985 18.0467 262.509 17.86C262.042 17.664 261.631 17.3933 261.277 17.048C260.922 16.7027 260.642 16.292 260.437 15.816C260.231 15.3307 260.129 14.8033 260.129 14.234C260.129 13.6833 260.231 13.1747 260.437 12.708C260.642 12.2413 260.922 11.84 261.277 11.504C261.631 11.168 262.042 10.9067 262.509 10.72C262.985 10.5333 263.484 10.44 264.007 10.44ZM264.007 11.112C263.661 11.112 263.344 11.1867 263.055 11.336C262.775 11.4853 262.532 11.7 262.327 11.98C262.131 12.2507 261.977 12.582 261.865 12.974C261.762 13.3567 261.711 13.7813 261.711 14.248C261.711 14.7333 261.762 15.172 261.865 15.564C261.977 15.956 262.131 16.292 262.327 16.572C262.532 16.8427 262.775 17.0527 263.055 17.202C263.335 17.3513 263.652 17.426 264.007 17.426C264.361 17.426 264.683 17.3513 264.973 17.202C265.262 17.0527 265.509 16.838 265.715 16.558C265.92 16.278 266.079 15.942 266.191 15.55C266.303 15.158 266.359 14.724 266.359 14.248C266.359 13.7813 266.303 13.3567 266.191 12.974C266.079 12.5913 265.92 12.2647 265.715 11.994C265.509 11.714 265.262 11.4993 264.973 11.35C264.683 11.1913 264.361 11.112 264.007 11.112ZM272.041 15.802C272.041 16.1847 272.05 16.488 272.069 16.712C272.087 16.9267 272.134 17.0947 272.209 17.216C272.293 17.328 272.409 17.4027 272.559 17.44C272.717 17.4773 272.932 17.5053 273.203 17.524V18H269.535V17.524C269.796 17.5053 270.001 17.4773 270.151 17.44C270.309 17.4027 270.431 17.328 270.515 17.216C270.599 17.104 270.65 16.9453 270.669 16.74C270.697 16.5347 270.711 16.2547 270.711 15.9V14.038C270.711 12.9273 270.683 12.2507 270.627 12.008C270.599 11.8867 270.561 11.7887 270.515 11.714C270.477 11.63 270.417 11.5693 270.333 11.532C270.249 11.4853 270.141 11.4573 270.011 11.448C269.88 11.4293 269.712 11.42 269.507 11.42V10.972L271.747 10.44L271.915 11.826H271.971C272.325 11.3873 272.741 11.0467 273.217 10.804C273.693 10.5613 274.211 10.44 274.771 10.44C275.2 10.44 275.592 10.51 275.947 10.65C276.301 10.79 276.572 10.9813 276.759 11.224C276.917 11.4387 277.029 11.7187 277.095 12.064C277.16 12.4 277.193 12.8667 277.193 13.464V15.802C277.193 16.1847 277.202 16.488 277.221 16.712C277.249 16.9267 277.3 17.0947 277.375 17.216C277.449 17.328 277.561 17.4027 277.711 17.44C277.869 17.4773 278.075 17.5053 278.327 17.524V18H274.701V17.524C274.962 17.5147 275.167 17.4913 275.317 17.454C275.475 17.4073 275.592 17.328 275.667 17.216C275.751 17.104 275.802 16.9453 275.821 16.74C275.849 16.5253 275.863 16.2453 275.863 15.9V14.052C275.863 13.52 275.835 13.072 275.779 12.708C275.723 12.344 275.629 12.05 275.499 11.826C275.377 11.602 275.214 11.4433 275.009 11.35C274.803 11.2473 274.556 11.196 274.267 11.196C273.847 11.196 273.459 11.308 273.105 11.532C272.759 11.7467 272.489 12.0453 272.293 12.428C272.246 12.5213 272.204 12.61 272.167 12.694C272.139 12.778 272.115 12.876 272.097 12.988C272.078 13.1 272.064 13.2307 272.055 13.38C272.045 13.52 272.041 13.702 272.041 13.926V15.802Z" fill="#6D6B67"/>
<path d="M288.341 6.81818L284.591 20.75H283.364L287.114 6.81818H288.341Z" fill="black"/>
</svg>
