<svg width="310" height="25" viewBox="0 0 310 25" fill="none" xmlns="http://www.w3.org/2000/svg">
<path d="M87.3409 5.81818L83.5909 19.75H82.3636L86.1136 5.81818H87.3409Z" fill="#E0DFDC"/>
<path d="M9.87 8.345C9.87 8.875 9.785 9.35 9.615 9.77C9.445 10.19 9.175 10.545 8.805 10.835C8.445 11.125 7.97 11.35 7.38 11.51C6.8 11.67 6.09 11.75 5.25 11.75H3.9V14.645C3.9 15.015 3.92 15.32 3.96 15.56C4.01 15.79 4.105 15.97 4.245 16.1C4.395 16.23 4.605 16.32 4.875 16.37C5.155 16.41 5.52 16.43 5.97 16.43V17H0.675V16.43C1.025 16.42 1.305 16.39 1.515 16.34C1.735 16.29 1.905 16.205 2.025 16.085C2.145 15.965 2.225 15.795 2.265 15.575C2.305 15.355 2.325 15.07 2.325 14.72V7.73C2.325 7.38 2.305 7.1 2.265 6.89C2.235 6.67 2.165 6.5 2.055 6.38C1.955 6.25 1.805 6.165 1.605 6.125C1.405 6.075 1.145 6.04 0.825 6.02V5.45H5.535C6.915 5.45 7.98 5.705 8.73 6.215C9.49 6.725 9.87 7.435 9.87 8.345ZM3.9 11H4.965C5.965 11 6.705 10.81 7.185 10.43C7.675 10.04 7.92 9.405 7.92 8.525C7.92 7.675 7.725 7.07 7.335 6.71C6.955 6.34 6.355 6.155 5.535 6.155H4.155C3.985 6.155 3.9 6.24 3.9 6.41V11ZM15.7571 12.56C15.1871 12.78 14.7021 12.995 14.3021 13.205C13.9121 13.415 13.5971 13.625 13.3571 13.835C13.1171 14.045 12.9421 14.255 12.8321 14.465C12.7321 14.675 12.6821 14.89 12.6821 15.11C12.6821 15.44 12.7921 15.71 13.0121 15.92C13.2321 16.13 13.5221 16.235 13.8821 16.235C14.1421 16.235 14.3821 16.17 14.6021 16.04C14.8321 15.91 15.0321 15.735 15.2021 15.515C15.3721 15.285 15.5071 15.02 15.6071 14.72C15.7071 14.41 15.7571 14.085 15.7571 13.745V12.56ZM15.7571 11.915V11.3C15.7571 10.08 15.2371 9.47 14.1971 9.47C14.0271 9.47 13.8821 9.485 13.7621 9.515C13.6421 9.545 13.5421 9.595 13.4621 9.665C13.3821 9.735 13.3071 9.835 13.2371 9.965C13.1771 10.095 13.1171 10.255 13.0571 10.445C12.9471 10.735 12.8371 10.93 12.7271 11.03C12.6271 11.12 12.4771 11.165 12.2771 11.165C11.7771 11.165 11.5271 10.915 11.5271 10.415C11.5271 9.935 11.7821 9.565 12.2921 9.305C12.8021 9.035 13.5271 8.9 14.4671 8.9C15.4671 8.9 16.1771 9.08 16.5971 9.44C17.0171 9.79 17.2271 10.39 17.2271 11.24V14.6C17.2271 15.74 17.4521 16.31 17.9021 16.31C18.0421 16.31 18.1771 16.295 18.3071 16.265C18.4371 16.225 18.5471 16.13 18.6371 15.98L18.8471 16.34C18.7271 16.57 18.5071 16.765 18.1871 16.925C17.8671 17.075 17.5321 17.15 17.1821 17.15C16.7421 17.15 16.4121 17.01 16.1921 16.73C15.9821 16.45 15.8771 16.055 15.8771 15.545H15.8021C15.5421 16.035 15.1821 16.425 14.7221 16.715C14.2621 16.995 13.7521 17.135 13.1921 17.135C12.5621 17.135 12.0671 16.975 11.7071 16.655C11.3471 16.335 11.1671 15.905 11.1671 15.365C11.1671 15.125 11.2071 14.895 11.2871 14.675C11.3771 14.455 11.5171 14.245 11.7071 14.045C11.8971 13.845 12.1471 13.65 12.4571 13.46C12.7671 13.26 13.1471 13.06 13.5971 12.86L15.7571 11.915ZM26.8177 15.755C26.4577 16.195 25.9927 16.54 25.4227 16.79C24.8527 17.03 24.2377 17.15 23.5777 17.15C23.0477 17.15 22.5577 17.055 22.1077 16.865C21.6677 16.665 21.2877 16.39 20.9677 16.04C20.6477 15.68 20.3977 15.25 20.2177 14.75C20.0477 14.25 19.9627 13.695 19.9627 13.085C19.9627 12.445 20.0627 11.87 20.2627 11.36C20.4627 10.84 20.7427 10.4 21.1027 10.04C21.4727 9.67 21.9127 9.39 22.4227 9.2C22.9427 9 23.5127 8.9 24.1327 8.9C24.5227 8.9 24.8777 8.935 25.1977 9.005C25.5177 9.065 25.7927 9.155 26.0227 9.275C26.2627 9.385 26.4477 9.525 26.5777 9.695C26.7077 9.855 26.7727 10.03 26.7727 10.22C26.7727 10.42 26.7077 10.575 26.5777 10.685C26.4477 10.795 26.2677 10.85 26.0377 10.85C25.8577 10.85 25.7077 10.815 25.5877 10.745C25.4677 10.665 25.3127 10.495 25.1227 10.235C24.9227 10.005 24.7277 9.845 24.5377 9.755C24.3577 9.655 24.1227 9.605 23.8327 9.605C23.1227 9.605 22.5827 9.88 22.2127 10.43C21.8527 10.98 21.6727 11.79 21.6727 12.86C21.6727 14.01 21.8727 14.885 22.2727 15.485C22.6827 16.075 23.2777 16.37 24.0577 16.37C24.4777 16.37 24.8727 16.29 25.2427 16.13C25.6127 15.96 25.9877 15.69 26.3677 15.32L26.8177 15.755ZM32.8897 16.475C33.2197 16.475 33.4447 16.46 33.5647 16.43C33.6947 16.4 33.7597 16.36 33.7597 16.31C33.7497 16.23 33.6697 16.085 33.5197 15.875C33.3697 15.665 33.1747 15.415 32.9347 15.125L31.3447 13.205L30.7897 13.73V14.615C30.7897 15.005 30.8047 15.32 30.8347 15.56C30.8747 15.79 30.9397 15.975 31.0297 16.115C31.1297 16.245 31.2697 16.335 31.4497 16.385C31.6397 16.435 31.8847 16.465 32.1847 16.475V17H27.9247V16.475C28.2247 16.465 28.4647 16.435 28.6447 16.385C28.8347 16.335 28.9797 16.245 29.0797 16.115C29.1897 15.985 29.2647 15.81 29.3047 15.59C29.3447 15.37 29.3647 15.08 29.3647 14.72V8.435C29.3647 7.675 29.3547 7.1 29.3347 6.71C29.3247 6.32 29.2747 6.055 29.1847 5.915C29.0947 5.775 28.9447 5.695 28.7347 5.675C28.5247 5.645 28.2447 5.63 27.8947 5.63V5.12L30.7897 4.55V12.785L32.1847 11.42C32.6347 10.97 32.9697 10.64 33.1897 10.43C33.4097 10.21 33.5197 10.045 33.5197 9.935C33.5197 9.825 33.4147 9.74 33.2047 9.68C32.9947 9.61 32.6947 9.575 32.3047 9.575V9.05H36.2047V9.575C36.0147 9.575 35.8497 9.585 35.7097 9.605C35.5697 9.625 35.4347 9.665 35.3047 9.725C35.1847 9.785 35.0547 9.87 34.9147 9.98C34.7747 10.08 34.6147 10.21 34.4347 10.37L32.2747 12.29L35.2447 15.65C35.3847 15.82 35.5097 15.96 35.6197 16.07C35.7397 16.17 35.8547 16.25 35.9647 16.31C36.0847 16.37 36.2097 16.415 36.3397 16.445C36.4797 16.465 36.6447 16.475 36.8347 16.475V17H32.8897V16.475ZM42.5479 12.56C41.9779 12.78 41.4929 12.995 41.0929 13.205C40.7029 13.415 40.3879 13.625 40.1479 13.835C39.9079 14.045 39.7329 14.255 39.6229 14.465C39.5229 14.675 39.4729 14.89 39.4729 15.11C39.4729 15.44 39.5829 15.71 39.8029 15.92C40.0229 16.13 40.3129 16.235 40.6729 16.235C40.9329 16.235 41.1729 16.17 41.3929 16.04C41.6229 15.91 41.8229 15.735 41.9929 15.515C42.1629 15.285 42.2979 15.02 42.3979 14.72C42.4979 14.41 42.5479 14.085 42.5479 13.745V12.56ZM42.5479 11.915V11.3C42.5479 10.08 42.0279 9.47 40.9879 9.47C40.8179 9.47 40.6729 9.485 40.5529 9.515C40.4329 9.545 40.3329 9.595 40.2529 9.665C40.1729 9.735 40.0979 9.835 40.0279 9.965C39.9679 10.095 39.9079 10.255 39.8479 10.445C39.7379 10.735 39.6279 10.93 39.5179 11.03C39.4179 11.12 39.2679 11.165 39.0679 11.165C38.5679 11.165 38.3179 10.915 38.3179 10.415C38.3179 9.935 38.5729 9.565 39.0829 9.305C39.5929 9.035 40.3179 8.9 41.2579 8.9C42.2579 8.9 42.9679 9.08 43.3879 9.44C43.8079 9.79 44.0179 10.39 44.0179 11.24V14.6C44.0179 15.74 44.2429 16.31 44.6929 16.31C44.8329 16.31 44.9679 16.295 45.0979 16.265C45.2279 16.225 45.3379 16.13 45.4279 15.98L45.6379 16.34C45.5179 16.57 45.2979 16.765 44.9779 16.925C44.6579 17.075 44.3229 17.15 43.9729 17.15C43.5329 17.15 43.2029 17.01 42.9829 16.73C42.7729 16.45 42.6679 16.055 42.6679 15.545H42.5929C42.3329 16.035 41.9729 16.425 41.5129 16.715C41.0529 16.995 40.5429 17.135 39.9829 17.135C39.3529 17.135 38.8579 16.975 38.4979 16.655C38.1379 16.335 37.9579 15.905 37.9579 15.365C37.9579 15.125 37.9979 14.895 38.0779 14.675C38.1679 14.455 38.3079 14.245 38.4979 14.045C38.6879 13.845 38.9379 13.65 39.2479 13.46C39.5579 13.26 39.9379 13.06 40.3879 12.86L42.5479 11.915ZM50.1286 13.775C50.5486 13.775 50.8736 13.585 51.1036 13.205C51.3436 12.825 51.4636 12.29 51.4636 11.6C51.4636 10.92 51.3436 10.395 51.1036 10.025C50.8736 9.645 50.5436 9.455 50.1136 9.455C49.6836 9.455 49.3386 9.645 49.0786 10.025C48.8286 10.405 48.7036 10.925 48.7036 11.585C48.7036 12.245 48.8336 12.775 49.0936 13.175C49.3536 13.575 49.6986 13.775 50.1286 13.775ZM49.3036 15.53C49.5436 15.55 49.7636 15.57 49.9636 15.59C50.1636 15.61 50.3586 15.63 50.5486 15.65C50.7486 15.67 50.9436 15.695 51.1336 15.725C51.3336 15.755 51.5486 15.785 51.7786 15.815C52.4986 15.925 53.0736 16.205 53.5036 16.655C53.9436 17.095 54.1636 17.65 54.1636 18.32C54.1636 19.16 53.8286 19.8 53.1586 20.24C52.4986 20.68 51.5386 20.9 50.2786 20.9C49.7186 20.9 49.2036 20.85 48.7336 20.75C48.2736 20.65 47.8786 20.505 47.5486 20.315C47.2186 20.135 46.9586 19.915 46.7686 19.655C46.5886 19.395 46.4986 19.11 46.4986 18.8C46.4986 18.59 46.5336 18.395 46.6036 18.215C46.6736 18.035 46.7686 17.875 46.8886 17.735C47.0086 17.605 47.1486 17.5 47.3086 17.42C47.4786 17.34 47.6536 17.3 47.8336 17.3C48.1736 17.3 48.4786 17.405 48.7486 17.615C48.4786 17.675 48.2586 17.82 48.0886 18.05C47.9186 18.29 47.8336 18.56 47.8336 18.86C47.8336 19.3 48.0486 19.64 48.4786 19.88C48.9186 20.12 49.5386 20.24 50.3386 20.24C52.0486 20.24 52.9036 19.715 52.9036 18.665C52.9036 18.265 52.7686 17.93 52.4986 17.66C52.2286 17.4 51.9086 17.245 51.5386 17.195C51.2986 17.165 51.0486 17.13 50.7886 17.09C50.5386 17.06 50.2886 17.03 50.0386 17C49.7986 16.97 49.5736 16.945 49.3636 16.925C49.1536 16.905 48.9836 16.885 48.8536 16.865C48.2936 16.805 47.8686 16.655 47.5786 16.415C47.2886 16.175 47.1436 15.845 47.1436 15.425C47.1436 15.075 47.2886 14.765 47.5786 14.495C47.8686 14.225 48.2336 14.055 48.6736 13.985V13.925C48.4536 13.835 48.2486 13.71 48.0586 13.55C47.8686 13.38 47.7036 13.19 47.5636 12.98C47.4336 12.77 47.3286 12.545 47.2486 12.305C47.1686 12.055 47.1286 11.8 47.1286 11.54C47.1286 11.16 47.1986 10.81 47.3386 10.49C47.4886 10.17 47.6936 9.895 47.9536 9.665C48.2236 9.425 48.5386 9.24 48.8986 9.11C49.2586 8.97 49.6536 8.9 50.0836 8.9C50.5236 8.9 50.9386 8.97 51.3286 9.11C51.7186 9.24 52.0536 9.435 52.3336 9.695C52.6736 9.415 52.9736 9.215 53.2336 9.095C53.4936 8.965 53.7386 8.9 53.9686 8.9C54.3286 8.9 54.6136 8.985 54.8236 9.155C55.0436 9.315 55.1536 9.535 55.1536 9.815C55.1536 9.985 55.0936 10.12 54.9736 10.22C54.8636 10.32 54.7236 10.37 54.5536 10.37C54.4136 10.37 54.2986 10.345 54.2086 10.295C54.1186 10.245 54.0336 10.195 53.9536 10.145C53.8836 10.085 53.8086 10.03 53.7286 9.98C53.6486 9.93 53.5486 9.905 53.4286 9.905C53.1886 9.905 52.9436 9.99 52.6936 10.16C52.9336 10.53 53.0536 10.995 53.0536 11.555C53.0536 12.405 52.7886 13.075 52.2586 13.565C51.7286 14.045 50.9336 14.325 49.8736 14.405C49.2636 14.455 48.8386 14.52 48.5986 14.6C48.3586 14.68 48.2386 14.825 48.2386 15.035C48.2386 15.195 48.3286 15.315 48.5086 15.395C48.6886 15.465 48.9536 15.51 49.3036 15.53ZM58.818 14.615C58.818 15.005 58.833 15.32 58.863 15.56C58.903 15.79 58.973 15.975 59.073 16.115C59.173 16.245 59.313 16.335 59.493 16.385C59.673 16.435 59.913 16.465 60.213 16.475V17H55.908V16.475C56.208 16.465 56.453 16.435 56.643 16.385C56.833 16.325 56.978 16.235 57.078 16.115C57.188 15.985 57.258 15.81 57.288 15.59C57.328 15.36 57.348 15.07 57.348 14.72V12.8C57.348 12.22 57.338 11.745 57.318 11.375C57.308 10.995 57.283 10.735 57.243 10.595C57.193 10.365 57.078 10.21 56.898 10.13C56.718 10.04 56.378 9.995 55.878 9.995V9.47L58.818 8.9V14.615ZM57.093 5.855C57.093 5.595 57.183 5.375 57.363 5.195C57.543 5.015 57.763 4.925 58.023 4.925C58.283 4.925 58.503 5.015 58.683 5.195C58.863 5.375 58.953 5.595 58.953 5.855C58.953 6.115 58.863 6.335 58.683 6.515C58.503 6.695 58.283 6.785 58.023 6.785C57.763 6.785 57.543 6.695 57.363 6.515C57.183 6.335 57.093 6.115 57.093 5.855ZM64.1504 14.645C64.1504 15.055 64.1604 15.38 64.1804 15.62C64.2004 15.85 64.2504 16.03 64.3304 16.16C64.4204 16.28 64.5454 16.36 64.7054 16.4C64.8754 16.44 65.1054 16.47 65.3954 16.49V17H61.4654V16.49C61.7454 16.47 61.9654 16.44 62.1254 16.4C62.2954 16.36 62.4254 16.28 62.5154 16.16C62.6054 16.04 62.6604 15.87 62.6804 15.65C62.7104 15.43 62.7254 15.13 62.7254 14.75V12.755C62.7254 11.565 62.6954 10.84 62.6354 10.58C62.6054 10.45 62.5654 10.345 62.5154 10.265C62.4754 10.175 62.4104 10.11 62.3204 10.07C62.2304 10.02 62.1154 9.99 61.9754 9.98C61.8354 9.96 61.6554 9.95 61.4354 9.95V9.47L63.8354 8.9L64.0154 10.385H64.0754C64.4554 9.915 64.9004 9.55 65.4104 9.29C65.9204 9.03 66.4754 8.9 67.0754 8.9C67.5354 8.9 67.9554 8.975 68.3354 9.125C68.7154 9.275 69.0054 9.48 69.2054 9.74C69.3754 9.97 69.4954 10.27 69.5654 10.64C69.6354 11 69.6704 11.5 69.6704 12.14V14.645C69.6704 15.055 69.6804 15.38 69.7004 15.62C69.7304 15.85 69.7854 16.03 69.8654 16.16C69.9454 16.28 70.0654 16.36 70.2254 16.4C70.3954 16.44 70.6154 16.47 70.8854 16.49V17H67.0004V16.49C67.2804 16.48 67.5004 16.455 67.6604 16.415C67.8304 16.365 67.9554 16.28 68.0354 16.16C68.1254 16.04 68.1804 15.87 68.2004 15.65C68.2304 15.42 68.2454 15.12 68.2454 14.75V12.77C68.2454 12.2 68.2154 11.72 68.1554 11.33C68.0954 10.94 67.9954 10.625 67.8554 10.385C67.7254 10.145 67.5504 9.975 67.3304 9.875C67.1104 9.765 66.8454 9.71 66.5354 9.71C66.0854 9.71 65.6704 9.83 65.2904 10.07C64.9204 10.3 64.6304 10.62 64.4204 11.03C64.3704 11.13 64.3254 11.225 64.2854 11.315C64.2554 11.405 64.2304 11.51 64.2104 11.63C64.1904 11.75 64.1754 11.89 64.1654 12.05C64.1554 12.2 64.1504 12.395 64.1504 12.635V14.645ZM75.7621 13.775C76.1821 13.775 76.5071 13.585 76.7371 13.205C76.9771 12.825 77.0971 12.29 77.0971 11.6C77.0971 10.92 76.9771 10.395 76.7371 10.025C76.5071 9.645 76.1771 9.455 75.7471 9.455C75.3171 9.455 74.9721 9.645 74.7121 10.025C74.4621 10.405 74.3371 10.925 74.3371 11.585C74.3371 12.245 74.4671 12.775 74.7271 13.175C74.9871 13.575 75.3321 13.775 75.7621 13.775ZM74.9371 15.53C75.1771 15.55 75.3971 15.57 75.5971 15.59C75.7971 15.61 75.9921 15.63 76.1821 15.65C76.3821 15.67 76.5771 15.695 76.7671 15.725C76.9671 15.755 77.1821 15.785 77.4121 15.815C78.1321 15.925 78.7071 16.205 79.1371 16.655C79.5771 17.095 79.7971 17.65 79.7971 18.32C79.7971 19.16 79.4621 19.8 78.7921 20.24C78.1321 20.68 77.1721 20.9 75.9121 20.9C75.3521 20.9 74.8371 20.85 74.3671 20.75C73.9071 20.65 73.5121 20.505 73.1821 20.315C72.8521 20.135 72.5921 19.915 72.4021 19.655C72.2221 19.395 72.1321 19.11 72.1321 18.8C72.1321 18.59 72.1671 18.395 72.2371 18.215C72.3071 18.035 72.4021 17.875 72.5221 17.735C72.6421 17.605 72.7821 17.5 72.9421 17.42C73.1121 17.34 73.2871 17.3 73.4671 17.3C73.8071 17.3 74.1121 17.405 74.3821 17.615C74.1121 17.675 73.8921 17.82 73.7221 18.05C73.5521 18.29 73.4671 18.56 73.4671 18.86C73.4671 19.3 73.6821 19.64 74.1121 19.88C74.5521 20.12 75.1721 20.24 75.9721 20.24C77.6821 20.24 78.5371 19.715 78.5371 18.665C78.5371 18.265 78.4021 17.93 78.1321 17.66C77.8621 17.4 77.5421 17.245 77.1721 17.195C76.9321 17.165 76.6821 17.13 76.4221 17.09C76.1721 17.06 75.9221 17.03 75.6721 17C75.4321 16.97 75.2071 16.945 74.9971 16.925C74.7871 16.905 74.6171 16.885 74.4871 16.865C73.9271 16.805 73.5021 16.655 73.2121 16.415C72.9221 16.175 72.7771 15.845 72.7771 15.425C72.7771 15.075 72.9221 14.765 73.2121 14.495C73.5021 14.225 73.8671 14.055 74.3071 13.985V13.925C74.0871 13.835 73.8821 13.71 73.6921 13.55C73.5021 13.38 73.3371 13.19 73.1971 12.98C73.0671 12.77 72.9621 12.545 72.8821 12.305C72.8021 12.055 72.7621 11.8 72.7621 11.54C72.7621 11.16 72.8321 10.81 72.9721 10.49C73.1221 10.17 73.3271 9.895 73.5871 9.665C73.8571 9.425 74.1721 9.24 74.5321 9.11C74.8921 8.97 75.2871 8.9 75.7171 8.9C76.1571 8.9 76.5721 8.97 76.9621 9.11C77.3521 9.24 77.6871 9.435 77.9671 9.695C78.3071 9.415 78.6071 9.215 78.8671 9.095C79.1271 8.965 79.3721 8.9 79.6021 8.9C79.9621 8.9 80.2471 8.985 80.4571 9.155C80.6771 9.315 80.7871 9.535 80.7871 9.815C80.7871 9.985 80.7271 10.12 80.6071 10.22C80.4971 10.32 80.3571 10.37 80.1871 10.37C80.0471 10.37 79.9321 10.345 79.8421 10.295C79.7521 10.245 79.6671 10.195 79.5871 10.145C79.5171 10.085 79.4421 10.03 79.3621 9.98C79.2821 9.93 79.1821 9.905 79.0621 9.905C78.8221 9.905 78.5771 9.99 78.3271 10.16C78.5671 10.53 78.6871 10.995 78.6871 11.555C78.6871 12.405 78.4221 13.075 77.8921 13.565C77.3621 14.045 76.5671 14.325 75.5071 14.405C74.8971 14.455 74.4721 14.52 74.2321 14.6C73.9921 14.68 73.8721 14.825 73.8721 15.035C73.8721 15.195 73.9621 15.315 74.1421 15.395C74.3221 15.465 74.5871 15.51 74.9371 15.53Z" fill="#6D6B67"/>
<path d="M225.341 5.81818L221.591 19.75H220.364L224.114 5.81818H225.341Z" fill="#E0DFDC"/>
<path d="M97.532 17V16.468C97.8867 16.4587 98.1713 16.4353 98.386 16.398C98.61 16.3513 98.7827 16.272 98.904 16.16C99.0253 16.0387 99.1047 15.88 99.142 15.684C99.1887 15.4787 99.212 15.208 99.212 14.872V8.348C99.212 8.02133 99.1933 7.76 99.156 7.564C99.128 7.35867 99.0627 7.2 98.96 7.088C98.8667 6.96667 98.7267 6.88733 98.54 6.85C98.3533 6.80333 98.1107 6.77067 97.812 6.752V6.22H102.726C103.566 6.22 104.341 6.36 105.05 6.64C105.769 6.92 106.385 7.30733 106.898 7.802C107.421 8.29667 107.827 8.88467 108.116 9.566C108.405 10.2473 108.55 10.9893 108.55 11.792C108.55 12.5573 108.415 13.262 108.144 13.906C107.873 14.5407 107.491 15.0867 106.996 15.544C106.511 16.0013 105.927 16.3607 105.246 16.622C104.565 16.874 103.818 17 103.006 17H97.532ZM100.92 6.906C100.761 6.906 100.682 6.98533 100.682 7.144V14.718C100.682 15.782 101.377 16.314 102.768 16.314C104.047 16.314 105.027 15.936 105.708 15.18C106.389 14.4147 106.73 13.2947 106.73 11.82C106.73 11.0453 106.637 10.3547 106.45 9.748C106.263 9.14133 105.993 8.628 105.638 8.208C105.293 7.788 104.873 7.466 104.378 7.242C103.883 7.018 103.323 6.906 102.698 6.906H100.92ZM112.965 14.774C112.965 15.138 112.979 15.432 113.007 15.656C113.044 15.8707 113.11 16.0433 113.203 16.174C113.296 16.2953 113.427 16.3793 113.595 16.426C113.763 16.4727 113.987 16.5007 114.267 16.51V17H110.249V16.51C110.529 16.5007 110.758 16.4727 110.935 16.426C111.112 16.37 111.248 16.286 111.341 16.174C111.444 16.0527 111.509 15.8893 111.537 15.684C111.574 15.4693 111.593 15.1987 111.593 14.872V13.08C111.593 12.5387 111.584 12.0953 111.565 11.75C111.556 11.3953 111.532 11.1527 111.495 11.022C111.448 10.8073 111.341 10.6627 111.173 10.588C111.005 10.504 110.688 10.462 110.221 10.462V9.972L112.965 9.44V14.774ZM111.355 6.598C111.355 6.35533 111.439 6.15 111.607 5.982C111.775 5.814 111.98 5.73 112.223 5.73C112.466 5.73 112.671 5.814 112.839 5.982C113.007 6.15 113.091 6.35533 113.091 6.598C113.091 6.84067 113.007 7.046 112.839 7.214C112.671 7.382 112.466 7.466 112.223 7.466C111.98 7.466 111.775 7.382 111.607 7.214C111.439 7.046 111.355 6.84067 111.355 6.598ZM118.781 13.99C119.173 13.99 119.476 13.8127 119.691 13.458C119.915 13.1033 120.027 12.604 120.027 11.96C120.027 11.3253 119.915 10.8353 119.691 10.49C119.476 10.1353 119.168 9.958 118.767 9.958C118.365 9.958 118.043 10.1353 117.801 10.49C117.567 10.8447 117.451 11.33 117.451 11.946C117.451 12.562 117.572 13.0567 117.815 13.43C118.057 13.8033 118.379 13.99 118.781 13.99ZM118.011 15.628C118.235 15.6467 118.44 15.6653 118.627 15.684C118.813 15.7027 118.995 15.7213 119.173 15.74C119.359 15.7587 119.541 15.782 119.719 15.81C119.905 15.838 120.106 15.866 120.321 15.894C120.993 15.9967 121.529 16.258 121.931 16.678C122.341 17.0887 122.547 17.6067 122.547 18.232C122.547 19.016 122.234 19.6133 121.609 20.024C120.993 20.4347 120.097 20.64 118.921 20.64C118.398 20.64 117.917 20.5933 117.479 20.5C117.049 20.4067 116.681 20.2713 116.373 20.094C116.065 19.926 115.822 19.7207 115.645 19.478C115.477 19.2353 115.393 18.9693 115.393 18.68C115.393 18.484 115.425 18.302 115.491 18.134C115.556 17.966 115.645 17.8167 115.757 17.686C115.869 17.5647 115.999 17.4667 116.149 17.392C116.307 17.3173 116.471 17.28 116.639 17.28C116.956 17.28 117.241 17.378 117.493 17.574C117.241 17.63 117.035 17.7653 116.877 17.98C116.718 18.204 116.639 18.456 116.639 18.736C116.639 19.1467 116.839 19.464 117.241 19.688C117.651 19.912 118.23 20.024 118.977 20.024C120.573 20.024 121.371 19.534 121.371 18.554C121.371 18.1807 121.245 17.868 120.993 17.616C120.741 17.3733 120.442 17.2287 120.097 17.182C119.873 17.154 119.639 17.1213 119.397 17.084C119.163 17.056 118.93 17.028 118.697 17C118.473 16.972 118.263 16.9487 118.067 16.93C117.871 16.9113 117.712 16.8927 117.591 16.874C117.068 16.818 116.671 16.678 116.401 16.454C116.13 16.23 115.995 15.922 115.995 15.53C115.995 15.2033 116.13 14.914 116.401 14.662C116.671 14.41 117.012 14.2513 117.423 14.186V14.13C117.217 14.046 117.026 13.9293 116.849 13.78C116.671 13.6213 116.517 13.444 116.387 13.248C116.265 13.052 116.167 12.842 116.093 12.618C116.018 12.3847 115.981 12.1467 115.981 11.904C115.981 11.5493 116.046 11.2227 116.177 10.924C116.317 10.6253 116.508 10.3687 116.751 10.154C117.003 9.93 117.297 9.75733 117.633 9.636C117.969 9.50533 118.337 9.44 118.739 9.44C119.149 9.44 119.537 9.50533 119.901 9.636C120.265 9.75733 120.577 9.93933 120.839 10.182C121.156 9.92067 121.436 9.734 121.679 9.622C121.921 9.50067 122.15 9.44 122.365 9.44C122.701 9.44 122.967 9.51933 123.163 9.678C123.368 9.82733 123.471 10.0327 123.471 10.294C123.471 10.4527 123.415 10.5787 123.303 10.672C123.2 10.7653 123.069 10.812 122.911 10.812C122.78 10.812 122.673 10.7887 122.589 10.742C122.505 10.6953 122.425 10.6487 122.351 10.602C122.285 10.546 122.215 10.4947 122.141 10.448C122.066 10.4013 121.973 10.378 121.861 10.378C121.637 10.378 121.408 10.4573 121.175 10.616C121.399 10.9613 121.511 11.3953 121.511 11.918C121.511 12.7113 121.263 13.3367 120.769 13.794C120.274 14.242 119.532 14.5033 118.543 14.578C117.973 14.6247 117.577 14.6853 117.353 14.76C117.129 14.8347 117.017 14.97 117.017 15.166C117.017 15.3153 117.101 15.4273 117.269 15.502C117.437 15.5673 117.684 15.6093 118.011 15.628ZM126.917 14.774C126.917 15.138 126.931 15.432 126.959 15.656C126.997 15.8707 127.062 16.0433 127.155 16.174C127.249 16.2953 127.379 16.3793 127.547 16.426C127.715 16.4727 127.939 16.5007 128.219 16.51V17H124.201V16.51C124.481 16.5007 124.71 16.4727 124.887 16.426C125.065 16.37 125.2 16.286 125.293 16.174C125.396 16.0527 125.461 15.8893 125.489 15.684C125.527 15.4693 125.545 15.1987 125.545 14.872V13.08C125.545 12.5387 125.536 12.0953 125.517 11.75C125.508 11.3953 125.485 11.1527 125.447 11.022C125.401 10.8073 125.293 10.6627 125.125 10.588C124.957 10.504 124.64 10.462 124.173 10.462V9.972L126.917 9.44V14.774ZM125.307 6.598C125.307 6.35533 125.391 6.15 125.559 5.982C125.727 5.814 125.933 5.73 126.175 5.73C126.418 5.73 126.623 5.814 126.791 5.982C126.959 6.15 127.043 6.35533 127.043 6.598C127.043 6.84067 126.959 7.046 126.791 7.214C126.623 7.382 126.418 7.466 126.175 7.466C125.933 7.466 125.727 7.382 125.559 7.214C125.391 7.046 125.307 6.84067 125.307 6.598ZM129.457 10.462V9.944C129.952 9.65467 130.339 9.36533 130.619 9.076C130.899 8.78667 131.114 8.44133 131.263 8.04H131.669V9.804H133.545V10.462H131.669V14.718C131.669 15.0447 131.683 15.32 131.711 15.544C131.748 15.768 131.804 15.95 131.879 16.09C131.954 16.2207 132.052 16.314 132.173 16.37C132.294 16.426 132.448 16.454 132.635 16.454C132.868 16.454 133.064 16.4073 133.223 16.314C133.391 16.2113 133.554 16.0433 133.713 15.81L134.063 16.076C133.932 16.4213 133.704 16.6873 133.377 16.874C133.06 17.0513 132.663 17.14 132.187 17.14C131.571 17.14 131.1 16.9953 130.773 16.706C130.456 16.4073 130.297 15.9827 130.297 15.432V10.462H129.457ZM139.474 12.856C138.942 13.0613 138.489 13.262 138.116 13.458C137.752 13.654 137.458 13.85 137.234 14.046C137.01 14.242 136.847 14.438 136.744 14.634C136.651 14.83 136.604 15.0307 136.604 15.236C136.604 15.544 136.707 15.796 136.912 15.992C137.117 16.188 137.388 16.286 137.724 16.286C137.967 16.286 138.191 16.2253 138.396 16.104C138.611 15.9827 138.797 15.8193 138.956 15.614C139.115 15.3993 139.241 15.152 139.334 14.872C139.427 14.5827 139.474 14.2793 139.474 13.962V12.856ZM139.474 12.254V11.68C139.474 10.5413 138.989 9.972 138.018 9.972C137.859 9.972 137.724 9.986 137.612 10.014C137.5 10.042 137.407 10.0887 137.332 10.154C137.257 10.2193 137.187 10.3127 137.122 10.434C137.066 10.5553 137.01 10.7047 136.954 10.882C136.851 11.1527 136.749 11.3347 136.646 11.428C136.553 11.512 136.413 11.554 136.226 11.554C135.759 11.554 135.526 11.3207 135.526 10.854C135.526 10.406 135.764 10.0607 136.24 9.818C136.716 9.566 137.393 9.44 138.27 9.44C139.203 9.44 139.866 9.608 140.258 9.944C140.65 10.2707 140.846 10.8307 140.846 11.624V14.76C140.846 15.824 141.056 16.356 141.476 16.356C141.607 16.356 141.733 16.342 141.854 16.314C141.975 16.2767 142.078 16.188 142.162 16.048L142.358 16.384C142.246 16.5987 142.041 16.7807 141.742 16.93C141.443 17.07 141.131 17.14 140.804 17.14C140.393 17.14 140.085 17.0093 139.88 16.748C139.684 16.4867 139.586 16.118 139.586 15.642H139.516C139.273 16.0993 138.937 16.4633 138.508 16.734C138.079 16.9953 137.603 17.126 137.08 17.126C136.492 17.126 136.03 16.9767 135.694 16.678C135.358 16.3793 135.19 15.978 135.19 15.474C135.19 15.25 135.227 15.0353 135.302 14.83C135.386 14.6247 135.517 14.4287 135.694 14.242C135.871 14.0553 136.105 13.8733 136.394 13.696C136.683 13.5093 137.038 13.3227 137.458 13.136L139.474 12.254ZM145.666 14.816C145.666 15.1707 145.68 15.4553 145.708 15.67C145.736 15.8847 145.792 16.0527 145.876 16.174C145.969 16.2953 146.095 16.3793 146.254 16.426C146.422 16.4727 146.641 16.5007 146.912 16.51V17H143.048V16.51C143.328 16.5007 143.552 16.4727 143.72 16.426C143.888 16.37 144.019 16.286 144.112 16.174C144.215 16.062 144.28 15.908 144.308 15.712C144.345 15.5067 144.364 15.2407 144.364 14.914V8.88C144.364 8.376 144.355 7.956 144.336 7.62C144.327 7.27467 144.308 7.04133 144.28 6.92C144.233 6.70533 144.121 6.56067 143.944 6.486C143.776 6.41133 143.468 6.374 143.02 6.374V5.898L145.666 5.38V14.816ZM161.758 6.22H162.15L162.276 9.44H161.758C161.553 8.61867 161.156 7.97467 160.568 7.508C159.98 7.04133 159.271 6.808 158.44 6.808C157.871 6.808 157.362 6.92 156.914 7.144C156.466 7.368 156.088 7.69 155.78 8.11C155.472 8.53 155.234 9.04333 155.066 9.65C154.907 10.2567 154.828 10.9427 154.828 11.708C154.828 13.2107 155.141 14.368 155.766 15.18C156.391 15.9827 157.297 16.384 158.482 16.384C160.283 16.384 161.441 15.4273 161.954 13.514H162.528V17H162.038L161.716 15.894C160.736 16.7247 159.551 17.14 158.16 17.14C157.367 17.14 156.648 17.014 156.004 16.762C155.369 16.51 154.823 16.1553 154.366 15.698C153.918 15.2313 153.568 14.6667 153.316 14.004C153.073 13.3413 152.952 12.604 152.952 11.792C152.952 10.9427 153.083 10.168 153.344 9.468C153.605 8.768 153.969 8.166 154.436 7.662C154.912 7.158 155.477 6.77067 156.13 6.5C156.793 6.22 157.521 6.08 158.314 6.08C158.874 6.08 159.401 6.15933 159.896 6.318C160.391 6.47667 160.927 6.73333 161.506 7.088L161.758 6.22ZM168.287 9.44C168.819 9.44 169.323 9.538 169.799 9.734C170.275 9.92067 170.69 10.182 171.045 10.518C171.409 10.854 171.693 11.2553 171.899 11.722C172.113 12.1793 172.221 12.6833 172.221 13.234C172.221 13.8033 172.113 14.326 171.899 14.802C171.693 15.278 171.409 15.6887 171.045 16.034C170.69 16.3793 170.275 16.65 169.799 16.846C169.323 17.042 168.819 17.14 168.287 17.14C167.764 17.14 167.265 17.0467 166.789 16.86C166.322 16.664 165.911 16.3933 165.557 16.048C165.202 15.7027 164.922 15.292 164.717 14.816C164.511 14.3307 164.409 13.8033 164.409 13.234C164.409 12.6833 164.511 12.1747 164.717 11.708C164.922 11.2413 165.202 10.84 165.557 10.504C165.911 10.168 166.322 9.90667 166.789 9.72C167.265 9.53333 167.764 9.44 168.287 9.44ZM168.287 10.112C167.941 10.112 167.624 10.1867 167.335 10.336C167.055 10.4853 166.812 10.7 166.607 10.98C166.411 11.2507 166.257 11.582 166.145 11.974C166.042 12.3567 165.991 12.7813 165.991 13.248C165.991 13.7333 166.042 14.172 166.145 14.564C166.257 14.956 166.411 15.292 166.607 15.572C166.812 15.8427 167.055 16.0527 167.335 16.202C167.615 16.3513 167.932 16.426 168.287 16.426C168.641 16.426 168.963 16.3513 169.253 16.202C169.542 16.0527 169.789 15.838 169.995 15.558C170.2 15.278 170.359 14.942 170.471 14.55C170.583 14.158 170.639 13.724 170.639 13.248C170.639 12.7813 170.583 12.3567 170.471 11.974C170.359 11.5913 170.2 11.2647 169.995 10.994C169.789 10.714 169.542 10.4993 169.253 10.35C168.963 10.1913 168.641 10.112 168.287 10.112ZM176.321 14.802C176.321 15.1847 176.33 15.488 176.349 15.712C176.368 15.9267 176.414 16.0947 176.489 16.216C176.573 16.328 176.69 16.4027 176.839 16.44C176.998 16.4773 177.212 16.5053 177.483 16.524V17H173.815V16.524C174.076 16.5053 174.282 16.4773 174.431 16.44C174.59 16.4027 174.711 16.328 174.795 16.216C174.879 16.104 174.93 15.9453 174.949 15.74C174.977 15.5347 174.991 15.2547 174.991 14.9V13.038C174.991 11.9273 174.963 11.2507 174.907 11.008C174.879 10.8867 174.842 10.7887 174.795 10.714C174.758 10.63 174.697 10.5693 174.613 10.532C174.529 10.4853 174.422 10.4573 174.291 10.448C174.16 10.4293 173.992 10.42 173.787 10.42V9.972L176.027 9.44L176.195 10.826H176.251C176.606 10.3873 177.021 10.0467 177.497 9.804C177.973 9.56133 178.491 9.44 179.051 9.44C179.48 9.44 179.872 9.51 180.227 9.65C180.582 9.79 180.852 9.98133 181.039 10.224C181.198 10.4387 181.31 10.7187 181.375 11.064C181.44 11.4 181.473 11.8667 181.473 12.464V14.802C181.473 15.1847 181.482 15.488 181.501 15.712C181.529 15.9267 181.58 16.0947 181.655 16.216C181.73 16.328 181.842 16.4027 181.991 16.44C182.15 16.4773 182.355 16.5053 182.607 16.524V17H178.981V16.524C179.242 16.5147 179.448 16.4913 179.597 16.454C179.756 16.4073 179.872 16.328 179.947 16.216C180.031 16.104 180.082 15.9453 180.101 15.74C180.129 15.5253 180.143 15.2453 180.143 14.9V13.052C180.143 12.52 180.115 12.072 180.059 11.708C180.003 11.344 179.91 11.05 179.779 10.826C179.658 10.602 179.494 10.4433 179.289 10.35C179.084 10.2473 178.836 10.196 178.547 10.196C178.127 10.196 177.74 10.308 177.385 10.532C177.04 10.7467 176.769 11.0453 176.573 11.428C176.526 11.5213 176.484 11.61 176.447 11.694C176.419 11.778 176.396 11.876 176.377 11.988C176.358 12.1 176.344 12.2307 176.335 12.38C176.326 12.52 176.321 12.702 176.321 12.926V14.802ZM183.909 10.462V9.944C184.404 9.65467 184.791 9.36533 185.071 9.076C185.351 8.78667 185.566 8.44133 185.715 8.04H186.121V9.804H187.997V10.462H186.121V14.718C186.121 15.0447 186.135 15.32 186.163 15.544C186.201 15.768 186.257 15.95 186.331 16.09C186.406 16.2207 186.504 16.314 186.625 16.37C186.747 16.426 186.901 16.454 187.087 16.454C187.321 16.454 187.517 16.4073 187.675 16.314C187.843 16.2113 188.007 16.0433 188.165 15.81L188.515 16.076C188.385 16.4213 188.156 16.6873 187.829 16.874C187.512 17.0513 187.115 17.14 186.639 17.14C186.023 17.14 185.552 16.9953 185.225 16.706C184.908 16.4073 184.749 15.9827 184.749 15.432V10.462H183.909ZM196.348 15.698C195.555 16.6593 194.57 17.14 193.394 17.14C192.844 17.14 192.344 17.0513 191.896 16.874C191.448 16.6873 191.061 16.4307 190.734 16.104C190.417 15.768 190.17 15.3713 189.992 14.914C189.815 14.4473 189.726 13.934 189.726 13.374C189.726 12.8047 189.82 12.2773 190.006 11.792C190.193 11.3067 190.454 10.8913 190.79 10.546C191.136 10.2007 191.542 9.93 192.008 9.734C192.484 9.538 193.002 9.44 193.562 9.44C194.468 9.44 195.168 9.68733 195.662 10.182C196.157 10.6673 196.404 11.3673 196.404 12.282C196.404 12.4127 196.376 12.492 196.32 12.52C196.274 12.548 196.157 12.562 195.97 12.562H191.364C191.346 12.6367 191.332 12.73 191.322 12.842C191.313 12.9447 191.308 13.0613 191.308 13.192C191.308 13.6773 191.364 14.1207 191.476 14.522C191.598 14.914 191.766 15.25 191.98 15.53C192.204 15.81 192.466 16.0293 192.764 16.188C193.072 16.3373 193.413 16.412 193.786 16.412C194.178 16.412 194.542 16.328 194.878 16.16C195.214 15.9827 195.56 15.698 195.914 15.306L196.348 15.698ZM194.038 11.918C194.225 11.918 194.374 11.9133 194.486 11.904C194.598 11.8947 194.682 11.876 194.738 11.848C194.794 11.82 194.832 11.7827 194.85 11.736C194.869 11.68 194.878 11.61 194.878 11.526C194.878 11.0967 194.738 10.756 194.458 10.504C194.188 10.2427 193.814 10.112 193.338 10.112C192.33 10.112 191.705 10.714 191.462 11.918H194.038ZM200.49 14.802C200.49 15.1847 200.499 15.488 200.518 15.712C200.536 15.9267 200.583 16.0947 200.658 16.216C200.742 16.328 200.858 16.4027 201.008 16.44C201.166 16.4773 201.381 16.5053 201.652 16.524V17H197.984V16.524C198.245 16.5053 198.45 16.4773 198.6 16.44C198.758 16.4027 198.88 16.328 198.964 16.216C199.048 16.104 199.099 15.9453 199.118 15.74C199.146 15.5347 199.16 15.2547 199.16 14.9V13.038C199.16 11.9273 199.132 11.2507 199.076 11.008C199.048 10.8867 199.01 10.7887 198.964 10.714C198.926 10.63 198.866 10.5693 198.782 10.532C198.698 10.4853 198.59 10.4573 198.46 10.448C198.329 10.4293 198.161 10.42 197.956 10.42V9.972L200.196 9.44L200.364 10.826H200.42C200.774 10.3873 201.19 10.0467 201.666 9.804C202.142 9.56133 202.66 9.44 203.22 9.44C203.649 9.44 204.041 9.51 204.396 9.65C204.75 9.79 205.021 9.98133 205.208 10.224C205.366 10.4387 205.478 10.7187 205.544 11.064C205.609 11.4 205.642 11.8667 205.642 12.464V14.802C205.642 15.1847 205.651 15.488 205.67 15.712C205.698 15.9267 205.749 16.0947 205.824 16.216C205.898 16.328 206.01 16.4027 206.16 16.44C206.318 16.4773 206.524 16.5053 206.776 16.524V17H203.15V16.524C203.411 16.5147 203.616 16.4913 203.766 16.454C203.924 16.4073 204.041 16.328 204.116 16.216C204.2 16.104 204.251 15.9453 204.27 15.74C204.298 15.5253 204.312 15.2453 204.312 14.9V13.052C204.312 12.52 204.284 12.072 204.228 11.708C204.172 11.344 204.078 11.05 203.948 10.826C203.826 10.602 203.663 10.4433 203.458 10.35C203.252 10.2473 203.005 10.196 202.716 10.196C202.296 10.196 201.908 10.308 201.554 10.532C201.208 10.7467 200.938 11.0453 200.742 11.428C200.695 11.5213 200.653 11.61 200.616 11.694C200.588 11.778 200.564 11.876 200.546 11.988C200.527 12.1 200.513 12.2307 200.504 12.38C200.494 12.52 200.49 12.702 200.49 12.926V14.802ZM208.078 10.462V9.944C208.573 9.65467 208.96 9.36533 209.24 9.076C209.52 8.78667 209.735 8.44133 209.884 8.04H210.29V9.804H212.166V10.462H210.29V14.718C210.29 15.0447 210.304 15.32 210.332 15.544C210.369 15.768 210.425 15.95 210.5 16.09C210.575 16.2207 210.673 16.314 210.794 16.37C210.915 16.426 211.069 16.454 211.256 16.454C211.489 16.454 211.685 16.4073 211.844 16.314C212.012 16.2113 212.175 16.0433 212.334 15.81L212.684 16.076C212.553 16.4213 212.325 16.6873 211.998 16.874C211.681 17.0513 211.284 17.14 210.808 17.14C210.192 17.14 209.721 16.9953 209.394 16.706C209.077 16.4073 208.918 15.9827 208.918 15.432V10.462H208.078Z" fill="#6D6B67"/>
<path d="M299.341 5.81818L295.591 19.75H294.364L298.114 5.81818H299.341Z" fill="black"/>
<path d="M245.842 15.037L247.87 9.395C247.991 9.057 248.078 8.78833 248.13 8.589C248.182 8.38967 248.208 8.21633 248.208 8.069C248.208 7.84367 248.134 7.692 247.987 7.614C247.848 7.52733 247.597 7.484 247.233 7.484V6.99H250.392V7.484C249.993 7.484 249.69 7.56633 249.482 7.731C249.283 7.89567 249.114 8.16433 248.975 8.537L245.712 17.13H245.257L242.761 9.733L239.992 17.13H239.537L236.833 9.668C236.677 9.252 236.534 8.90533 236.404 8.628C236.283 8.342 236.148 8.11667 236.001 7.952C235.862 7.78733 235.702 7.67033 235.52 7.601C235.338 7.53167 235.117 7.497 234.857 7.497V6.99H239.095V7.497C238.653 7.497 238.341 7.536 238.159 7.614C237.986 7.692 237.899 7.84367 237.899 8.069C237.899 8.18167 237.916 8.31167 237.951 8.459C237.986 8.60633 238.038 8.77967 238.107 8.979L240.083 14.998L241.682 10.5C241.803 10.162 241.92 9.85 242.033 9.564C242.154 9.26933 242.25 9.005 242.319 8.771C242.198 8.51967 242.085 8.31167 241.981 8.147C241.886 7.98233 241.786 7.85233 241.682 7.757C241.587 7.66167 241.483 7.59667 241.37 7.562C241.266 7.51867 241.153 7.497 241.032 7.497V6.99H245.01V7.497C244.759 7.497 244.555 7.50567 244.399 7.523C244.243 7.54033 244.122 7.57067 244.035 7.614C243.957 7.64867 243.901 7.70067 243.866 7.77C243.84 7.83933 243.827 7.92167 243.827 8.017C243.827 8.147 243.849 8.30733 243.892 8.498C243.944 8.68 244.013 8.914 244.1 9.2L245.842 15.037ZM256.468 15.791C255.732 16.6837 254.817 17.13 253.725 17.13C253.214 17.13 252.75 17.0477 252.334 16.883C251.918 16.7097 251.559 16.4713 251.255 16.168C250.961 15.856 250.731 15.4877 250.566 15.063C250.402 14.6297 250.319 14.153 250.319 13.633C250.319 13.1043 250.406 12.6147 250.579 12.164C250.753 11.7133 250.995 11.3277 251.307 11.007C251.628 10.6863 252.005 10.435 252.438 10.253C252.88 10.071 253.361 9.98 253.881 9.98C254.722 9.98 255.372 10.2097 255.831 10.669C256.291 11.1197 256.52 11.7697 256.52 12.619C256.52 12.7403 256.494 12.814 256.442 12.84C256.399 12.866 256.291 12.879 256.117 12.879H251.84C251.823 12.9483 251.81 13.035 251.801 13.139C251.793 13.2343 251.788 13.3427 251.788 13.464C251.788 13.9147 251.84 14.3263 251.944 14.699C252.057 15.063 252.213 15.375 252.412 15.635C252.62 15.895 252.863 16.0987 253.14 16.246C253.426 16.3847 253.743 16.454 254.089 16.454C254.453 16.454 254.791 16.376 255.103 16.22C255.415 16.0553 255.736 15.791 256.065 15.427L256.468 15.791ZM254.323 12.281C254.497 12.281 254.635 12.2767 254.739 12.268C254.843 12.2593 254.921 12.242 254.973 12.216C255.025 12.19 255.06 12.1553 255.077 12.112C255.095 12.06 255.103 11.995 255.103 11.917C255.103 11.5183 254.973 11.202 254.713 10.968C254.462 10.7253 254.115 10.604 253.673 10.604C252.737 10.604 252.157 11.163 251.931 12.281H254.323ZM259.991 14.283C259.991 14.6123 260.039 14.9157 260.134 15.193C260.23 15.4617 260.36 15.6957 260.524 15.895C260.698 16.0857 260.901 16.2373 261.135 16.35C261.378 16.4627 261.638 16.519 261.915 16.519C262.219 16.519 262.492 16.4497 262.734 16.311C262.986 16.1723 263.198 15.9773 263.371 15.726C263.553 15.466 263.692 15.1583 263.787 14.803C263.891 14.439 263.943 14.036 263.943 13.594C263.943 13.152 263.891 12.749 263.787 12.385C263.683 12.0123 263.54 11.696 263.358 11.436C263.176 11.1673 262.955 10.9593 262.695 10.812C262.444 10.6647 262.167 10.591 261.863 10.591C261.508 10.591 261.192 10.6777 260.914 10.851C260.637 11.0157 260.425 11.2497 260.277 11.553C260.087 11.9343 259.991 12.4587 259.991 13.126V14.283ZM259.965 11.033H260.017C260.295 10.669 260.598 10.4047 260.927 10.24C261.265 10.0667 261.655 9.98 262.097 9.98C262.565 9.98 262.999 10.071 263.397 10.253C263.805 10.435 264.156 10.6863 264.45 11.007C264.754 11.3277 264.988 11.709 265.152 12.151C265.326 12.5843 265.412 13.0523 265.412 13.555C265.412 14.0663 265.326 14.543 265.152 14.985C264.979 15.4183 264.741 15.7953 264.437 16.116C264.143 16.4367 263.792 16.688 263.384 16.87C262.977 17.052 262.535 17.143 262.058 17.143C261.564 17.143 261.101 17.052 260.667 16.87C260.243 16.688 259.892 16.441 259.614 16.129L259.003 17H258.717V9.148C258.717 8.27267 258.661 7.71367 258.548 7.471C258.522 7.41033 258.492 7.36267 258.457 7.328C258.423 7.28467 258.371 7.25 258.301 7.224C258.232 7.18933 258.137 7.159 258.015 7.133C257.894 7.107 257.729 7.081 257.521 7.055V6.73L259.965 6.21V11.033ZM267.558 17H267.272V14.764H267.597C267.935 15.986 268.551 16.597 269.443 16.597C269.79 16.597 270.063 16.5147 270.262 16.35C270.47 16.1767 270.574 15.9167 270.574 15.57C270.574 15.44 270.553 15.3317 270.509 15.245C270.475 15.1497 270.401 15.0543 270.288 14.959C270.184 14.855 270.033 14.738 269.833 14.608C269.643 14.478 269.387 14.3133 269.066 14.114C268.772 13.932 268.516 13.763 268.299 13.607C268.083 13.451 267.901 13.295 267.753 13.139C267.606 12.9743 267.493 12.801 267.415 12.619C267.346 12.437 267.311 12.2247 267.311 11.982C267.311 11.6873 267.359 11.4187 267.454 11.176C267.558 10.9247 267.697 10.7123 267.87 10.539C268.044 10.3657 268.247 10.2313 268.481 10.136C268.715 10.032 268.971 9.98 269.248 9.98C269.482 9.98 269.725 10.019 269.976 10.097C270.228 10.1663 270.449 10.2617 270.639 10.383L270.899 10.11H271.146V11.982H270.808C270.618 11.4533 270.41 11.0763 270.184 10.851C269.959 10.6257 269.682 10.513 269.352 10.513C269.058 10.513 268.819 10.591 268.637 10.747C268.464 10.903 268.377 11.1197 268.377 11.397C268.377 11.5443 268.399 11.6743 268.442 11.787C268.494 11.891 268.572 11.995 268.676 12.099C268.78 12.203 268.91 12.3113 269.066 12.424C269.231 12.528 269.426 12.6493 269.651 12.788C270.024 13.022 270.34 13.23 270.6 13.412C270.869 13.594 271.086 13.776 271.25 13.958C271.415 14.1313 271.536 14.3133 271.614 14.504C271.692 14.6947 271.731 14.9113 271.731 15.154C271.731 15.7693 271.532 16.2547 271.133 16.61C270.735 16.9567 270.21 17.13 269.56 17.13C268.884 17.13 268.304 16.935 267.818 16.545L267.558 17ZM275.708 14.933C275.708 15.271 275.721 15.544 275.747 15.752C275.781 15.9513 275.842 16.1117 275.929 16.233C276.015 16.3457 276.137 16.4237 276.293 16.467C276.449 16.5103 276.657 16.5363 276.917 16.545V17H273.186V16.545C273.446 16.5363 273.658 16.5103 273.823 16.467C273.987 16.415 274.113 16.337 274.2 16.233C274.295 16.1203 274.356 15.9687 274.382 15.778C274.416 15.5787 274.434 15.3273 274.434 15.024V13.36C274.434 12.8573 274.425 12.4457 274.408 12.125C274.399 11.7957 274.377 11.5703 274.343 11.449C274.299 11.2497 274.2 11.1153 274.044 11.046C273.888 10.968 273.593 10.929 273.16 10.929V10.474L275.708 9.98V14.933ZM274.213 7.341C274.213 7.11567 274.291 6.925 274.447 6.769C274.603 6.613 274.793 6.535 275.019 6.535C275.244 6.535 275.435 6.613 275.591 6.769C275.747 6.925 275.825 7.11567 275.825 7.341C275.825 7.56633 275.747 7.757 275.591 7.913C275.435 8.069 275.244 8.147 275.019 8.147C274.793 8.147 274.603 8.069 274.447 7.913C274.291 7.757 274.213 7.56633 274.213 7.341ZM278.094 10.929V10.448C278.554 10.1793 278.913 9.91067 279.173 9.642C279.433 9.37333 279.633 9.05267 279.771 8.68H280.148V10.318H281.89V10.929H280.148V14.881C280.148 15.1843 280.161 15.44 280.187 15.648C280.222 15.856 280.274 16.025 280.343 16.155C280.413 16.2763 280.504 16.363 280.616 16.415C280.729 16.467 280.872 16.493 281.045 16.493C281.262 16.493 281.444 16.4497 281.591 16.363C281.747 16.2677 281.899 16.1117 282.046 15.895L282.371 16.142C282.25 16.4627 282.038 16.7097 281.734 16.883C281.44 17.0477 281.071 17.13 280.629 17.13C280.057 17.13 279.62 16.9957 279.316 16.727C279.022 16.4497 278.874 16.0553 278.874 15.544V10.929H278.094ZM289.673 15.791C288.937 16.6837 288.022 17.13 286.93 17.13C286.419 17.13 285.955 17.0477 285.539 16.883C285.123 16.7097 284.764 16.4713 284.46 16.168C284.166 15.856 283.936 15.4877 283.771 15.063C283.607 14.6297 283.524 14.153 283.524 13.633C283.524 13.1043 283.611 12.6147 283.784 12.164C283.958 11.7133 284.2 11.3277 284.512 11.007C284.833 10.6863 285.21 10.435 285.643 10.253C286.085 10.071 286.566 9.98 287.086 9.98C287.927 9.98 288.577 10.2097 289.036 10.669C289.496 11.1197 289.725 11.7697 289.725 12.619C289.725 12.7403 289.699 12.814 289.647 12.84C289.604 12.866 289.496 12.879 289.322 12.879H285.045C285.028 12.9483 285.015 13.035 285.006 13.139C284.998 13.2343 284.993 13.3427 284.993 13.464C284.993 13.9147 285.045 14.3263 285.149 14.699C285.262 15.063 285.418 15.375 285.617 15.635C285.825 15.895 286.068 16.0987 286.345 16.246C286.631 16.3847 286.948 16.454 287.294 16.454C287.658 16.454 287.996 16.376 288.308 16.22C288.62 16.0553 288.941 15.791 289.27 15.427L289.673 15.791ZM287.528 12.281C287.702 12.281 287.84 12.2767 287.944 12.268C288.048 12.2593 288.126 12.242 288.178 12.216C288.23 12.19 288.265 12.1553 288.282 12.112C288.3 12.06 288.308 11.995 288.308 11.917C288.308 11.5183 288.178 11.202 287.918 10.968C287.667 10.7253 287.32 10.604 286.878 10.604C285.942 10.604 285.362 11.163 285.136 12.281H287.528Z" fill="#6D6B67"/>
</svg>
