<svg width="236" height="25" viewBox="0 0 236 25" fill="none" xmlns="http://www.w3.org/2000/svg">
<path d="M94.3409 5.81818L90.5909 19.75H89.3636L93.1136 5.81818H94.3409Z" fill="#E0DFDC"/>
<path d="M3.64 14.354C3.64 14.8207 3.65867 15.1893 3.696 15.46C3.73333 15.7307 3.80333 15.9407 3.906 16.09C4.018 16.2393 4.172 16.3373 4.368 16.384C4.57333 16.4307 4.83933 16.4587 5.166 16.468V17H0.63V16.468C0.956667 16.4587 1.218 16.4307 1.414 16.384C1.61933 16.328 1.778 16.23 1.89 16.09C2.002 15.95 2.07667 15.754 2.114 15.502C2.15133 15.2407 2.17 14.8907 2.17 14.452V8.768C2.17 8.376 2.15133 8.054 2.114 7.802C2.086 7.54067 2.02067 7.33533 1.918 7.186C1.82467 7.03667 1.68467 6.934 1.498 6.878C1.31133 6.81267 1.06867 6.77067 0.77 6.752V6.22H5.026V6.752C4.72733 6.76133 4.48467 6.79867 4.298 6.864C4.12067 6.92933 3.98067 7.04133 3.878 7.2C3.78467 7.34933 3.71933 7.55933 3.682 7.83C3.654 8.10067 3.64 8.446 3.64 8.866V14.354ZM9.13655 14.816C9.13655 15.1707 9.15055 15.4553 9.17855 15.67C9.20655 15.8847 9.26255 16.0527 9.34655 16.174C9.43988 16.2953 9.56588 16.3793 9.72455 16.426C9.89255 16.4727 10.1119 16.5007 10.3825 16.51V17H6.51855V16.51C6.79855 16.5007 7.02255 16.4727 7.19055 16.426C7.35855 16.37 7.48921 16.286 7.58255 16.174C7.68521 16.062 7.75055 15.908 7.77855 15.712C7.81588 15.5067 7.83455 15.2407 7.83455 14.914V8.88C7.83455 8.376 7.82521 7.956 7.80655 7.62C7.79721 7.27467 7.77855 7.04133 7.75055 6.92C7.70388 6.70533 7.59188 6.56067 7.41455 6.486C7.24655 6.41133 6.93855 6.374 6.49055 6.374V5.898L9.13655 5.38V14.816ZM14.0893 14.816C14.0893 15.1707 14.1033 15.4553 14.1313 15.67C14.1593 15.8847 14.2153 16.0527 14.2993 16.174C14.3926 16.2953 14.5186 16.3793 14.6773 16.426C14.8453 16.4727 15.0646 16.5007 15.3353 16.51V17H11.4713V16.51C11.7513 16.5007 11.9753 16.4727 12.1433 16.426C12.3113 16.37 12.4419 16.286 12.5353 16.174C12.6379 16.062 12.7033 15.908 12.7313 15.712C12.7686 15.5067 12.7873 15.2407 12.7873 14.914V8.88C12.7873 8.376 12.7779 7.956 12.7593 7.62C12.7499 7.27467 12.7313 7.04133 12.7033 6.92C12.6566 6.70533 12.5446 6.56067 12.3673 6.486C12.1993 6.41133 11.8913 6.374 11.4433 6.374V5.898L14.0893 5.38V14.816ZM22.598 11.82C22.598 11.4373 22.5887 11.1387 22.57 10.924C22.5514 10.7 22.5 10.532 22.416 10.42C22.3414 10.2987 22.2247 10.2193 22.066 10.182C21.9167 10.1353 21.7067 10.098 21.436 10.07V9.58H23.97V13.878C23.97 14.41 23.9747 14.844 23.984 15.18C24.0027 15.516 24.026 15.768 24.054 15.936C24.0727 16.0573 24.1007 16.1553 24.138 16.23C24.1847 16.2953 24.25 16.3513 24.334 16.398C24.418 16.4353 24.5253 16.4633 24.656 16.482C24.796 16.4913 24.9733 16.496 25.188 16.496V16.986L22.878 17.154L22.724 15.474H22.668C22.3133 16.0527 21.9027 16.4773 21.436 16.748C20.9787 17.0093 20.498 17.14 19.994 17.14C19.602 17.14 19.2193 17.0653 18.846 16.916C18.482 16.7667 18.2067 16.566 18.02 16.314C17.8613 16.1087 17.7447 15.824 17.67 15.46C17.6047 15.096 17.572 14.6247 17.572 14.046V11.82C17.572 11.4373 17.5627 11.1387 17.544 10.924C17.5253 10.7 17.474 10.532 17.39 10.42C17.3153 10.2987 17.1987 10.2193 17.04 10.182C16.8907 10.1353 16.6807 10.098 16.41 10.07V9.58H18.944V13.402C18.944 14.4193 19.0607 15.1567 19.294 15.614C19.5367 16.0713 19.9193 16.3 20.442 16.3C21.2633 16.3 21.9027 15.7633 22.36 14.69C22.4067 14.578 22.444 14.4753 22.472 14.382C22.5 14.2887 22.5233 14.186 22.542 14.074C22.5607 13.962 22.5747 13.836 22.584 13.696C22.5934 13.556 22.598 13.388 22.598 13.192V11.82ZM27.0989 17H26.7909V14.592H27.1409C27.5049 15.908 28.1676 16.566 29.1289 16.566C29.5023 16.566 29.7963 16.4773 30.0109 16.3C30.2349 16.1133 30.3469 15.8333 30.3469 15.46C30.3469 15.32 30.3236 15.2033 30.2769 15.11C30.2396 15.0073 30.1603 14.9047 30.0389 14.802C29.9269 14.69 29.7636 14.564 29.5489 14.424C29.3436 14.284 29.0683 14.1067 28.7229 13.892C28.4056 13.696 28.1303 13.514 27.8969 13.346C27.6636 13.178 27.4676 13.01 27.3089 12.842C27.1503 12.6647 27.0289 12.478 26.9449 12.282C26.8703 12.086 26.8329 11.8573 26.8329 11.596C26.8329 11.2787 26.8843 10.9893 26.9869 10.728C27.0989 10.4573 27.2483 10.2287 27.4349 10.042C27.6216 9.85533 27.8409 9.71067 28.0929 9.608C28.3449 9.496 28.6203 9.44 28.9189 9.44C29.1709 9.44 29.4323 9.482 29.7029 9.566C29.9736 9.64067 30.2116 9.74333 30.4169 9.874L30.6969 9.58H30.9629V11.596H30.5989C30.3936 11.0267 30.1696 10.6207 29.9269 10.378C29.6843 10.1353 29.3856 10.014 29.0309 10.014C28.7136 10.014 28.4569 10.098 28.2609 10.266C28.0743 10.434 27.9809 10.6673 27.9809 10.966C27.9809 11.1247 28.0043 11.2647 28.0509 11.386C28.1069 11.498 28.1909 11.61 28.3029 11.722C28.4149 11.834 28.5549 11.9507 28.7229 12.072C28.9003 12.184 29.1103 12.3147 29.3529 12.464C29.7543 12.716 30.0949 12.94 30.3749 13.136C30.6643 13.332 30.8976 13.528 31.0749 13.724C31.2523 13.9107 31.3829 14.1067 31.4669 14.312C31.5509 14.5173 31.5929 14.7507 31.5929 15.012C31.5929 15.6747 31.3783 16.1973 30.9489 16.58C30.5196 16.9533 29.9549 17.14 29.2549 17.14C28.5269 17.14 27.9016 16.93 27.3789 16.51L27.0989 17ZM33.2123 10.462V9.944C33.707 9.65467 34.0943 9.36533 34.3743 9.076C34.6543 8.78667 34.869 8.44133 35.0183 8.04H35.4243V9.804H37.3003V10.462H35.4243V14.718C35.4243 15.0447 35.4383 15.32 35.4663 15.544C35.5037 15.768 35.5597 15.95 35.6343 16.09C35.709 16.2207 35.807 16.314 35.9283 16.37C36.0497 16.426 36.2037 16.454 36.3903 16.454C36.6237 16.454 36.8197 16.4073 36.9783 16.314C37.1463 16.2113 37.3097 16.0433 37.4683 15.81L37.8183 16.076C37.6877 16.4213 37.459 16.6873 37.1323 16.874C36.815 17.0513 36.4183 17.14 35.9423 17.14C35.3263 17.14 34.855 16.9953 34.5283 16.706C34.211 16.4073 34.0523 15.9827 34.0523 15.432V10.462H33.2123ZM41.4514 14.774C41.4514 15.1567 41.4607 15.46 41.4794 15.684C41.498 15.908 41.5447 16.0807 41.6194 16.202C41.7034 16.314 41.82 16.3887 41.9694 16.426C42.1187 16.4633 42.3287 16.4913 42.5994 16.51V17H38.8754V16.51C39.146 16.5007 39.3607 16.4773 39.5194 16.44C39.678 16.3933 39.7994 16.314 39.8834 16.202C39.9674 16.09 40.0187 15.9313 40.0374 15.726C40.0654 15.5113 40.0794 15.2267 40.0794 14.872V13.234C40.0794 12.5993 40.07 12.1047 40.0514 11.75C40.042 11.3953 39.9954 11.134 39.9114 10.966C39.8367 10.798 39.7154 10.7 39.5474 10.672C39.3794 10.6347 39.146 10.616 38.8474 10.616V10.126L41.2974 9.594L41.4934 11.33H41.5494C41.6707 11.05 41.82 10.7933 41.9974 10.56C42.184 10.3267 42.3847 10.1307 42.5994 9.972C42.814 9.804 43.038 9.67333 43.2714 9.58C43.5047 9.48667 43.7427 9.44 43.9854 9.44C44.284 9.44 44.5174 9.51467 44.6854 9.664C44.8627 9.804 44.9514 9.99533 44.9514 10.238C44.9514 10.462 44.8814 10.6393 44.7414 10.77C44.6014 10.8913 44.4007 10.952 44.1394 10.952C43.99 10.952 43.864 10.9333 43.7614 10.896C43.6587 10.8587 43.5654 10.8213 43.4814 10.784C43.4067 10.7373 43.332 10.6953 43.2574 10.658C43.192 10.6207 43.1174 10.602 43.0334 10.602C42.7814 10.602 42.5294 10.7653 42.2774 11.092C42.0254 11.4093 41.8294 11.8153 41.6894 12.31C41.6147 12.5807 41.554 12.8887 41.5074 13.234C41.47 13.57 41.4514 13.9247 41.4514 14.298V14.774ZM50.3012 12.856C49.7692 13.0613 49.3166 13.262 48.9432 13.458C48.5792 13.654 48.2852 13.85 48.0612 14.046C47.8372 14.242 47.6739 14.438 47.5712 14.634C47.4779 14.83 47.4312 15.0307 47.4312 15.236C47.4312 15.544 47.5339 15.796 47.7392 15.992C47.9446 16.188 48.2152 16.286 48.5512 16.286C48.7939 16.286 49.0179 16.2253 49.2232 16.104C49.4379 15.9827 49.6246 15.8193 49.7832 15.614C49.9419 15.3993 50.0679 15.152 50.1612 14.872C50.2546 14.5827 50.3012 14.2793 50.3012 13.962V12.856ZM50.3012 12.254V11.68C50.3012 10.5413 49.8159 9.972 48.8452 9.972C48.6866 9.972 48.5512 9.986 48.4392 10.014C48.3272 10.042 48.2339 10.0887 48.1592 10.154C48.0846 10.2193 48.0146 10.3127 47.9492 10.434C47.8932 10.5553 47.8372 10.7047 47.7812 10.882C47.6786 11.1527 47.5759 11.3347 47.4732 11.428C47.3799 11.512 47.2399 11.554 47.0532 11.554C46.5866 11.554 46.3532 11.3207 46.3532 10.854C46.3532 10.406 46.5912 10.0607 47.0672 9.818C47.5432 9.566 48.2199 9.44 49.0972 9.44C50.0306 9.44 50.6932 9.608 51.0852 9.944C51.4772 10.2707 51.6732 10.8307 51.6732 11.624V14.76C51.6732 15.824 51.8832 16.356 52.3032 16.356C52.4339 16.356 52.5599 16.342 52.6812 16.314C52.8026 16.2767 52.9052 16.188 52.9892 16.048L53.1852 16.384C53.0732 16.5987 52.8679 16.7807 52.5692 16.93C52.2706 17.07 51.9579 17.14 51.6312 17.14C51.2206 17.14 50.9126 17.0093 50.7072 16.748C50.5112 16.4867 50.4132 16.118 50.4132 15.642H50.3432C50.1006 16.0993 49.7646 16.4633 49.3352 16.734C48.9059 16.9953 48.4299 17.126 47.9072 17.126C47.3192 17.126 46.8572 16.9767 46.5212 16.678C46.1852 16.3793 46.0172 15.978 46.0172 15.474C46.0172 15.25 46.0546 15.0353 46.1292 14.83C46.2132 14.6247 46.3439 14.4287 46.5212 14.242C46.6986 14.0553 46.9319 13.8733 47.2212 13.696C47.5106 13.5093 47.8652 13.3227 48.2852 13.136L50.3012 12.254ZM54.1272 10.462V9.944C54.6219 9.65467 55.0092 9.36533 55.2892 9.076C55.5692 8.78667 55.7839 8.44133 55.9332 8.04H56.3392V9.804H58.2152V10.462H56.3392V14.718C56.3392 15.0447 56.3532 15.32 56.3812 15.544C56.4185 15.768 56.4745 15.95 56.5492 16.09C56.6239 16.2207 56.7219 16.314 56.8432 16.37C56.9645 16.426 57.1185 16.454 57.3052 16.454C57.5385 16.454 57.7345 16.4073 57.8932 16.314C58.0612 16.2113 58.2245 16.0433 58.3832 15.81L58.7332 16.076C58.6025 16.4213 58.3739 16.6873 58.0472 16.874C57.7299 17.0513 57.3332 17.14 56.8572 17.14C56.2412 17.14 55.7699 16.9953 55.4432 16.706C55.1259 16.4073 54.9672 15.9827 54.9672 15.432V10.462H54.1272ZM62.4502 14.774C62.4502 15.138 62.4642 15.432 62.4922 15.656C62.5295 15.8707 62.5949 16.0433 62.6882 16.174C62.7815 16.2953 62.9122 16.3793 63.0802 16.426C63.2482 16.4727 63.4722 16.5007 63.7522 16.51V17H59.7342V16.51C60.0142 16.5007 60.2429 16.4727 60.4202 16.426C60.5975 16.37 60.7329 16.286 60.8262 16.174C60.9289 16.0527 60.9942 15.8893 61.0222 15.684C61.0595 15.4693 61.0782 15.1987 61.0782 14.872V13.08C61.0782 12.5387 61.0689 12.0953 61.0502 11.75C61.0409 11.3953 61.0175 11.1527 60.9802 11.022C60.9335 10.8073 60.8262 10.6627 60.6582 10.588C60.4902 10.504 60.1729 10.462 59.7062 10.462V9.972L62.4502 9.44V14.774ZM60.8402 6.598C60.8402 6.35533 60.9242 6.15 61.0922 5.982C61.2602 5.814 61.4655 5.73 61.7082 5.73C61.9509 5.73 62.1562 5.814 62.3242 5.982C62.4922 6.15 62.5762 6.35533 62.5762 6.598C62.5762 6.84067 62.4922 7.046 62.3242 7.214C62.1562 7.382 61.9509 7.466 61.7082 7.466C61.4655 7.466 61.2602 7.382 61.0922 7.214C60.9242 7.046 60.8402 6.84067 60.8402 6.598ZM68.9797 9.44C69.5117 9.44 70.0157 9.538 70.4917 9.734C70.9677 9.92067 71.383 10.182 71.7377 10.518C72.1017 10.854 72.3864 11.2553 72.5917 11.722C72.8064 12.1793 72.9137 12.6833 72.9137 13.234C72.9137 13.8033 72.8064 14.326 72.5917 14.802C72.3864 15.278 72.1017 15.6887 71.7377 16.034C71.383 16.3793 70.9677 16.65 70.4917 16.846C70.0157 17.042 69.5117 17.14 68.9797 17.14C68.457 17.14 67.9577 17.0467 67.4817 16.86C67.015 16.664 66.6044 16.3933 66.2497 16.048C65.895 15.7027 65.615 15.292 65.4097 14.816C65.2044 14.3307 65.1017 13.8033 65.1017 13.234C65.1017 12.6833 65.2044 12.1747 65.4097 11.708C65.615 11.2413 65.895 10.84 66.2497 10.504C66.6044 10.168 67.015 9.90667 67.4817 9.72C67.9577 9.53333 68.457 9.44 68.9797 9.44ZM68.9797 10.112C68.6344 10.112 68.317 10.1867 68.0277 10.336C67.7477 10.4853 67.505 10.7 67.2997 10.98C67.1037 11.2507 66.9497 11.582 66.8377 11.974C66.735 12.3567 66.6837 12.7813 66.6837 13.248C66.6837 13.7333 66.735 14.172 66.8377 14.564C66.9497 14.956 67.1037 15.292 67.2997 15.572C67.505 15.8427 67.7477 16.0527 68.0277 16.202C68.3077 16.3513 68.625 16.426 68.9797 16.426C69.3344 16.426 69.6564 16.3513 69.9457 16.202C70.235 16.0527 70.4824 15.838 70.6877 15.558C70.893 15.278 71.0517 14.942 71.1637 14.55C71.2757 14.158 71.3317 13.724 71.3317 13.248C71.3317 12.7813 71.2757 12.3567 71.1637 11.974C71.0517 11.5913 70.893 11.2647 70.6877 10.994C70.4824 10.714 70.235 10.4993 69.9457 10.35C69.6564 10.1913 69.3344 10.112 68.9797 10.112ZM77.0138 14.802C77.0138 15.1847 77.0232 15.488 77.0418 15.712C77.0605 15.9267 77.1072 16.0947 77.1818 16.216C77.2658 16.328 77.3825 16.4027 77.5318 16.44C77.6905 16.4773 77.9052 16.5053 78.1758 16.524V17H74.5078V16.524C74.7692 16.5053 74.9745 16.4773 75.1238 16.44C75.2825 16.4027 75.4038 16.328 75.4878 16.216C75.5718 16.104 75.6232 15.9453 75.6418 15.74C75.6698 15.5347 75.6838 15.2547 75.6838 14.9V13.038C75.6838 11.9273 75.6558 11.2507 75.5998 11.008C75.5718 10.8867 75.5345 10.7887 75.4878 10.714C75.4505 10.63 75.3898 10.5693 75.3058 10.532C75.2218 10.4853 75.1145 10.4573 74.9838 10.448C74.8532 10.4293 74.6852 10.42 74.4798 10.42V9.972L76.7198 9.44L76.8878 10.826H76.9438C77.2985 10.3873 77.7138 10.0467 78.1898 9.804C78.6658 9.56133 79.1838 9.44 79.7438 9.44C80.1732 9.44 80.5652 9.51 80.9198 9.65C81.2745 9.79 81.5452 9.98133 81.7318 10.224C81.8905 10.4387 82.0025 10.7187 82.0678 11.064C82.1332 11.4 82.1658 11.8667 82.1658 12.464V14.802C82.1658 15.1847 82.1752 15.488 82.1938 15.712C82.2218 15.9267 82.2732 16.0947 82.3478 16.216C82.4225 16.328 82.5345 16.4027 82.6838 16.44C82.8425 16.4773 83.0478 16.5053 83.2998 16.524V17H79.6738V16.524C79.9352 16.5147 80.1405 16.4913 80.2898 16.454C80.4485 16.4073 80.5652 16.328 80.6398 16.216C80.7238 16.104 80.7752 15.9453 80.7938 15.74C80.8218 15.5253 80.8358 15.2453 80.8358 14.9V13.052C80.8358 12.52 80.8078 12.072 80.7518 11.708C80.6958 11.344 80.6025 11.05 80.4718 10.826C80.3505 10.602 80.1872 10.4433 79.9818 10.35C79.7765 10.2473 79.5292 10.196 79.2398 10.196C78.8198 10.196 78.4325 10.308 78.0778 10.532C77.7325 10.7467 77.4618 11.0453 77.2658 11.428C77.2192 11.5213 77.1772 11.61 77.1398 11.694C77.1118 11.778 77.0885 11.876 77.0698 11.988C77.0512 12.1 77.0372 12.2307 77.0278 12.38C77.0185 12.52 77.0138 12.702 77.0138 12.926V14.802Z" fill="#6D6B67"/>
<path d="M225.341 5.81818L221.591 19.75H220.364L224.114 5.81818H225.341Z" fill="black"/>
<path d="M109.936 14.858L112.4 8.782C112.54 8.43667 112.638 8.166 112.694 7.97C112.75 7.774 112.778 7.59667 112.778 7.438C112.778 7.186 112.699 7.00867 112.54 6.906C112.391 6.80333 112.106 6.752 111.686 6.752V6.22H115.088V6.752C114.873 6.78 114.687 6.81733 114.528 6.864C114.379 6.91067 114.243 6.976 114.122 7.06C114.01 7.144 113.907 7.256 113.814 7.396C113.73 7.52667 113.646 7.69 113.562 7.886L109.768 17.14H109.278L105.666 8.418C105.545 8.138 105.423 7.89533 105.302 7.69C105.19 7.48467 105.064 7.31667 104.924 7.186C104.784 7.05533 104.625 6.95733 104.448 6.892C104.271 6.82667 104.061 6.78467 103.818 6.766V6.22H108.382V6.766C108.121 6.766 107.906 6.78 107.738 6.808C107.579 6.82667 107.453 6.864 107.36 6.92C107.267 6.96667 107.201 7.02733 107.164 7.102C107.127 7.17667 107.108 7.26067 107.108 7.354C107.108 7.48467 107.131 7.63867 107.178 7.816C107.225 7.984 107.313 8.23133 107.444 8.558L109.936 14.858ZM118.447 14.774C118.447 15.138 118.461 15.432 118.489 15.656C118.527 15.8707 118.592 16.0433 118.685 16.174C118.779 16.2953 118.909 16.3793 119.077 16.426C119.245 16.4727 119.469 16.5007 119.749 16.51V17H115.731V16.51C116.011 16.5007 116.24 16.4727 116.417 16.426C116.595 16.37 116.73 16.286 116.823 16.174C116.926 16.0527 116.991 15.8893 117.019 15.684C117.057 15.4693 117.075 15.1987 117.075 14.872V13.08C117.075 12.5387 117.066 12.0953 117.047 11.75C117.038 11.3953 117.015 11.1527 116.977 11.022C116.931 10.8073 116.823 10.6627 116.655 10.588C116.487 10.504 116.17 10.462 115.703 10.462V9.972L118.447 9.44V14.774ZM116.837 6.598C116.837 6.35533 116.921 6.15 117.089 5.982C117.257 5.814 117.463 5.73 117.705 5.73C117.948 5.73 118.153 5.814 118.321 5.982C118.489 6.15 118.573 6.35533 118.573 6.598C118.573 6.84067 118.489 7.046 118.321 7.214C118.153 7.382 117.948 7.466 117.705 7.466C117.463 7.466 117.257 7.382 117.089 7.214C116.921 7.046 116.837 6.84067 116.837 6.598ZM121.631 17H121.323V14.592H121.673C122.037 15.908 122.7 16.566 123.661 16.566C124.034 16.566 124.328 16.4773 124.543 16.3C124.767 16.1133 124.879 15.8333 124.879 15.46C124.879 15.32 124.856 15.2033 124.809 15.11C124.772 15.0073 124.692 14.9047 124.571 14.802C124.459 14.69 124.296 14.564 124.081 14.424C123.876 14.284 123.6 14.1067 123.255 13.892C122.938 13.696 122.662 13.514 122.429 13.346C122.196 13.178 122 13.01 121.841 12.842C121.682 12.6647 121.561 12.478 121.477 12.282C121.402 12.086 121.365 11.8573 121.365 11.596C121.365 11.2787 121.416 10.9893 121.519 10.728C121.631 10.4573 121.78 10.2287 121.967 10.042C122.154 9.85533 122.373 9.71067 122.625 9.608C122.877 9.496 123.152 9.44 123.451 9.44C123.703 9.44 123.964 9.482 124.235 9.566C124.506 9.64067 124.744 9.74333 124.949 9.874L125.229 9.58H125.495V11.596H125.131C124.926 11.0267 124.702 10.6207 124.459 10.378C124.216 10.1353 123.918 10.014 123.563 10.014C123.246 10.014 122.989 10.098 122.793 10.266C122.606 10.434 122.513 10.6673 122.513 10.966C122.513 11.1247 122.536 11.2647 122.583 11.386C122.639 11.498 122.723 11.61 122.835 11.722C122.947 11.834 123.087 11.9507 123.255 12.072C123.432 12.184 123.642 12.3147 123.885 12.464C124.286 12.716 124.627 12.94 124.907 13.136C125.196 13.332 125.43 13.528 125.607 13.724C125.784 13.9107 125.915 14.1067 125.999 14.312C126.083 14.5173 126.125 14.7507 126.125 15.012C126.125 15.6747 125.91 16.1973 125.481 16.58C125.052 16.9533 124.487 17.14 123.787 17.14C123.059 17.14 122.434 16.93 121.911 16.51L121.631 17ZM133.666 11.82C133.666 11.4373 133.657 11.1387 133.638 10.924C133.62 10.7 133.568 10.532 133.484 10.42C133.41 10.2987 133.293 10.2193 133.134 10.182C132.985 10.1353 132.775 10.098 132.504 10.07V9.58H135.038V13.878C135.038 14.41 135.043 14.844 135.052 15.18C135.071 15.516 135.094 15.768 135.122 15.936C135.141 16.0573 135.169 16.1553 135.206 16.23C135.253 16.2953 135.318 16.3513 135.402 16.398C135.486 16.4353 135.594 16.4633 135.724 16.482C135.864 16.4913 136.042 16.496 136.256 16.496V16.986L133.946 17.154L133.792 15.474H133.736C133.382 16.0527 132.971 16.4773 132.504 16.748C132.047 17.0093 131.566 17.14 131.062 17.14C130.67 17.14 130.288 17.0653 129.914 16.916C129.55 16.7667 129.275 16.566 129.088 16.314C128.93 16.1087 128.813 15.824 128.738 15.46C128.673 15.096 128.64 14.6247 128.64 14.046V11.82C128.64 11.4373 128.631 11.1387 128.612 10.924C128.594 10.7 128.542 10.532 128.458 10.42C128.384 10.2987 128.267 10.2193 128.108 10.182C127.959 10.1353 127.749 10.098 127.478 10.07V9.58H130.012V13.402C130.012 14.4193 130.129 15.1567 130.362 15.614C130.605 16.0713 130.988 16.3 131.51 16.3C132.332 16.3 132.971 15.7633 133.428 14.69C133.475 14.578 133.512 14.4753 133.54 14.382C133.568 14.2887 133.592 14.186 133.61 14.074C133.629 13.962 133.643 13.836 133.652 13.696C133.662 13.556 133.666 13.388 133.666 13.192V11.82ZM141.849 12.856C141.317 13.0613 140.865 13.262 140.491 13.458C140.127 13.654 139.833 13.85 139.609 14.046C139.385 14.242 139.222 14.438 139.119 14.634C139.026 14.83 138.979 15.0307 138.979 15.236C138.979 15.544 139.082 15.796 139.287 15.992C139.493 16.188 139.763 16.286 140.099 16.286C140.342 16.286 140.566 16.2253 140.771 16.104C140.986 15.9827 141.173 15.8193 141.331 15.614C141.49 15.3993 141.616 15.152 141.709 14.872C141.803 14.5827 141.849 14.2793 141.849 13.962V12.856ZM141.849 12.254V11.68C141.849 10.5413 141.364 9.972 140.393 9.972C140.235 9.972 140.099 9.986 139.987 10.014C139.875 10.042 139.782 10.0887 139.707 10.154C139.633 10.2193 139.563 10.3127 139.497 10.434C139.441 10.5553 139.385 10.7047 139.329 10.882C139.227 11.1527 139.124 11.3347 139.021 11.428C138.928 11.512 138.788 11.554 138.601 11.554C138.135 11.554 137.901 11.3207 137.901 10.854C137.901 10.406 138.139 10.0607 138.615 9.818C139.091 9.566 139.768 9.44 140.645 9.44C141.579 9.44 142.241 9.608 142.633 9.944C143.025 10.2707 143.221 10.8307 143.221 11.624V14.76C143.221 15.824 143.431 16.356 143.851 16.356C143.982 16.356 144.108 16.342 144.229 16.314C144.351 16.2767 144.453 16.188 144.537 16.048L144.733 16.384C144.621 16.5987 144.416 16.7807 144.117 16.93C143.819 17.07 143.506 17.14 143.179 17.14C142.769 17.14 142.461 17.0093 142.255 16.748C142.059 16.4867 141.961 16.118 141.961 15.642H141.891C141.649 16.0993 141.313 16.4633 140.883 16.734C140.454 16.9953 139.978 17.126 139.455 17.126C138.867 17.126 138.405 16.9767 138.069 16.678C137.733 16.3793 137.565 15.978 137.565 15.474C137.565 15.25 137.603 15.0353 137.677 14.83C137.761 14.6247 137.892 14.4287 138.069 14.242C138.247 14.0553 138.48 13.8733 138.769 13.696C139.059 13.5093 139.413 13.3227 139.833 13.136L141.849 12.254ZM148.041 14.816C148.041 15.1707 148.055 15.4553 148.083 15.67C148.111 15.8847 148.167 16.0527 148.251 16.174C148.345 16.2953 148.471 16.3793 148.629 16.426C148.797 16.4727 149.017 16.5007 149.287 16.51V17H145.423V16.51C145.703 16.5007 145.927 16.4727 146.095 16.426C146.263 16.37 146.394 16.286 146.487 16.174C146.59 16.062 146.655 15.908 146.683 15.712C146.721 15.5067 146.739 15.2407 146.739 14.914V8.88C146.739 8.376 146.73 7.956 146.711 7.62C146.702 7.27467 146.683 7.04133 146.655 6.92C146.609 6.70533 146.497 6.56067 146.319 6.486C146.151 6.41133 145.843 6.374 145.395 6.374V5.898L148.041 5.38V14.816ZM158.127 14.354C158.127 14.8207 158.146 15.1893 158.183 15.46C158.221 15.7307 158.291 15.9407 158.393 16.09C158.505 16.2393 158.659 16.3373 158.855 16.384C159.061 16.4307 159.327 16.4587 159.653 16.468V17H155.117V16.468C155.444 16.4587 155.705 16.4307 155.901 16.384C156.107 16.328 156.265 16.23 156.377 16.09C156.489 15.95 156.564 15.754 156.601 15.502C156.639 15.2407 156.657 14.8907 156.657 14.452V8.768C156.657 8.376 156.639 8.054 156.601 7.802C156.573 7.54067 156.508 7.33533 156.405 7.186C156.312 7.03667 156.172 6.934 155.985 6.878C155.799 6.81267 155.556 6.77067 155.257 6.752V6.22H159.513V6.752C159.215 6.76133 158.972 6.79867 158.785 6.864C158.608 6.92933 158.468 7.04133 158.365 7.2C158.272 7.34933 158.207 7.55933 158.169 7.83C158.141 8.10067 158.127 8.446 158.127 8.866V14.354ZM167.119 15.824H167.063C166.727 16.3 166.367 16.6407 165.985 16.846C165.611 17.042 165.168 17.14 164.655 17.14C164.123 17.14 163.633 17.0467 163.185 16.86C162.746 16.664 162.363 16.398 162.037 16.062C161.719 15.7167 161.467 15.306 161.281 14.83C161.103 14.354 161.015 13.836 161.015 13.276C161.015 12.7253 161.103 12.2167 161.281 11.75C161.467 11.274 161.719 10.868 162.037 10.532C162.363 10.1867 162.751 9.92067 163.199 9.734C163.647 9.538 164.132 9.44 164.655 9.44C165.103 9.44 165.499 9.51467 165.845 9.664C166.199 9.81333 166.54 10.0513 166.867 10.378V8.95C166.867 8.418 166.857 7.97467 166.839 7.62C166.829 7.26533 166.811 7.02267 166.783 6.892C166.736 6.68667 166.605 6.542 166.391 6.458C166.176 6.374 165.826 6.332 165.341 6.332V5.912L168.211 5.38V13.458C168.211 14.102 168.215 14.634 168.225 15.054C168.234 15.4647 168.262 15.7587 168.309 15.936C168.337 16.048 168.369 16.1413 168.407 16.216C168.453 16.2907 168.514 16.3513 168.589 16.398C168.673 16.4353 168.78 16.4633 168.911 16.482C169.051 16.5007 169.228 16.51 169.443 16.51V16.986L167.119 17.14V15.824ZM166.839 12.73C166.839 12.2447 166.811 11.876 166.755 11.624C166.708 11.372 166.61 11.1527 166.461 10.966C166.246 10.686 165.971 10.476 165.635 10.336C165.308 10.1867 164.981 10.112 164.655 10.112C163.983 10.112 163.469 10.392 163.115 10.952C162.769 11.5027 162.597 12.254 162.597 13.206C162.597 13.7007 162.639 14.1487 162.723 14.55C162.816 14.9513 162.947 15.2967 163.115 15.586C163.292 15.866 163.507 16.0853 163.759 16.244C164.02 16.3933 164.319 16.468 164.655 16.468C164.823 16.468 164.991 16.4493 165.159 16.412C165.336 16.3747 165.504 16.3187 165.663 16.244C165.831 16.16 165.985 16.0667 166.125 15.964C166.265 15.852 166.381 15.726 166.475 15.586C166.605 15.3807 166.699 15.1333 166.755 14.844C166.811 14.5547 166.839 14.158 166.839 13.654V12.73ZM177.498 15.698C176.705 16.6593 175.72 17.14 174.544 17.14C173.993 17.14 173.494 17.0513 173.046 16.874C172.598 16.6873 172.211 16.4307 171.884 16.104C171.567 15.768 171.319 15.3713 171.142 14.914C170.965 14.4473 170.876 13.934 170.876 13.374C170.876 12.8047 170.969 12.2773 171.156 11.792C171.343 11.3067 171.604 10.8913 171.94 10.546C172.285 10.2007 172.691 9.93 173.158 9.734C173.634 9.538 174.152 9.44 174.712 9.44C175.617 9.44 176.317 9.68733 176.812 10.182C177.307 10.6673 177.554 11.3673 177.554 12.282C177.554 12.4127 177.526 12.492 177.47 12.52C177.423 12.548 177.307 12.562 177.12 12.562H172.514C172.495 12.6367 172.481 12.73 172.472 12.842C172.463 12.9447 172.458 13.0613 172.458 13.192C172.458 13.6773 172.514 14.1207 172.626 14.522C172.747 14.914 172.915 15.25 173.13 15.53C173.354 15.81 173.615 16.0293 173.914 16.188C174.222 16.3373 174.563 16.412 174.936 16.412C175.328 16.412 175.692 16.328 176.028 16.16C176.364 15.9827 176.709 15.698 177.064 15.306L177.498 15.698ZM175.188 11.918C175.375 11.918 175.524 11.9133 175.636 11.904C175.748 11.8947 175.832 11.876 175.888 11.848C175.944 11.82 175.981 11.7827 176 11.736C176.019 11.68 176.028 11.61 176.028 11.526C176.028 11.0967 175.888 10.756 175.608 10.504C175.337 10.2427 174.964 10.112 174.488 10.112C173.48 10.112 172.855 10.714 172.612 11.918H175.188ZM181.639 14.802C181.639 15.1847 181.649 15.488 181.667 15.712C181.686 15.9267 181.733 16.0947 181.807 16.216C181.891 16.328 182.008 16.4027 182.157 16.44C182.316 16.4773 182.531 16.5053 182.801 16.524V17H179.133V16.524C179.395 16.5053 179.6 16.4773 179.749 16.44C179.908 16.4027 180.029 16.328 180.113 16.216C180.197 16.104 180.249 15.9453 180.267 15.74C180.295 15.5347 180.309 15.2547 180.309 14.9V13.038C180.309 11.9273 180.281 11.2507 180.225 11.008C180.197 10.8867 180.16 10.7887 180.113 10.714C180.076 10.63 180.015 10.5693 179.931 10.532C179.847 10.4853 179.74 10.4573 179.609 10.448C179.479 10.4293 179.311 10.42 179.105 10.42V9.972L181.345 9.44L181.513 10.826H181.569C181.924 10.3873 182.339 10.0467 182.815 9.804C183.291 9.56133 183.809 9.44 184.369 9.44C184.799 9.44 185.191 9.51 185.545 9.65C185.9 9.79 186.171 9.98133 186.357 10.224C186.516 10.4387 186.628 10.7187 186.693 11.064C186.759 11.4 186.791 11.8667 186.791 12.464V14.802C186.791 15.1847 186.801 15.488 186.819 15.712C186.847 15.9267 186.899 16.0947 186.973 16.216C187.048 16.328 187.16 16.4027 187.309 16.44C187.468 16.4773 187.673 16.5053 187.925 16.524V17H184.299V16.524C184.561 16.5147 184.766 16.4913 184.915 16.454C185.074 16.4073 185.191 16.328 185.265 16.216C185.349 16.104 185.401 15.9453 185.419 15.74C185.447 15.5253 185.461 15.2453 185.461 14.9V13.052C185.461 12.52 185.433 12.072 185.377 11.708C185.321 11.344 185.228 11.05 185.097 10.826C184.976 10.602 184.813 10.4433 184.607 10.35C184.402 10.2473 184.155 10.196 183.865 10.196C183.445 10.196 183.058 10.308 182.703 10.532C182.358 10.7467 182.087 11.0453 181.891 11.428C181.845 11.5213 181.803 11.61 181.765 11.694C181.737 11.778 181.714 11.876 181.695 11.988C181.677 12.1 181.663 12.2307 181.653 12.38C181.644 12.52 181.639 12.702 181.639 12.926V14.802ZM189.228 10.462V9.944C189.722 9.65467 190.11 9.36533 190.39 9.076C190.67 8.78667 190.884 8.44133 191.034 8.04H191.44V9.804H193.316V10.462H191.44V14.718C191.44 15.0447 191.454 15.32 191.482 15.544C191.519 15.768 191.575 15.95 191.65 16.09C191.724 16.2207 191.822 16.314 191.944 16.37C192.065 16.426 192.219 16.454 192.406 16.454C192.639 16.454 192.835 16.4073 192.994 16.314C193.162 16.2113 193.325 16.0433 193.484 15.81L193.834 16.076C193.703 16.4213 193.474 16.6873 193.148 16.874C192.83 17.0513 192.434 17.14 191.958 17.14C191.342 17.14 190.87 16.9953 190.544 16.706C190.226 16.4073 190.068 15.9827 190.068 15.432V10.462H189.228ZM197.551 14.774C197.551 15.138 197.565 15.432 197.593 15.656C197.63 15.8707 197.695 16.0433 197.789 16.174C197.882 16.2953 198.013 16.3793 198.181 16.426C198.349 16.4727 198.573 16.5007 198.853 16.51V17H194.835V16.51C195.115 16.5007 195.343 16.4727 195.521 16.426C195.698 16.37 195.833 16.286 195.927 16.174C196.029 16.0527 196.095 15.8893 196.123 15.684C196.16 15.4693 196.179 15.1987 196.179 14.872V13.08C196.179 12.5387 196.169 12.0953 196.151 11.75C196.141 11.3953 196.118 11.1527 196.081 11.022C196.034 10.8073 195.927 10.6627 195.759 10.588C195.591 10.504 195.273 10.462 194.807 10.462V9.972L197.551 9.44V14.774ZM195.941 6.598C195.941 6.35533 196.025 6.15 196.193 5.982C196.361 5.814 196.566 5.73 196.809 5.73C197.051 5.73 197.257 5.814 197.425 5.982C197.593 6.15 197.677 6.35533 197.677 6.598C197.677 6.84067 197.593 7.046 197.425 7.214C197.257 7.382 197.051 7.466 196.809 7.466C196.566 7.466 196.361 7.382 196.193 7.214C196.025 7.046 195.941 6.84067 195.941 6.598ZM200.09 10.462V9.944C200.585 9.65467 200.972 9.36533 201.252 9.076C201.532 8.78667 201.747 8.44133 201.896 8.04H202.302V9.804H204.178V10.462H202.302V14.718C202.302 15.0447 202.316 15.32 202.344 15.544C202.381 15.768 202.437 15.95 202.512 16.09C202.587 16.2207 202.685 16.314 202.806 16.37C202.927 16.426 203.081 16.454 203.268 16.454C203.501 16.454 203.697 16.4073 203.856 16.314C204.024 16.2113 204.187 16.0433 204.346 15.81L204.696 16.076C204.565 16.4213 204.337 16.6873 204.01 16.874C203.693 17.0513 203.296 17.14 202.82 17.14C202.204 17.14 201.733 16.9953 201.406 16.706C201.089 16.4073 200.93 15.9827 200.93 15.432V10.462H200.09ZM209.155 19.198C208.726 20.1593 208.058 20.64 207.153 20.64C206.565 20.64 206.271 20.4207 206.271 19.982C206.271 19.7487 206.35 19.576 206.509 19.464C206.677 19.3613 206.98 19.2727 207.419 19.198C207.615 19.17 207.783 19.128 207.923 19.072C208.063 19.0253 208.189 18.96 208.301 18.876C208.413 18.8013 208.511 18.7033 208.595 18.582C208.688 18.4607 208.777 18.3113 208.861 18.134L209.351 17.154L206.663 11.316C206.542 11.0547 206.434 10.8493 206.341 10.7C206.257 10.5413 206.164 10.42 206.061 10.336C205.968 10.2427 205.86 10.182 205.739 10.154C205.618 10.1167 205.464 10.0887 205.277 10.07V9.58H208.987V10.07C208.362 10.07 208.049 10.224 208.049 10.532C208.049 10.6533 208.086 10.8447 208.161 11.106C208.236 11.3673 208.329 11.6333 208.441 11.904L209.981 15.628H210.051L211.325 12.478C211.446 12.17 211.544 11.918 211.619 11.722C211.703 11.526 211.764 11.3673 211.801 11.246C211.848 11.1153 211.876 11.008 211.885 10.924C211.904 10.84 211.913 10.7607 211.913 10.686C211.913 10.4433 211.843 10.28 211.703 10.196C211.572 10.112 211.316 10.07 210.933 10.07V9.58H214.013V10.07C213.836 10.07 213.686 10.0933 213.565 10.14C213.444 10.1867 213.318 10.294 213.187 10.462C213.066 10.6207 212.926 10.854 212.767 11.162C212.618 11.47 212.431 11.8853 212.207 12.408L209.155 19.198Z" fill="#6D6B67"/>
</svg>
