<svg width="321" height="25" viewBox="0 0 321 25" fill="none" xmlns="http://www.w3.org/2000/svg">
<path d="M7.832 14.094H4.094C3.93533 14.4767 3.8 14.8173 3.688 15.116C3.576 15.4053 3.48267 15.6573 3.408 15.872C3.34267 16.0867 3.296 16.2687 3.268 16.418C3.24 16.5673 3.226 16.6887 3.226 16.782C3.226 17.0433 3.31 17.2253 3.478 17.328C3.646 17.4213 3.926 17.468 4.318 17.468V18H0.916V17.468C1.13067 17.44 1.31267 17.4027 1.462 17.356C1.62067 17.3093 1.756 17.244 1.868 17.16C1.98933 17.076 2.092 16.9687 2.176 16.838C2.26933 16.698 2.358 16.53 2.442 16.334L6.082 7.22H6.684L9.862 15.116C10.0767 15.6387 10.2633 16.0587 10.422 16.376C10.5807 16.684 10.7347 16.9173 10.884 17.076C11.0333 17.2347 11.192 17.3373 11.36 17.384C11.5373 17.4307 11.7473 17.454 11.99 17.454V18H7.426V17.454C7.92067 17.454 8.26133 17.4073 8.448 17.314C8.63467 17.2207 8.728 17.0667 8.728 16.852C8.728 16.7587 8.72333 16.6747 8.714 16.6C8.70467 16.516 8.686 16.4273 8.658 16.334C8.63933 16.2407 8.60667 16.138 8.56 16.026C8.52267 15.9047 8.47133 15.7647 8.406 15.606L7.832 14.094ZM4.374 13.394H7.566L6.012 9.264L4.374 13.394ZM15.3225 15.774C15.3225 16.1567 15.3318 16.46 15.3505 16.684C15.3691 16.908 15.4158 17.0807 15.4905 17.202C15.5745 17.314 15.6911 17.3887 15.8405 17.426C15.9898 17.4633 16.1998 17.4913 16.4705 17.51V18H12.7465V17.51C13.0171 17.5007 13.2318 17.4773 13.3905 17.44C13.5491 17.3933 13.6705 17.314 13.7545 17.202C13.8385 17.09 13.8898 16.9313 13.9085 16.726C13.9365 16.5113 13.9505 16.2267 13.9505 15.872V14.234C13.9505 13.5993 13.9411 13.1047 13.9225 12.75C13.9131 12.3953 13.8665 12.134 13.7825 11.966C13.7078 11.798 13.5865 11.7 13.4185 11.672C13.2505 11.6347 13.0171 11.616 12.7185 11.616V11.126L15.1685 10.594L15.3645 12.33H15.4205C15.5418 12.05 15.6911 11.7933 15.8685 11.56C16.0551 11.3267 16.2558 11.1307 16.4705 10.972C16.6851 10.804 16.9091 10.6733 17.1425 10.58C17.3758 10.4867 17.6138 10.44 17.8565 10.44C18.1551 10.44 18.3885 10.5147 18.5565 10.664C18.7338 10.804 18.8225 10.9953 18.8225 11.238C18.8225 11.462 18.7525 11.6393 18.6125 11.77C18.4725 11.8913 18.2718 11.952 18.0105 11.952C17.8611 11.952 17.7351 11.9333 17.6325 11.896C17.5298 11.8587 17.4365 11.8213 17.3525 11.784C17.2778 11.7373 17.2031 11.6953 17.1285 11.658C17.0631 11.6207 16.9885 11.602 16.9045 11.602C16.6525 11.602 16.4005 11.7653 16.1485 12.092C15.8965 12.4093 15.7005 12.8153 15.5605 13.31C15.4858 13.5807 15.4251 13.8887 15.3785 14.234C15.3411 14.57 15.3225 14.9247 15.3225 15.298V15.774ZM19.8463 11.462V10.944C20.341 10.6547 20.7283 10.3653 21.0083 10.076C21.2883 9.78667 21.503 9.44133 21.6523 9.04H22.0583V10.804H23.9343V11.462H22.0583V15.718C22.0583 16.0447 22.0723 16.32 22.1003 16.544C22.1377 16.768 22.1937 16.95 22.2683 17.09C22.343 17.2207 22.441 17.314 22.5623 17.37C22.6837 17.426 22.8377 17.454 23.0243 17.454C23.2577 17.454 23.4537 17.4073 23.6123 17.314C23.7803 17.2113 23.9437 17.0433 24.1023 16.81L24.4523 17.076C24.3217 17.4213 24.093 17.6873 23.7663 17.874C23.449 18.0513 23.0523 18.14 22.5763 18.14C21.9603 18.14 21.489 17.9953 21.1623 17.706C20.845 17.4073 20.6863 16.9827 20.6863 16.432V11.462H19.8463ZM29.9289 18V17.468C30.2835 17.4587 30.5682 17.4353 30.7829 17.398C31.0069 17.3513 31.1795 17.272 31.3009 17.16C31.4222 17.0387 31.5015 16.88 31.5389 16.684C31.5855 16.4787 31.6089 16.208 31.6089 15.872V9.348C31.6089 9.02133 31.5902 8.76 31.5529 8.564C31.5249 8.35867 31.4595 8.2 31.3569 8.088C31.2635 7.96667 31.1235 7.88733 30.9369 7.85C30.7502 7.80333 30.5075 7.77067 30.2089 7.752V7.22H35.1229C35.9629 7.22 36.7375 7.36 37.4469 7.64C38.1655 7.92 38.7815 8.30733 39.2949 8.802C39.8175 9.29667 40.2235 9.88467 40.5129 10.566C40.8022 11.2473 40.9469 11.9893 40.9469 12.792C40.9469 13.5573 40.8115 14.262 40.5409 14.906C40.2702 15.5407 39.8875 16.0867 39.3929 16.544C38.9075 17.0013 38.3242 17.3607 37.6429 17.622C36.9615 17.874 36.2149 18 35.4029 18H29.9289ZM33.3169 7.906C33.1582 7.906 33.0789 7.98533 33.0789 8.144V15.718C33.0789 16.782 33.7742 17.314 35.1649 17.314C36.4435 17.314 37.4235 16.936 38.1049 16.18C38.7862 15.4147 39.1269 14.2947 39.1269 12.82C39.1269 12.0453 39.0335 11.3547 38.8469 10.748C38.6602 10.1413 38.3895 9.628 38.0349 9.208C37.6895 8.788 37.2695 8.466 36.7749 8.242C36.2802 8.018 35.7202 7.906 35.0949 7.906H33.3169ZM45.3619 15.774C45.3619 16.138 45.3759 16.432 45.4039 16.656C45.4413 16.8707 45.5066 17.0433 45.5999 17.174C45.6933 17.2953 45.8239 17.3793 45.9919 17.426C46.1599 17.4727 46.3839 17.5007 46.6639 17.51V18H42.6459V17.51C42.9259 17.5007 43.1546 17.4727 43.3319 17.426C43.5093 17.37 43.6446 17.286 43.7379 17.174C43.8406 17.0527 43.9059 16.8893 43.9339 16.684C43.9713 16.4693 43.9899 16.1987 43.9899 15.872V14.08C43.9899 13.5387 43.9806 13.0953 43.9619 12.75C43.9526 12.3953 43.9293 12.1527 43.8919 12.022C43.8453 11.8073 43.7379 11.6627 43.5699 11.588C43.4019 11.504 43.0846 11.462 42.6179 11.462V10.972L45.3619 10.44V15.774ZM43.7519 7.598C43.7519 7.35533 43.8359 7.15 44.0039 6.982C44.1719 6.814 44.3773 6.73 44.6199 6.73C44.8626 6.73 45.0679 6.814 45.2359 6.982C45.4039 7.15 45.4879 7.35533 45.4879 7.598C45.4879 7.84067 45.4039 8.046 45.2359 8.214C45.0679 8.382 44.8626 8.466 44.6199 8.466C44.3773 8.466 44.1719 8.382 44.0039 8.214C43.8359 8.046 43.7519 7.84067 43.7519 7.598ZM50.4494 15.774C50.4494 16.1567 50.4587 16.46 50.4774 16.684C50.4961 16.908 50.5427 17.0807 50.6174 17.202C50.7014 17.314 50.8181 17.3887 50.9674 17.426C51.1167 17.4633 51.3267 17.4913 51.5974 17.51V18H47.8734V17.51C48.1441 17.5007 48.3587 17.4773 48.5174 17.44C48.6761 17.3933 48.7974 17.314 48.8814 17.202C48.9654 17.09 49.0167 16.9313 49.0354 16.726C49.0634 16.5113 49.0774 16.2267 49.0774 15.872V14.234C49.0774 13.5993 49.0681 13.1047 49.0494 12.75C49.0401 12.3953 48.9934 12.134 48.9094 11.966C48.8347 11.798 48.7134 11.7 48.5454 11.672C48.3774 11.6347 48.1441 11.616 47.8454 11.616V11.126L50.2954 10.594L50.4914 12.33H50.5474C50.6687 12.05 50.8181 11.7933 50.9954 11.56C51.1821 11.3267 51.3827 11.1307 51.5974 10.972C51.8121 10.804 52.0361 10.6733 52.2694 10.58C52.5027 10.4867 52.7407 10.44 52.9834 10.44C53.2821 10.44 53.5154 10.5147 53.6834 10.664C53.8607 10.804 53.9494 10.9953 53.9494 11.238C53.9494 11.462 53.8794 11.6393 53.7394 11.77C53.5994 11.8913 53.3987 11.952 53.1374 11.952C52.9881 11.952 52.8621 11.9333 52.7594 11.896C52.6567 11.8587 52.5634 11.8213 52.4794 11.784C52.4047 11.7373 52.3301 11.6953 52.2554 11.658C52.1901 11.6207 52.1154 11.602 52.0314 11.602C51.7794 11.602 51.5274 11.7653 51.2754 12.092C51.0234 12.4093 50.8274 12.8153 50.6874 13.31C50.6127 13.5807 50.5521 13.8887 50.5054 14.234C50.4681 14.57 50.4494 14.9247 50.4494 15.298V15.774ZM61.5709 16.698C60.7776 17.6593 59.7929 18.14 58.6169 18.14C58.0662 18.14 57.5669 18.0513 57.1189 17.874C56.6709 17.6873 56.2836 17.4307 55.9569 17.104C55.6396 16.768 55.3922 16.3713 55.2149 15.914C55.0376 15.4473 54.9489 14.934 54.9489 14.374C54.9489 13.8047 55.0422 13.2773 55.2289 12.792C55.4156 12.3067 55.6769 11.8913 56.0129 11.546C56.3582 11.2007 56.7642 10.93 57.2309 10.734C57.7069 10.538 58.2249 10.44 58.7849 10.44C59.6902 10.44 60.3902 10.6873 60.8849 11.182C61.3796 11.6673 61.6269 12.3673 61.6269 13.282C61.6269 13.4127 61.5989 13.492 61.5429 13.52C61.4962 13.548 61.3796 13.562 61.1929 13.562H56.5869C56.5682 13.6367 56.5542 13.73 56.5449 13.842C56.5356 13.9447 56.5309 14.0613 56.5309 14.192C56.5309 14.6773 56.5869 15.1207 56.6989 15.522C56.8202 15.914 56.9882 16.25 57.2029 16.53C57.4269 16.81 57.6882 17.0293 57.9869 17.188C58.2949 17.3373 58.6356 17.412 59.0089 17.412C59.4009 17.412 59.7649 17.328 60.1009 17.16C60.4369 16.9827 60.7822 16.698 61.1369 16.306L61.5709 16.698ZM59.2609 12.918C59.4476 12.918 59.5969 12.9133 59.7089 12.904C59.8209 12.8947 59.9049 12.876 59.9609 12.848C60.0169 12.82 60.0542 12.7827 60.0729 12.736C60.0916 12.68 60.1009 12.61 60.1009 12.526C60.1009 12.0967 59.9609 11.756 59.6809 11.504C59.4102 11.2427 59.0369 11.112 58.5609 11.112C57.5529 11.112 56.9276 11.714 56.6849 12.918H59.2609ZM69.7723 16.838C69.4363 17.2487 69.0023 17.5707 68.4703 17.804C67.9383 18.028 67.3643 18.14 66.7483 18.14C66.2536 18.14 65.7963 18.0513 65.3763 17.874C64.9656 17.6873 64.6109 17.4307 64.3123 17.104C64.0136 16.768 63.7803 16.3667 63.6123 15.9C63.4536 15.4333 63.3743 14.9153 63.3743 14.346C63.3743 13.7487 63.4676 13.212 63.6543 12.736C63.8409 12.2507 64.1023 11.84 64.4383 11.504C64.7836 11.1587 65.1943 10.8973 65.6703 10.72C66.1556 10.5333 66.6876 10.44 67.2663 10.44C67.6303 10.44 67.9616 10.4727 68.2603 10.538C68.5589 10.594 68.8156 10.678 69.0303 10.79C69.2543 10.8927 69.4269 11.0233 69.5483 11.182C69.6696 11.3313 69.7303 11.4947 69.7303 11.672C69.7303 11.8587 69.6696 12.0033 69.5483 12.106C69.4269 12.2087 69.2589 12.26 69.0443 12.26C68.8763 12.26 68.7363 12.2273 68.6243 12.162C68.5123 12.0873 68.3676 11.9287 68.1903 11.686C68.0036 11.4713 67.8216 11.322 67.6443 11.238C67.4763 11.1447 67.2569 11.098 66.9863 11.098C66.3236 11.098 65.8196 11.3547 65.4743 11.868C65.1383 12.3813 64.9703 13.1373 64.9703 14.136C64.9703 15.2093 65.1569 16.026 65.5303 16.586C65.9129 17.1367 66.4683 17.412 67.1963 17.412C67.5883 17.412 67.9569 17.3373 68.3023 17.188C68.6476 17.0293 68.9976 16.7773 69.3523 16.432L69.7723 16.838ZM71.1541 11.462V10.944C71.6488 10.6547 72.0361 10.3653 72.3161 10.076C72.5961 9.78667 72.8108 9.44133 72.9601 9.04H73.3661V10.804H75.2421V11.462H73.3661V15.718C73.3661 16.0447 73.3801 16.32 73.4081 16.544C73.4455 16.768 73.5015 16.95 73.5761 17.09C73.6508 17.2207 73.7488 17.314 73.8701 17.37C73.9915 17.426 74.1455 17.454 74.3321 17.454C74.5655 17.454 74.7615 17.4073 74.9201 17.314C75.0881 17.2113 75.2515 17.0433 75.4101 16.81L75.7601 17.076C75.6295 17.4213 75.4008 17.6873 75.0741 17.874C74.7568 18.0513 74.3601 18.14 73.8841 18.14C73.2681 18.14 72.7968 17.9953 72.4701 17.706C72.1528 17.4073 71.9941 16.9827 71.9941 16.432V11.462H71.1541ZM79.4772 15.774C79.4772 16.138 79.4912 16.432 79.5192 16.656C79.5565 16.8707 79.6218 17.0433 79.7152 17.174C79.8085 17.2953 79.9392 17.3793 80.1072 17.426C80.2752 17.4727 80.4992 17.5007 80.7792 17.51V18H76.7612V17.51C77.0412 17.5007 77.2698 17.4727 77.4472 17.426C77.6245 17.37 77.7598 17.286 77.8532 17.174C77.9558 17.0527 78.0212 16.8893 78.0492 16.684C78.0865 16.4693 78.1052 16.1987 78.1052 15.872V14.08C78.1052 13.5387 78.0958 13.0953 78.0772 12.75C78.0678 12.3953 78.0445 12.1527 78.0072 12.022C77.9605 11.8073 77.8532 11.6627 77.6852 11.588C77.5172 11.504 77.1998 11.462 76.7332 11.462V10.972L79.4772 10.44V15.774ZM77.8672 7.598C77.8672 7.35533 77.9512 7.15 78.1192 6.982C78.2872 6.814 78.4925 6.73 78.7352 6.73C78.9778 6.73 79.1832 6.814 79.3512 6.982C79.5192 7.15 79.6032 7.35533 79.6032 7.598C79.6032 7.84067 79.5192 8.046 79.3512 8.214C79.1832 8.382 78.9778 8.466 78.7352 8.466C78.4925 8.466 78.2872 8.382 78.1192 8.214C77.9512 8.046 77.8672 7.84067 77.8672 7.598ZM86.0066 10.44C86.5386 10.44 87.0426 10.538 87.5186 10.734C87.9946 10.9207 88.41 11.182 88.7646 11.518C89.1286 11.854 89.4133 12.2553 89.6186 12.722C89.8333 13.1793 89.9406 13.6833 89.9406 14.234C89.9406 14.8033 89.8333 15.326 89.6186 15.802C89.4133 16.278 89.1286 16.6887 88.7646 17.034C88.41 17.3793 87.9946 17.65 87.5186 17.846C87.0426 18.042 86.5386 18.14 86.0066 18.14C85.484 18.14 84.9846 18.0467 84.5086 17.86C84.042 17.664 83.6313 17.3933 83.2766 17.048C82.922 16.7027 82.642 16.292 82.4366 15.816C82.2313 15.3307 82.1286 14.8033 82.1286 14.234C82.1286 13.6833 82.2313 13.1747 82.4366 12.708C82.642 12.2413 82.922 11.84 83.2766 11.504C83.6313 11.168 84.042 10.9067 84.5086 10.72C84.9846 10.5333 85.484 10.44 86.0066 10.44ZM86.0066 11.112C85.6613 11.112 85.344 11.1867 85.0546 11.336C84.7746 11.4853 84.532 11.7 84.3266 11.98C84.1306 12.2507 83.9766 12.582 83.8646 12.974C83.762 13.3567 83.7106 13.7813 83.7106 14.248C83.7106 14.7333 83.762 15.172 83.8646 15.564C83.9766 15.956 84.1306 16.292 84.3266 16.572C84.532 16.8427 84.7746 17.0527 85.0546 17.202C85.3346 17.3513 85.652 17.426 86.0066 17.426C86.3613 17.426 86.6833 17.3513 86.9726 17.202C87.262 17.0527 87.5093 16.838 87.7146 16.558C87.92 16.278 88.0786 15.942 88.1906 15.55C88.3026 15.158 88.3586 14.724 88.3586 14.248C88.3586 13.7813 88.3026 13.3567 88.1906 12.974C88.0786 12.5913 87.92 12.2647 87.7146 11.994C87.5093 11.714 87.262 11.4993 86.9726 11.35C86.6833 11.1913 86.3613 11.112 86.0066 11.112ZM94.0408 15.802C94.0408 16.1847 94.0501 16.488 94.0688 16.712C94.0875 16.9267 94.1341 17.0947 94.2088 17.216C94.2928 17.328 94.4095 17.4027 94.5588 17.44C94.7175 17.4773 94.9321 17.5053 95.2028 17.524V18H91.5348V17.524C91.7961 17.5053 92.0015 17.4773 92.1508 17.44C92.3095 17.4027 92.4308 17.328 92.5148 17.216C92.5988 17.104 92.6501 16.9453 92.6688 16.74C92.6968 16.5347 92.7108 16.2547 92.7108 15.9V14.038C92.7108 12.9273 92.6828 12.2507 92.6268 12.008C92.5988 11.8867 92.5615 11.7887 92.5148 11.714C92.4775 11.63 92.4168 11.5693 92.3328 11.532C92.2488 11.4853 92.1415 11.4573 92.0108 11.448C91.8801 11.4293 91.7121 11.42 91.5068 11.42V10.972L93.7468 10.44L93.9148 11.826H93.9708C94.3255 11.3873 94.7408 11.0467 95.2168 10.804C95.6928 10.5613 96.2108 10.44 96.7708 10.44C97.2001 10.44 97.5921 10.51 97.9468 10.65C98.3015 10.79 98.5721 10.9813 98.7588 11.224C98.9175 11.4387 99.0295 11.7187 99.0948 12.064C99.1601 12.4 99.1928 12.8667 99.1928 13.464V15.802C99.1928 16.1847 99.2021 16.488 99.2208 16.712C99.2488 16.9267 99.3001 17.0947 99.3748 17.216C99.4495 17.328 99.5615 17.4027 99.7108 17.44C99.8695 17.4773 100.075 17.5053 100.327 17.524V18H96.7008V17.524C96.9621 17.5147 97.1675 17.4913 97.3168 17.454C97.4755 17.4073 97.5921 17.328 97.6668 17.216C97.7508 17.104 97.8021 16.9453 97.8208 16.74C97.8488 16.5253 97.8628 16.2453 97.8628 15.9V14.052C97.8628 13.52 97.8348 13.072 97.7788 12.708C97.7228 12.344 97.6295 12.05 97.4988 11.826C97.3775 11.602 97.2141 11.4433 97.0088 11.35C96.8035 11.2473 96.5561 11.196 96.2668 11.196C95.8468 11.196 95.4595 11.308 95.1048 11.532C94.7595 11.7467 94.4888 12.0453 94.2928 12.428C94.2461 12.5213 94.2041 12.61 94.1668 12.694C94.1388 12.778 94.1155 12.876 94.0968 12.988C94.0781 13.1 94.0641 13.2307 94.0548 13.38C94.0455 13.52 94.0408 13.702 94.0408 13.926V15.802Z" fill="#6D6B67"/>
<path d="M109.341 6.81818L105.591 20.75H104.364L108.114 6.81818H109.341Z" fill="#E0DFDC"/>
<path d="M129.87 9.345C129.87 9.875 129.785 10.35 129.615 10.77C129.445 11.19 129.175 11.545 128.805 11.835C128.445 12.125 127.97 12.35 127.38 12.51C126.8 12.67 126.09 12.75 125.25 12.75H123.9V15.645C123.9 16.015 123.92 16.32 123.96 16.56C124.01 16.79 124.105 16.97 124.245 17.1C124.395 17.23 124.605 17.32 124.875 17.37C125.155 17.41 125.52 17.43 125.97 17.43V18H120.675V17.43C121.025 17.42 121.305 17.39 121.515 17.34C121.735 17.29 121.905 17.205 122.025 17.085C122.145 16.965 122.225 16.795 122.265 16.575C122.305 16.355 122.325 16.07 122.325 15.72V8.73C122.325 8.38 122.305 8.1 122.265 7.89C122.235 7.67 122.165 7.5 122.055 7.38C121.955 7.25 121.805 7.165 121.605 7.125C121.405 7.075 121.145 7.04 120.825 7.02V6.45H125.535C126.915 6.45 127.98 6.705 128.73 7.215C129.49 7.725 129.87 8.435 129.87 9.345ZM123.9 12H124.965C125.965 12 126.705 11.81 127.185 11.43C127.675 11.04 127.92 10.405 127.92 9.525C127.92 8.675 127.725 8.07 127.335 7.71C126.955 7.34 126.355 7.155 125.535 7.155H124.155C123.985 7.155 123.9 7.24 123.9 7.41V12ZM135.757 13.56C135.187 13.78 134.702 13.995 134.302 14.205C133.912 14.415 133.597 14.625 133.357 14.835C133.117 15.045 132.942 15.255 132.832 15.465C132.732 15.675 132.682 15.89 132.682 16.11C132.682 16.44 132.792 16.71 133.012 16.92C133.232 17.13 133.522 17.235 133.882 17.235C134.142 17.235 134.382 17.17 134.602 17.04C134.832 16.91 135.032 16.735 135.202 16.515C135.372 16.285 135.507 16.02 135.607 15.72C135.707 15.41 135.757 15.085 135.757 14.745V13.56ZM135.757 12.915V12.3C135.757 11.08 135.237 10.47 134.197 10.47C134.027 10.47 133.882 10.485 133.762 10.515C133.642 10.545 133.542 10.595 133.462 10.665C133.382 10.735 133.307 10.835 133.237 10.965C133.177 11.095 133.117 11.255 133.057 11.445C132.947 11.735 132.837 11.93 132.727 12.03C132.627 12.12 132.477 12.165 132.277 12.165C131.777 12.165 131.527 11.915 131.527 11.415C131.527 10.935 131.782 10.565 132.292 10.305C132.802 10.035 133.527 9.9 134.467 9.9C135.467 9.9 136.177 10.08 136.597 10.44C137.017 10.79 137.227 11.39 137.227 12.24V15.6C137.227 16.74 137.452 17.31 137.902 17.31C138.042 17.31 138.177 17.295 138.307 17.265C138.437 17.225 138.547 17.13 138.637 16.98L138.847 17.34C138.727 17.57 138.507 17.765 138.187 17.925C137.867 18.075 137.532 18.15 137.182 18.15C136.742 18.15 136.412 18.01 136.192 17.73C135.982 17.45 135.877 17.055 135.877 16.545H135.802C135.542 17.035 135.182 17.425 134.722 17.715C134.262 17.995 133.752 18.135 133.192 18.135C132.562 18.135 132.067 17.975 131.707 17.655C131.347 17.335 131.167 16.905 131.167 16.365C131.167 16.125 131.207 15.895 131.287 15.675C131.377 15.455 131.517 15.245 131.707 15.045C131.897 14.845 132.147 14.65 132.457 14.46C132.767 14.26 133.147 14.06 133.597 13.86L135.757 12.915ZM146.818 16.755C146.458 17.195 145.993 17.54 145.423 17.79C144.853 18.03 144.238 18.15 143.578 18.15C143.048 18.15 142.558 18.055 142.108 17.865C141.668 17.665 141.288 17.39 140.968 17.04C140.648 16.68 140.398 16.25 140.218 15.75C140.048 15.25 139.963 14.695 139.963 14.085C139.963 13.445 140.063 12.87 140.263 12.36C140.463 11.84 140.743 11.4 141.103 11.04C141.473 10.67 141.913 10.39 142.423 10.2C142.943 10 143.513 9.9 144.133 9.9C144.523 9.9 144.878 9.935 145.198 10.005C145.518 10.065 145.793 10.155 146.023 10.275C146.263 10.385 146.448 10.525 146.578 10.695C146.708 10.855 146.773 11.03 146.773 11.22C146.773 11.42 146.708 11.575 146.578 11.685C146.448 11.795 146.268 11.85 146.038 11.85C145.858 11.85 145.708 11.815 145.588 11.745C145.468 11.665 145.313 11.495 145.123 11.235C144.923 11.005 144.728 10.845 144.538 10.755C144.358 10.655 144.123 10.605 143.833 10.605C143.123 10.605 142.583 10.88 142.213 11.43C141.853 11.98 141.673 12.79 141.673 13.86C141.673 15.01 141.873 15.885 142.273 16.485C142.683 17.075 143.278 17.37 144.058 17.37C144.478 17.37 144.873 17.29 145.243 17.13C145.613 16.96 145.988 16.69 146.368 16.32L146.818 16.755ZM152.89 17.475C153.22 17.475 153.445 17.46 153.565 17.43C153.695 17.4 153.76 17.36 153.76 17.31C153.75 17.23 153.67 17.085 153.52 16.875C153.37 16.665 153.175 16.415 152.935 16.125L151.345 14.205L150.79 14.73V15.615C150.79 16.005 150.805 16.32 150.835 16.56C150.875 16.79 150.94 16.975 151.03 17.115C151.13 17.245 151.27 17.335 151.45 17.385C151.64 17.435 151.885 17.465 152.185 17.475V18H147.925V17.475C148.225 17.465 148.465 17.435 148.645 17.385C148.835 17.335 148.98 17.245 149.08 17.115C149.19 16.985 149.265 16.81 149.305 16.59C149.345 16.37 149.365 16.08 149.365 15.72V9.435C149.365 8.675 149.355 8.1 149.335 7.71C149.325 7.32 149.275 7.055 149.185 6.915C149.095 6.775 148.945 6.695 148.735 6.675C148.525 6.645 148.245 6.63 147.895 6.63V6.12L150.79 5.55V13.785L152.185 12.42C152.635 11.97 152.97 11.64 153.19 11.43C153.41 11.21 153.52 11.045 153.52 10.935C153.52 10.825 153.415 10.74 153.205 10.68C152.995 10.61 152.695 10.575 152.305 10.575V10.05H156.205V10.575C156.015 10.575 155.85 10.585 155.71 10.605C155.57 10.625 155.435 10.665 155.305 10.725C155.185 10.785 155.055 10.87 154.915 10.98C154.775 11.08 154.615 11.21 154.435 11.37L152.275 13.29L155.245 16.65C155.385 16.82 155.51 16.96 155.62 17.07C155.74 17.17 155.855 17.25 155.965 17.31C156.085 17.37 156.21 17.415 156.34 17.445C156.48 17.465 156.645 17.475 156.835 17.475V18H152.89V17.475ZM162.548 13.56C161.978 13.78 161.493 13.995 161.093 14.205C160.703 14.415 160.388 14.625 160.148 14.835C159.908 15.045 159.733 15.255 159.623 15.465C159.523 15.675 159.473 15.89 159.473 16.11C159.473 16.44 159.583 16.71 159.803 16.92C160.023 17.13 160.313 17.235 160.673 17.235C160.933 17.235 161.173 17.17 161.393 17.04C161.623 16.91 161.823 16.735 161.993 16.515C162.163 16.285 162.298 16.02 162.398 15.72C162.498 15.41 162.548 15.085 162.548 14.745V13.56ZM162.548 12.915V12.3C162.548 11.08 162.028 10.47 160.988 10.47C160.818 10.47 160.673 10.485 160.553 10.515C160.433 10.545 160.333 10.595 160.253 10.665C160.173 10.735 160.098 10.835 160.028 10.965C159.968 11.095 159.908 11.255 159.848 11.445C159.738 11.735 159.628 11.93 159.518 12.03C159.418 12.12 159.268 12.165 159.068 12.165C158.568 12.165 158.318 11.915 158.318 11.415C158.318 10.935 158.573 10.565 159.083 10.305C159.593 10.035 160.318 9.9 161.258 9.9C162.258 9.9 162.968 10.08 163.388 10.44C163.808 10.79 164.018 11.39 164.018 12.24V15.6C164.018 16.74 164.243 17.31 164.693 17.31C164.833 17.31 164.968 17.295 165.098 17.265C165.228 17.225 165.338 17.13 165.428 16.98L165.638 17.34C165.518 17.57 165.298 17.765 164.978 17.925C164.658 18.075 164.323 18.15 163.973 18.15C163.533 18.15 163.203 18.01 162.983 17.73C162.773 17.45 162.668 17.055 162.668 16.545H162.593C162.333 17.035 161.973 17.425 161.513 17.715C161.053 17.995 160.543 18.135 159.983 18.135C159.353 18.135 158.858 17.975 158.498 17.655C158.138 17.335 157.958 16.905 157.958 16.365C157.958 16.125 157.998 15.895 158.078 15.675C158.168 15.455 158.308 15.245 158.498 15.045C158.688 14.845 158.938 14.65 159.248 14.46C159.558 14.26 159.938 14.06 160.388 13.86L162.548 12.915ZM170.129 14.775C170.549 14.775 170.874 14.585 171.104 14.205C171.344 13.825 171.464 13.29 171.464 12.6C171.464 11.92 171.344 11.395 171.104 11.025C170.874 10.645 170.544 10.455 170.114 10.455C169.684 10.455 169.339 10.645 169.079 11.025C168.829 11.405 168.704 11.925 168.704 12.585C168.704 13.245 168.834 13.775 169.094 14.175C169.354 14.575 169.699 14.775 170.129 14.775ZM169.304 16.53C169.544 16.55 169.764 16.57 169.964 16.59C170.164 16.61 170.359 16.63 170.549 16.65C170.749 16.67 170.944 16.695 171.134 16.725C171.334 16.755 171.549 16.785 171.779 16.815C172.499 16.925 173.074 17.205 173.504 17.655C173.944 18.095 174.164 18.65 174.164 19.32C174.164 20.16 173.829 20.8 173.159 21.24C172.499 21.68 171.539 21.9 170.279 21.9C169.719 21.9 169.204 21.85 168.734 21.75C168.274 21.65 167.879 21.505 167.549 21.315C167.219 21.135 166.959 20.915 166.769 20.655C166.589 20.395 166.499 20.11 166.499 19.8C166.499 19.59 166.534 19.395 166.604 19.215C166.674 19.035 166.769 18.875 166.889 18.735C167.009 18.605 167.149 18.5 167.309 18.42C167.479 18.34 167.654 18.3 167.834 18.3C168.174 18.3 168.479 18.405 168.749 18.615C168.479 18.675 168.259 18.82 168.089 19.05C167.919 19.29 167.834 19.56 167.834 19.86C167.834 20.3 168.049 20.64 168.479 20.88C168.919 21.12 169.539 21.24 170.339 21.24C172.049 21.24 172.904 20.715 172.904 19.665C172.904 19.265 172.769 18.93 172.499 18.66C172.229 18.4 171.909 18.245 171.539 18.195C171.299 18.165 171.049 18.13 170.789 18.09C170.539 18.06 170.289 18.03 170.039 18C169.799 17.97 169.574 17.945 169.364 17.925C169.154 17.905 168.984 17.885 168.854 17.865C168.294 17.805 167.869 17.655 167.579 17.415C167.289 17.175 167.144 16.845 167.144 16.425C167.144 16.075 167.289 15.765 167.579 15.495C167.869 15.225 168.234 15.055 168.674 14.985V14.925C168.454 14.835 168.249 14.71 168.059 14.55C167.869 14.38 167.704 14.19 167.564 13.98C167.434 13.77 167.329 13.545 167.249 13.305C167.169 13.055 167.129 12.8 167.129 12.54C167.129 12.16 167.199 11.81 167.339 11.49C167.489 11.17 167.694 10.895 167.954 10.665C168.224 10.425 168.539 10.24 168.899 10.11C169.259 9.97 169.654 9.9 170.084 9.9C170.524 9.9 170.939 9.97 171.329 10.11C171.719 10.24 172.054 10.435 172.334 10.695C172.674 10.415 172.974 10.215 173.234 10.095C173.494 9.965 173.739 9.9 173.969 9.9C174.329 9.9 174.614 9.985 174.824 10.155C175.044 10.315 175.154 10.535 175.154 10.815C175.154 10.985 175.094 11.12 174.974 11.22C174.864 11.32 174.724 11.37 174.554 11.37C174.414 11.37 174.299 11.345 174.209 11.295C174.119 11.245 174.034 11.195 173.954 11.145C173.884 11.085 173.809 11.03 173.729 10.98C173.649 10.93 173.549 10.905 173.429 10.905C173.189 10.905 172.944 10.99 172.694 11.16C172.934 11.53 173.054 11.995 173.054 12.555C173.054 13.405 172.789 14.075 172.259 14.565C171.729 15.045 170.934 15.325 169.874 15.405C169.264 15.455 168.839 15.52 168.599 15.6C168.359 15.68 168.239 15.825 168.239 16.035C168.239 16.195 168.329 16.315 168.509 16.395C168.689 16.465 168.954 16.51 169.304 16.53ZM178.818 15.615C178.818 16.005 178.833 16.32 178.863 16.56C178.903 16.79 178.973 16.975 179.073 17.115C179.173 17.245 179.313 17.335 179.493 17.385C179.673 17.435 179.913 17.465 180.213 17.475V18H175.908V17.475C176.208 17.465 176.453 17.435 176.643 17.385C176.833 17.325 176.978 17.235 177.078 17.115C177.188 16.985 177.258 16.81 177.288 16.59C177.328 16.36 177.348 16.07 177.348 15.72V13.8C177.348 13.22 177.338 12.745 177.318 12.375C177.308 11.995 177.283 11.735 177.243 11.595C177.193 11.365 177.078 11.21 176.898 11.13C176.718 11.04 176.378 10.995 175.878 10.995V10.47L178.818 9.9V15.615ZM177.093 6.855C177.093 6.595 177.183 6.375 177.363 6.195C177.543 6.015 177.763 5.925 178.023 5.925C178.283 5.925 178.503 6.015 178.683 6.195C178.863 6.375 178.953 6.595 178.953 6.855C178.953 7.115 178.863 7.335 178.683 7.515C178.503 7.695 178.283 7.785 178.023 7.785C177.763 7.785 177.543 7.695 177.363 7.515C177.183 7.335 177.093 7.115 177.093 6.855ZM184.15 15.645C184.15 16.055 184.16 16.38 184.18 16.62C184.2 16.85 184.25 17.03 184.33 17.16C184.42 17.28 184.545 17.36 184.705 17.4C184.875 17.44 185.105 17.47 185.395 17.49V18H181.465V17.49C181.745 17.47 181.965 17.44 182.125 17.4C182.295 17.36 182.425 17.28 182.515 17.16C182.605 17.04 182.66 16.87 182.68 16.65C182.71 16.43 182.725 16.13 182.725 15.75V13.755C182.725 12.565 182.695 11.84 182.635 11.58C182.605 11.45 182.565 11.345 182.515 11.265C182.475 11.175 182.41 11.11 182.32 11.07C182.23 11.02 182.115 10.99 181.975 10.98C181.835 10.96 181.655 10.95 181.435 10.95V10.47L183.835 9.9L184.015 11.385H184.075C184.455 10.915 184.9 10.55 185.41 10.29C185.92 10.03 186.475 9.9 187.075 9.9C187.535 9.9 187.955 9.975 188.335 10.125C188.715 10.275 189.005 10.48 189.205 10.74C189.375 10.97 189.495 11.27 189.565 11.64C189.635 12 189.67 12.5 189.67 13.14V15.645C189.67 16.055 189.68 16.38 189.7 16.62C189.73 16.85 189.785 17.03 189.865 17.16C189.945 17.28 190.065 17.36 190.225 17.4C190.395 17.44 190.615 17.47 190.885 17.49V18H187V17.49C187.28 17.48 187.5 17.455 187.66 17.415C187.83 17.365 187.955 17.28 188.035 17.16C188.125 17.04 188.18 16.87 188.2 16.65C188.23 16.42 188.245 16.12 188.245 15.75V13.77C188.245 13.2 188.215 12.72 188.155 12.33C188.095 11.94 187.995 11.625 187.855 11.385C187.725 11.145 187.55 10.975 187.33 10.875C187.11 10.765 186.845 10.71 186.535 10.71C186.085 10.71 185.67 10.83 185.29 11.07C184.92 11.3 184.63 11.62 184.42 12.03C184.37 12.13 184.325 12.225 184.285 12.315C184.255 12.405 184.23 12.51 184.21 12.63C184.19 12.75 184.175 12.89 184.165 13.05C184.155 13.2 184.15 13.395 184.15 13.635V15.645ZM195.762 14.775C196.182 14.775 196.507 14.585 196.737 14.205C196.977 13.825 197.097 13.29 197.097 12.6C197.097 11.92 196.977 11.395 196.737 11.025C196.507 10.645 196.177 10.455 195.747 10.455C195.317 10.455 194.972 10.645 194.712 11.025C194.462 11.405 194.337 11.925 194.337 12.585C194.337 13.245 194.467 13.775 194.727 14.175C194.987 14.575 195.332 14.775 195.762 14.775ZM194.937 16.53C195.177 16.55 195.397 16.57 195.597 16.59C195.797 16.61 195.992 16.63 196.182 16.65C196.382 16.67 196.577 16.695 196.767 16.725C196.967 16.755 197.182 16.785 197.412 16.815C198.132 16.925 198.707 17.205 199.137 17.655C199.577 18.095 199.797 18.65 199.797 19.32C199.797 20.16 199.462 20.8 198.792 21.24C198.132 21.68 197.172 21.9 195.912 21.9C195.352 21.9 194.837 21.85 194.367 21.75C193.907 21.65 193.512 21.505 193.182 21.315C192.852 21.135 192.592 20.915 192.402 20.655C192.222 20.395 192.132 20.11 192.132 19.8C192.132 19.59 192.167 19.395 192.237 19.215C192.307 19.035 192.402 18.875 192.522 18.735C192.642 18.605 192.782 18.5 192.942 18.42C193.112 18.34 193.287 18.3 193.467 18.3C193.807 18.3 194.112 18.405 194.382 18.615C194.112 18.675 193.892 18.82 193.722 19.05C193.552 19.29 193.467 19.56 193.467 19.86C193.467 20.3 193.682 20.64 194.112 20.88C194.552 21.12 195.172 21.24 195.972 21.24C197.682 21.24 198.537 20.715 198.537 19.665C198.537 19.265 198.402 18.93 198.132 18.66C197.862 18.4 197.542 18.245 197.172 18.195C196.932 18.165 196.682 18.13 196.422 18.09C196.172 18.06 195.922 18.03 195.672 18C195.432 17.97 195.207 17.945 194.997 17.925C194.787 17.905 194.617 17.885 194.487 17.865C193.927 17.805 193.502 17.655 193.212 17.415C192.922 17.175 192.777 16.845 192.777 16.425C192.777 16.075 192.922 15.765 193.212 15.495C193.502 15.225 193.867 15.055 194.307 14.985V14.925C194.087 14.835 193.882 14.71 193.692 14.55C193.502 14.38 193.337 14.19 193.197 13.98C193.067 13.77 192.962 13.545 192.882 13.305C192.802 13.055 192.762 12.8 192.762 12.54C192.762 12.16 192.832 11.81 192.972 11.49C193.122 11.17 193.327 10.895 193.587 10.665C193.857 10.425 194.172 10.24 194.532 10.11C194.892 9.97 195.287 9.9 195.717 9.9C196.157 9.9 196.572 9.97 196.962 10.11C197.352 10.24 197.687 10.435 197.967 10.695C198.307 10.415 198.607 10.215 198.867 10.095C199.127 9.965 199.372 9.9 199.602 9.9C199.962 9.9 200.247 9.985 200.457 10.155C200.677 10.315 200.787 10.535 200.787 10.815C200.787 10.985 200.727 11.12 200.607 11.22C200.497 11.32 200.357 11.37 200.187 11.37C200.047 11.37 199.932 11.345 199.842 11.295C199.752 11.245 199.667 11.195 199.587 11.145C199.517 11.085 199.442 11.03 199.362 10.98C199.282 10.93 199.182 10.905 199.062 10.905C198.822 10.905 198.577 10.99 198.327 11.16C198.567 11.53 198.687 11.995 198.687 12.555C198.687 13.405 198.422 14.075 197.892 14.565C197.362 15.045 196.567 15.325 195.507 15.405C194.897 15.455 194.472 15.52 194.232 15.6C193.992 15.68 193.872 15.825 193.872 16.035C193.872 16.195 193.962 16.315 194.142 16.395C194.322 16.465 194.587 16.51 194.937 16.53Z" fill="#6D6B67"/>
<path d="M206.341 6.81818L202.591 20.75H201.364L205.114 6.81818H206.341Z" fill="#E0DFDC"/>
<path d="M220.64 15.354C220.64 15.8207 220.659 16.1893 220.696 16.46C220.733 16.7307 220.803 16.9407 220.906 17.09C221.018 17.2393 221.172 17.3373 221.368 17.384C221.573 17.4307 221.839 17.4587 222.166 17.468V18H217.63V17.468C217.957 17.4587 218.218 17.4307 218.414 17.384C218.619 17.328 218.778 17.23 218.89 17.09C219.002 16.95 219.077 16.754 219.114 16.502C219.151 16.2407 219.17 15.8907 219.17 15.452V9.768C219.17 9.376 219.151 9.054 219.114 8.802C219.086 8.54067 219.021 8.33533 218.918 8.186C218.825 8.03667 218.685 7.934 218.498 7.878C218.311 7.81267 218.069 7.77067 217.77 7.752V7.22H222.026V7.752C221.727 7.76133 221.485 7.79867 221.298 7.864C221.121 7.92933 220.981 8.04133 220.878 8.2C220.785 8.34933 220.719 8.55933 220.682 8.83C220.654 9.10067 220.64 9.446 220.64 9.866V15.354ZM226.137 15.816C226.137 16.1707 226.151 16.4553 226.179 16.67C226.207 16.8847 226.263 17.0527 226.347 17.174C226.44 17.2953 226.566 17.3793 226.725 17.426C226.893 17.4727 227.112 17.5007 227.383 17.51V18H223.519V17.51C223.799 17.5007 224.023 17.4727 224.191 17.426C224.359 17.37 224.489 17.286 224.583 17.174C224.685 17.062 224.751 16.908 224.779 16.712C224.816 16.5067 224.835 16.2407 224.835 15.914V9.88C224.835 9.376 224.825 8.956 224.807 8.62C224.797 8.27467 224.779 8.04133 224.751 7.92C224.704 7.70533 224.592 7.56067 224.415 7.486C224.247 7.41133 223.939 7.374 223.491 7.374V6.898L226.137 6.38V15.816ZM231.089 15.816C231.089 16.1707 231.103 16.4553 231.131 16.67C231.159 16.8847 231.215 17.0527 231.299 17.174C231.393 17.2953 231.519 17.3793 231.677 17.426C231.845 17.4727 232.065 17.5007 232.335 17.51V18H228.471V17.51C228.751 17.5007 228.975 17.4727 229.143 17.426C229.311 17.37 229.442 17.286 229.535 17.174C229.638 17.062 229.703 16.908 229.731 16.712C229.769 16.5067 229.787 16.2407 229.787 15.914V9.88C229.787 9.376 229.778 8.956 229.759 8.62C229.75 8.27467 229.731 8.04133 229.703 7.92C229.657 7.70533 229.545 7.56067 229.367 7.486C229.199 7.41133 228.891 7.374 228.443 7.374V6.898L231.089 6.38V15.816ZM239.598 12.82C239.598 12.4373 239.589 12.1387 239.57 11.924C239.551 11.7 239.5 11.532 239.416 11.42C239.341 11.2987 239.225 11.2193 239.066 11.182C238.917 11.1353 238.707 11.098 238.436 11.07V10.58H240.97V14.878C240.97 15.41 240.975 15.844 240.984 16.18C241.003 16.516 241.026 16.768 241.054 16.936C241.073 17.0573 241.101 17.1553 241.138 17.23C241.185 17.2953 241.25 17.3513 241.334 17.398C241.418 17.4353 241.525 17.4633 241.656 17.482C241.796 17.4913 241.973 17.496 242.188 17.496V17.986L239.878 18.154L239.724 16.474H239.668C239.313 17.0527 238.903 17.4773 238.436 17.748C237.979 18.0093 237.498 18.14 236.994 18.14C236.602 18.14 236.219 18.0653 235.846 17.916C235.482 17.7667 235.207 17.566 235.02 17.314C234.861 17.1087 234.745 16.824 234.67 16.46C234.605 16.096 234.572 15.6247 234.572 15.046V12.82C234.572 12.4373 234.563 12.1387 234.544 11.924C234.525 11.7 234.474 11.532 234.39 11.42C234.315 11.2987 234.199 11.2193 234.04 11.182C233.891 11.1353 233.681 11.098 233.41 11.07V10.58H235.944V14.402C235.944 15.4193 236.061 16.1567 236.294 16.614C236.537 17.0713 236.919 17.3 237.442 17.3C238.263 17.3 238.903 16.7633 239.36 15.69C239.407 15.578 239.444 15.4753 239.472 15.382C239.5 15.2887 239.523 15.186 239.542 15.074C239.561 14.962 239.575 14.836 239.584 14.696C239.593 14.556 239.598 14.388 239.598 14.192V12.82ZM244.099 18H243.791V15.592H244.141C244.505 16.908 245.168 17.566 246.129 17.566C246.502 17.566 246.796 17.4773 247.011 17.3C247.235 17.1133 247.347 16.8333 247.347 16.46C247.347 16.32 247.324 16.2033 247.277 16.11C247.24 16.0073 247.16 15.9047 247.039 15.802C246.927 15.69 246.764 15.564 246.549 15.424C246.344 15.284 246.068 15.1067 245.723 14.892C245.406 14.696 245.13 14.514 244.897 14.346C244.664 14.178 244.468 14.01 244.309 13.842C244.15 13.6647 244.029 13.478 243.945 13.282C243.87 13.086 243.833 12.8573 243.833 12.596C243.833 12.2787 243.884 11.9893 243.987 11.728C244.099 11.4573 244.248 11.2287 244.435 11.042C244.622 10.8553 244.841 10.7107 245.093 10.608C245.345 10.496 245.62 10.44 245.919 10.44C246.171 10.44 246.432 10.482 246.703 10.566C246.974 10.6407 247.212 10.7433 247.417 10.874L247.697 10.58H247.963V12.596H247.599C247.394 12.0267 247.17 11.6207 246.927 11.378C246.684 11.1353 246.386 11.014 246.031 11.014C245.714 11.014 245.457 11.098 245.261 11.266C245.074 11.434 244.981 11.6673 244.981 11.966C244.981 12.1247 245.004 12.2647 245.051 12.386C245.107 12.498 245.191 12.61 245.303 12.722C245.415 12.834 245.555 12.9507 245.723 13.072C245.9 13.184 246.11 13.3147 246.353 13.464C246.754 13.716 247.095 13.94 247.375 14.136C247.664 14.332 247.898 14.528 248.075 14.724C248.252 14.9107 248.383 15.1067 248.467 15.312C248.551 15.5173 248.593 15.7507 248.593 16.012C248.593 16.6747 248.378 17.1973 247.949 17.58C247.52 17.9533 246.955 18.14 246.255 18.14C245.527 18.14 244.902 17.93 244.379 17.51L244.099 18ZM250.212 11.462V10.944C250.707 10.6547 251.094 10.3653 251.374 10.076C251.654 9.78667 251.869 9.44133 252.018 9.04H252.424V10.804H254.3V11.462H252.424V15.718C252.424 16.0447 252.438 16.32 252.466 16.544C252.504 16.768 252.56 16.95 252.634 17.09C252.709 17.2207 252.807 17.314 252.928 17.37C253.05 17.426 253.204 17.454 253.39 17.454C253.624 17.454 253.82 17.4073 253.978 17.314C254.146 17.2113 254.31 17.0433 254.468 16.81L254.818 17.076C254.688 17.4213 254.459 17.6873 254.132 17.874C253.815 18.0513 253.418 18.14 252.942 18.14C252.326 18.14 251.855 17.9953 251.528 17.706C251.211 17.4073 251.052 16.9827 251.052 16.432V11.462H250.212ZM258.451 15.774C258.451 16.1567 258.461 16.46 258.479 16.684C258.498 16.908 258.545 17.0807 258.619 17.202C258.703 17.314 258.82 17.3887 258.969 17.426C259.119 17.4633 259.329 17.4913 259.599 17.51V18H255.875V17.51C256.146 17.5007 256.361 17.4773 256.519 17.44C256.678 17.3933 256.799 17.314 256.883 17.202C256.967 17.09 257.019 16.9313 257.037 16.726C257.065 16.5113 257.079 16.2267 257.079 15.872V14.234C257.079 13.5993 257.07 13.1047 257.051 12.75C257.042 12.3953 256.995 12.134 256.911 11.966C256.837 11.798 256.715 11.7 256.547 11.672C256.379 11.6347 256.146 11.616 255.847 11.616V11.126L258.297 10.594L258.493 12.33H258.549C258.671 12.05 258.82 11.7933 258.997 11.56C259.184 11.3267 259.385 11.1307 259.599 10.972C259.814 10.804 260.038 10.6733 260.271 10.58C260.505 10.4867 260.743 10.44 260.985 10.44C261.284 10.44 261.517 10.5147 261.685 10.664C261.863 10.804 261.951 10.9953 261.951 11.238C261.951 11.462 261.881 11.6393 261.741 11.77C261.601 11.8913 261.401 11.952 261.139 11.952C260.99 11.952 260.864 11.9333 260.761 11.896C260.659 11.8587 260.565 11.8213 260.481 11.784C260.407 11.7373 260.332 11.6953 260.257 11.658C260.192 11.6207 260.117 11.602 260.033 11.602C259.781 11.602 259.529 11.7653 259.277 12.092C259.025 12.4093 258.829 12.8153 258.689 13.31C258.615 13.5807 258.554 13.8887 258.507 14.234C258.47 14.57 258.451 14.9247 258.451 15.298V15.774ZM267.301 13.856C266.769 14.0613 266.317 14.262 265.943 14.458C265.579 14.654 265.285 14.85 265.061 15.046C264.837 15.242 264.674 15.438 264.571 15.634C264.478 15.83 264.431 16.0307 264.431 16.236C264.431 16.544 264.534 16.796 264.739 16.992C264.945 17.188 265.215 17.286 265.551 17.286C265.794 17.286 266.018 17.2253 266.223 17.104C266.438 16.9827 266.625 16.8193 266.783 16.614C266.942 16.3993 267.068 16.152 267.161 15.872C267.255 15.5827 267.301 15.2793 267.301 14.962V13.856ZM267.301 13.254V12.68C267.301 11.5413 266.816 10.972 265.845 10.972C265.687 10.972 265.551 10.986 265.439 11.014C265.327 11.042 265.234 11.0887 265.159 11.154C265.085 11.2193 265.015 11.3127 264.949 11.434C264.893 11.5553 264.837 11.7047 264.781 11.882C264.679 12.1527 264.576 12.3347 264.473 12.428C264.38 12.512 264.24 12.554 264.053 12.554C263.587 12.554 263.353 12.3207 263.353 11.854C263.353 11.406 263.591 11.0607 264.067 10.818C264.543 10.566 265.22 10.44 266.097 10.44C267.031 10.44 267.693 10.608 268.085 10.944C268.477 11.2707 268.673 11.8307 268.673 12.624V15.76C268.673 16.824 268.883 17.356 269.303 17.356C269.434 17.356 269.56 17.342 269.681 17.314C269.803 17.2767 269.905 17.188 269.989 17.048L270.185 17.384C270.073 17.5987 269.868 17.7807 269.569 17.93C269.271 18.07 268.958 18.14 268.631 18.14C268.221 18.14 267.913 18.0093 267.707 17.748C267.511 17.4867 267.413 17.118 267.413 16.642H267.343C267.101 17.0993 266.765 17.4633 266.335 17.734C265.906 17.9953 265.43 18.126 264.907 18.126C264.319 18.126 263.857 17.9767 263.521 17.678C263.185 17.3793 263.017 16.978 263.017 16.474C263.017 16.25 263.055 16.0353 263.129 15.83C263.213 15.6247 263.344 15.4287 263.521 15.242C263.699 15.0553 263.932 14.8733 264.221 14.696C264.511 14.5093 264.865 14.3227 265.285 14.136L267.301 13.254ZM271.127 11.462V10.944C271.622 10.6547 272.009 10.3653 272.289 10.076C272.569 9.78667 272.784 9.44133 272.933 9.04H273.339V10.804H275.215V11.462H273.339V15.718C273.339 16.0447 273.353 16.32 273.381 16.544C273.419 16.768 273.475 16.95 273.549 17.09C273.624 17.2207 273.722 17.314 273.843 17.37C273.965 17.426 274.119 17.454 274.305 17.454C274.539 17.454 274.735 17.4073 274.893 17.314C275.061 17.2113 275.225 17.0433 275.383 16.81L275.733 17.076C275.603 17.4213 275.374 17.6873 275.047 17.874C274.73 18.0513 274.333 18.14 273.857 18.14C273.241 18.14 272.77 17.9953 272.443 17.706C272.126 17.4073 271.967 16.9827 271.967 16.432V11.462H271.127ZM279.45 15.774C279.45 16.138 279.464 16.432 279.492 16.656C279.53 16.8707 279.595 17.0433 279.688 17.174C279.782 17.2953 279.912 17.3793 280.08 17.426C280.248 17.4727 280.472 17.5007 280.752 17.51V18H276.734V17.51C277.014 17.5007 277.243 17.4727 277.42 17.426C277.598 17.37 277.733 17.286 277.826 17.174C277.929 17.0527 277.994 16.8893 278.022 16.684C278.06 16.4693 278.078 16.1987 278.078 15.872V14.08C278.078 13.5387 278.069 13.0953 278.05 12.75C278.041 12.3953 278.018 12.1527 277.98 12.022C277.934 11.8073 277.826 11.6627 277.658 11.588C277.49 11.504 277.173 11.462 276.706 11.462V10.972L279.45 10.44V15.774ZM277.84 7.598C277.84 7.35533 277.924 7.15 278.092 6.982C278.26 6.814 278.466 6.73 278.708 6.73C278.951 6.73 279.156 6.814 279.324 6.982C279.492 7.15 279.576 7.35533 279.576 7.598C279.576 7.84067 279.492 8.046 279.324 8.214C279.156 8.382 278.951 8.466 278.708 8.466C278.466 8.466 278.26 8.382 278.092 8.214C277.924 8.046 277.84 7.84067 277.84 7.598ZM285.98 10.44C286.512 10.44 287.016 10.538 287.492 10.734C287.968 10.9207 288.383 11.182 288.738 11.518C289.102 11.854 289.386 12.2553 289.592 12.722C289.806 13.1793 289.914 13.6833 289.914 14.234C289.914 14.8033 289.806 15.326 289.592 15.802C289.386 16.278 289.102 16.6887 288.738 17.034C288.383 17.3793 287.968 17.65 287.492 17.846C287.016 18.042 286.512 18.14 285.98 18.14C285.457 18.14 284.958 18.0467 284.482 17.86C284.015 17.664 283.604 17.3933 283.25 17.048C282.895 16.7027 282.615 16.292 282.41 15.816C282.204 15.3307 282.102 14.8033 282.102 14.234C282.102 13.6833 282.204 13.1747 282.41 12.708C282.615 12.2413 282.895 11.84 283.25 11.504C283.604 11.168 284.015 10.9067 284.482 10.72C284.958 10.5333 285.457 10.44 285.98 10.44ZM285.98 11.112C285.634 11.112 285.317 11.1867 285.028 11.336C284.748 11.4853 284.505 11.7 284.3 11.98C284.104 12.2507 283.95 12.582 283.838 12.974C283.735 13.3567 283.684 13.7813 283.684 14.248C283.684 14.7333 283.735 15.172 283.838 15.564C283.95 15.956 284.104 16.292 284.3 16.572C284.505 16.8427 284.748 17.0527 285.028 17.202C285.308 17.3513 285.625 17.426 285.98 17.426C286.334 17.426 286.656 17.3513 286.946 17.202C287.235 17.0527 287.482 16.838 287.688 16.558C287.893 16.278 288.052 15.942 288.164 15.55C288.276 15.158 288.332 14.724 288.332 14.248C288.332 13.7813 288.276 13.3567 288.164 12.974C288.052 12.5913 287.893 12.2647 287.688 11.994C287.482 11.714 287.235 11.4993 286.946 11.35C286.656 11.1913 286.334 11.112 285.98 11.112ZM294.014 15.802C294.014 16.1847 294.023 16.488 294.042 16.712C294.061 16.9267 294.107 17.0947 294.182 17.216C294.266 17.328 294.383 17.4027 294.532 17.44C294.691 17.4773 294.905 17.5053 295.176 17.524V18H291.508V17.524C291.769 17.5053 291.975 17.4773 292.124 17.44C292.283 17.4027 292.404 17.328 292.488 17.216C292.572 17.104 292.623 16.9453 292.642 16.74C292.67 16.5347 292.684 16.2547 292.684 15.9V14.038C292.684 12.9273 292.656 12.2507 292.6 12.008C292.572 11.8867 292.535 11.7887 292.488 11.714C292.451 11.63 292.39 11.5693 292.306 11.532C292.222 11.4853 292.115 11.4573 291.984 11.448C291.853 11.4293 291.685 11.42 291.48 11.42V10.972L293.72 10.44L293.888 11.826H293.944C294.299 11.3873 294.714 11.0467 295.19 10.804C295.666 10.5613 296.184 10.44 296.744 10.44C297.173 10.44 297.565 10.51 297.92 10.65C298.275 10.79 298.545 10.9813 298.732 11.224C298.891 11.4387 299.003 11.7187 299.068 12.064C299.133 12.4 299.166 12.8667 299.166 13.464V15.802C299.166 16.1847 299.175 16.488 299.194 16.712C299.222 16.9267 299.273 17.0947 299.348 17.216C299.423 17.328 299.535 17.4027 299.684 17.44C299.843 17.4773 300.048 17.5053 300.3 17.524V18H296.674V17.524C296.935 17.5147 297.141 17.4913 297.29 17.454C297.449 17.4073 297.565 17.328 297.64 17.216C297.724 17.104 297.775 16.9453 297.794 16.74C297.822 16.5253 297.836 16.2453 297.836 15.9V14.052C297.836 13.52 297.808 13.072 297.752 12.708C297.696 12.344 297.603 12.05 297.472 11.826C297.351 11.602 297.187 11.4433 296.982 11.35C296.777 11.2473 296.529 11.196 296.24 11.196C295.82 11.196 295.433 11.308 295.078 11.532C294.733 11.7467 294.462 12.0453 294.266 12.428C294.219 12.5213 294.177 12.61 294.14 12.694C294.112 12.778 294.089 12.876 294.07 12.988C294.051 13.1 294.037 13.2307 294.028 13.38C294.019 13.52 294.014 13.702 294.014 13.926V15.802Z" fill="#6D6B67"/>
<path d="M310.341 6.81818L306.591 20.75H305.364L309.114 6.81818H310.341Z" fill="black"/>
</svg>
