<svg width="17" height="18" viewBox="0 0 17 18" fill="none" xmlns="http://www.w3.org/2000/svg">
<path d="M1.42834 6.02693C1.49045 5.01067 1.74992 4.16721 2.20627 3.4965C2.66261 2.82577 3.24342 2.28717 3.94868 1.88067C4.65419 1.47419 5.44243 1.18963 6.31364 1.02703C7.20571 0.844109 8.09778 0.752647 8.98985 0.752647C9.79895 0.752647 10.6184 0.81363 11.4481 0.935571C12.2781 1.03721 13.0351 1.25061 13.7198 1.5758C14.4044 1.901 14.9643 2.35831 15.4001 2.94773C15.8358 3.51681 16.0535 4.279 16.0535 5.23425V13.4353C16.0535 14.1467 16.095 14.8275 16.178 15.4779C16.261 16.1284 16.4063 16.6161 16.6137 16.9413H12.1327C12.0498 16.6973 11.9771 16.4536 11.915 16.2096C11.8735 15.9455 11.8423 15.6812 11.8215 15.4169C11.1162 16.1284 10.2865 16.6263 9.33206 16.9107C8.37787 17.1954 7.40283 17.3376 6.40716 17.3376C5.63954 17.3376 4.92373 17.2461 4.25995 17.0631C3.59617 16.8802 3.01537 16.5958 2.51729 16.2096C2.01946 15.8234 1.62546 15.3357 1.33482 14.7462C1.06528 14.1568 0.930267 13.4556 0.930267 12.6426C0.930267 11.7483 1.0859 11.0167 1.39716 10.4476C1.72905 9.85813 2.14392 9.39067 2.64175 9.04515C3.16045 8.69963 3.74125 8.44557 4.38441 8.28297C5.04819 8.10005 5.71221 7.95778 6.37599 7.85614C7.03977 7.75453 7.69323 7.67322 8.33639 7.61226C8.97954 7.55128 9.55004 7.45982 10.0479 7.33788C10.5457 7.21591 10.9399 7.04316 11.2303 6.81958C11.5208 6.5757 11.6555 6.23016 11.6349 5.78302C11.6349 5.31556 11.5519 4.94972 11.386 4.68548C11.2407 4.40094 11.0332 4.18754 10.7634 4.04525C10.5145 3.88265 10.2138 3.78104 9.86106 3.74038C9.52917 3.6794 9.16611 3.64892 8.77211 3.64892C7.90066 3.64892 7.21602 3.83185 6.71818 4.19769C6.22035 4.56354 5.92995 5.17327 5.84698 6.02693H1.42834ZM11.6349 9.22807C11.4481 9.39067 11.2095 9.52278 10.9191 9.6244C10.6495 9.70571 10.3486 9.77684 10.0167 9.8378C9.70567 9.89878 9.37354 9.94959 9.02103 9.99024C8.66828 10.0309 8.31552 10.0817 7.96301 10.1427C7.63112 10.2036 7.29923 10.285 6.9671 10.3866C6.65608 10.4882 6.37598 10.6305 6.12707 10.8134C5.89877 10.976 5.71221 11.1894 5.56688 11.4536C5.4218 11.7178 5.34914 12.0532 5.34914 12.4597C5.34914 12.8459 5.4218 13.1711 5.56688 13.4353C5.71221 13.6995 5.90909 13.9129 6.15824 14.0755C6.40716 14.2178 6.69756 14.3194 7.02945 14.3804C7.36134 14.4414 7.70354 14.4719 8.05629 14.4719C8.9275 14.4719 9.60183 14.3296 10.079 14.045C10.556 13.7605 10.9088 13.4251 11.1371 13.039C11.3651 12.6325 11.4999 12.226 11.5416 11.8195C11.6037 11.413 11.6349 11.0878 11.6349 10.8439V9.22807Z" fill="#0E0E0E"/>
</svg>
