<svg width="7" height="7" viewBox="0 0 7 7" fill="none" xmlns="http://www.w3.org/2000/svg">
<path d="M3.45575 0.590535C2.67279 0.590535 2.00565 0.87034 1.45386 1.43C0.911417 1.97747 0.640197 2.62681 0.640197 3.37807C0.640197 4.15669 0.91597 4.81822 1.46776 5.36267C2.01643 5.90708 2.67902 6.17929 3.45575 6.17929C4.22936 6.17929 4.8905 5.90557 5.43917 5.3581C5.98785 4.80758 6.26218 4.14758 6.26218 3.37807C6.26218 2.62986 5.98928 1.98049 5.44372 1.43C4.89193 0.87034 4.22936 0.590535 3.45575 0.590535ZM6.86313 3.37807C6.86313 4.33311 6.52261 5.13757 5.84132 5.79151C5.17874 6.42414 4.38355 6.74046 3.45575 6.74046C2.49725 6.74046 1.68958 6.41655 1.03323 5.76869C0.376646 5.12086 0.0483551 4.32398 0.0483551 3.37807C0.0483551 2.39566 0.402791 1.57901 1.11165 0.928128C1.77759 0.319837 2.55888 0.0156841 3.45575 0.0156841C4.39578 0.0156841 5.19864 0.344168 5.86458 1.00113C6.53028 1.65809 6.86313 2.45042 6.86313 3.37807ZM5.17563 3.94379C5.08306 4.47301 4.87347 4.84409 4.54686 5.05697C4.22312 5.26685 3.88715 5.37178 3.53896 5.37178C3.02122 5.37178 2.57279 5.18928 2.19366 4.82431C1.81764 4.45933 1.62963 3.98028 1.62963 3.38718C1.62963 2.83363 1.7915 2.3622 2.115 1.9729C2.44161 1.58358 2.88861 1.38892 3.45575 1.38892C3.81642 1.38892 4.12912 1.46192 4.39434 1.6079C4.82575 1.84516 5.09386 2.26032 5.19865 2.85342L4.32959 2.83972C4.27708 2.56599 4.16629 2.38198 3.99674 2.2877C3.85478 2.19948 3.69914 2.1554 3.52984 2.1554C3.27397 2.1554 3.06438 2.26032 2.90107 2.47018C2.73752 2.677 2.656 2.99029 2.656 3.41C2.656 3.8267 2.7452 4.12932 2.92409 4.31789C3.10586 4.50647 3.32313 4.60075 3.57589 4.60075C3.80706 4.60075 3.98116 4.5384 4.09842 4.41371C4.21857 4.289 4.29554 4.13237 4.32959 3.94379H5.17563Z" fill="black"/>
</svg>
