<svg width="17" height="18" viewBox="0 0 17 18" fill="none" xmlns="http://www.w3.org/2000/svg">
<path d="M11.8266 7.36836H4.63844C4.65906 7.06349 4.72141 6.71797 4.82501 6.3318C4.94971 5.94562 5.14659 5.57977 5.41636 5.23425C5.70677 4.88873 6.08015 4.6042 6.53649 4.38062C7.0137 4.13671 7.60505 4.01477 8.31032 4.01477C9.38896 4.01477 10.1877 4.29931 10.7064 4.86841C11.2458 5.4375 11.6191 6.27081 11.8266 7.36836ZM4.63844 10.1122H16.2452C16.3282 8.8927 16.2246 7.72403 15.9342 6.60618C15.6438 5.48831 15.1665 4.49241 14.5028 3.61844C13.8596 2.74448 13.0297 2.05344 12.0134 1.54532C10.9968 1.01688 9.80381 0.752647 8.43477 0.752647C7.21081 0.752647 6.09045 0.966051 5.07416 1.39288C4.07826 1.81971 3.21736 2.40911 2.49124 3.16113C1.76511 3.89283 1.20516 4.76679 0.810927 5.78302C0.416689 6.79926 0.219818 7.8968 0.219818 9.07563C0.219818 10.2951 0.406376 11.413 0.779751 12.4292C1.17399 13.4454 1.72362 14.3194 2.42912 15.0511C3.13438 15.7829 3.99528 16.3518 5.01181 16.7583C6.02834 17.1445 7.16933 17.3376 8.43477 17.3376C10.2604 17.3376 11.8163 16.9311 13.1023 16.1182C14.3886 15.3052 15.3428 13.9536 15.9651 12.0634H12.0755C11.9304 12.5512 11.5362 13.0186 10.893 13.4658C10.2499 13.8926 9.48249 14.106 8.59042 14.106C7.34559 14.106 6.3914 13.791 5.72762 13.1609C5.06361 12.5308 4.70055 11.5146 4.63844 10.1122Z" fill="#0E0E0E"/>
</svg>
