<svg width="16" height="23" viewBox="0 0 16 23" fill="none" xmlns="http://www.w3.org/2000/svg">
<path d="M8.0282 13.2219C7.34356 13.2219 6.77307 13.0796 6.31672 12.7951C5.86038 12.5105 5.487 12.1447 5.19659 11.6975C4.92681 11.2504 4.72969 10.7524 4.60523 10.2036C4.50164 9.63457 4.4496 9.06548 4.4496 8.49638C4.4496 7.90695 4.51195 7.34803 4.63641 6.81958C4.78173 6.27081 4.99948 5.79318 5.28988 5.3867C5.60114 4.95987 5.97452 4.62452 6.41 4.38062C6.86659 4.13671 7.40591 4.01477 8.0282 4.01477C8.75433 4.01477 9.356 4.14689 9.83297 4.4111C10.3102 4.67533 10.6939 5.031 10.9845 5.47816C11.2749 5.92529 11.4823 6.44359 11.6068 7.03299C11.7313 7.60209 11.7934 8.21184 11.7934 8.86222C11.7934 9.43132 11.7104 9.98009 11.5444 10.5085C11.3994 11.0167 11.1711 11.474 10.8598 11.8804C10.5488 12.2869 10.1545 12.6121 9.67757 12.856C9.20036 13.0999 8.65049 13.2219 8.0282 13.2219ZM15.9943 15.9353V1.17948H11.7934V3.28308H11.7313C11.1919 2.36846 10.5176 1.71807 9.70851 1.3319C8.92027 0.945747 7.99703 0.752647 6.93901 0.752647C5.81889 0.752647 4.82322 0.966051 3.95177 1.39288C3.10119 1.81971 2.38561 2.39896 1.80481 3.13066C1.22376 3.84202 0.777722 4.67533 0.466696 5.63058C0.176293 6.56553 0.0309753 7.54113 0.0309753 8.55736C0.0309753 9.63457 0.155435 10.661 0.404352 11.6366C0.674132 12.5918 1.08899 13.4353 1.64917 14.167C2.20911 14.8784 2.92493 15.4474 3.79614 15.8743C4.66759 16.2808 5.70474 16.4841 6.90808 16.4841C7.88312 16.4841 8.80613 16.291 9.67757 15.9048C10.5694 15.4983 11.254 14.8784 11.7313 14.045H11.7934V16.1182C11.8142 17.2361 11.5341 18.1607 10.9533 18.8924C10.3932 19.6241 9.49077 19.9899 8.24594 19.9899C7.45771 19.9899 6.76275 19.8274 6.16109 19.5022C5.55966 19.1974 5.15511 18.6385 4.94768 17.8254H0.559982C0.622331 18.7196 0.871251 19.4819 1.30674 20.112C1.76332 20.7623 2.32326 21.2907 2.98728 21.6973C3.67168 22.1038 4.41867 22.3985 5.22753 22.5814C6.05749 22.7847 6.86659 22.8864 7.65483 22.8864C9.50108 22.8864 10.974 22.6424 12.0735 22.1547C13.173 21.6668 14.0132 21.0671 14.594 20.3558C15.1748 19.6648 15.5482 18.9127 15.7142 18.0999C15.901 17.2868 15.9943 16.5653 15.9943 15.9353Z" fill="#0E0E0E"/>
</svg>
