<svg width="16" height="17" viewBox="0 0 16 17" fill="none" xmlns="http://www.w3.org/2000/svg">
<path d="M0.169266 1.17948V16.9413H4.58804V8.6793C4.58804 7.07364 4.85758 5.92529 5.39714 5.23425C5.93646 4.52289 6.80767 4.16721 8.01101 4.16721C9.06902 4.16721 9.80546 4.49241 10.2203 5.14279C10.6352 5.77287 10.8426 6.7383 10.8426 8.03907V16.9413H15.2612V7.24641C15.2612 6.27081 15.168 5.3867 14.9812 4.59402C14.8152 3.78104 14.5145 3.10015 14.0788 2.55138C13.6433 1.98231 13.0416 1.54532 12.274 1.24044C11.5273 0.915244 10.5625 0.752647 9.38005 0.752647C8.44649 0.752647 7.5338 0.966051 6.64173 1.39288C5.74965 1.79938 5.02353 2.45992 4.46358 3.37454H4.37006V1.17948H0.169266Z" fill="#0E0E0E"/>
</svg>
