<svg width="17" height="18" viewBox="0 0 17 18" fill="none" xmlns="http://www.w3.org/2000/svg">
<path d="M4.42666 9.07563C4.42666 8.44557 4.48876 7.82566 4.61322 7.21591C4.73768 6.60618 4.94535 6.06756 5.23575 5.6001C5.54678 5.13264 5.95133 4.75662 6.44916 4.47208C6.94724 4.16721 7.56953 4.01477 8.31628 4.01477C9.06303 4.01477 9.68556 4.16721 10.1834 4.47208C10.7021 4.75662 11.1066 5.13264 11.397 5.6001C11.7081 6.06756 11.9261 6.60618 12.0505 7.21591C12.175 7.82566 12.2371 8.44557 12.2371 9.07563C12.2371 9.70571 12.175 10.3256 12.0505 10.9353C11.9261 11.5248 11.7081 12.0634 11.397 12.5512C11.1066 13.0186 10.7021 13.3946 10.1834 13.6792C9.68556 13.9637 9.06303 14.106 8.31628 14.106C7.56953 14.106 6.94724 13.9637 6.44916 13.6792C5.95133 13.3946 5.54678 13.0186 5.23575 12.5512C4.94535 12.0634 4.73768 11.5248 4.61322 10.9353C4.48876 10.3256 4.42666 9.70571 4.42666 9.07563ZM0.00802612 9.07563C0.00802612 10.3358 0.204904 11.474 0.599143 12.4902C0.993381 13.5064 1.55332 14.3804 2.27945 15.1121C3.00557 15.8234 3.87678 16.3722 4.89331 16.7583C5.90984 17.1445 7.05083 17.3376 8.31628 17.3376C9.58173 17.3376 10.7227 17.1445 11.7392 16.7583C12.7764 16.3722 13.6582 15.8234 14.3843 15.1121C15.1104 14.3804 15.6704 13.5064 16.0646 12.4902C16.4588 11.474 16.656 10.3358 16.656 9.07563C16.656 7.81549 16.4588 6.67732 16.0646 5.66108C15.6704 4.62452 15.1104 3.75056 14.3843 3.03919C13.6582 2.3075 12.7764 1.74858 11.7392 1.3624C10.7227 0.955899 9.58173 0.752647 8.31628 0.752647C7.05083 0.752647 5.90984 0.955899 4.89331 1.3624C3.87678 1.74858 3.00557 2.3075 2.27945 3.03919C1.55332 3.75056 0.993381 4.62452 0.599143 5.66108C0.204904 6.67732 0.00802612 7.81549 0.00802612 9.07563Z" fill="#0E0E0E"/>
</svg>
