<svg width="16" height="17" viewBox="0 0 16 17" fill="none" xmlns="http://www.w3.org/2000/svg">
<path d="M15.6441 15.9413V0.179478H11.2252V8.44147C11.2252 10.0471 10.9557 11.2057 10.4164 11.917C9.87679 12.6081 9.00558 12.9536 7.80249 12.9536C6.74447 12.9536 6.00779 12.6385 5.59293 12.0085C5.17806 11.3581 4.97063 10.3825 4.97063 9.0817V0.179478H0.552002V9.87438C0.552002 10.85 0.634973 11.7443 0.800917 12.5572C0.987485 13.3499 1.29875 14.0308 1.73448 14.5999C2.16996 15.1485 2.76132 15.5754 3.50807 15.8802C4.27568 16.1852 5.25072 16.3376 6.4332 16.3376C7.36676 16.3376 8.27945 16.1344 9.17153 15.7278C10.0636 15.3215 10.7897 14.6609 11.3497 13.7462H11.4432V15.9413H15.6441Z" fill="#0E0E0E"/>
</svg>
